<svg xmlns="http://www.w3.org/2000/svg" fill-rule="evenodd" stroke-miterlimit="10" clip-rule="evenodd" viewBox="0 0 1440 950">
  <path fill="none" d="M0 0h1440v950H0z"/>
  <clipPath id="a">
    <path d="M0 0h1440v950H0z"/>
  </clipPath>
  <g clip-path="url(#a)">
    <path fill="none" stroke="#414042" d="M1157.25 966.366c-3.592-260.706-165.317-246.582-202.632-232.85l-.003-.007s-7.197 2.947-12.082 7.222c-11.187 9.789-11.653 27.426-1.773 38.584 7.904 8.926 21.354 9.578 30.042 1.457 6.649-6.215 7.402-16.603 1.918-23.744l-.337-.343c9.84 9.93 15.918 23.594 15.918 38.678 0 30.353-27.948 55.023-58.297 55.023-27.82 0-51.903-16.54-62.935-40.19-4.146-8.891-6.461-18.806-6.461-29.262 0-26.315 14.665-49.204 36.27-60.94m-15.149-81.489c-11.425 2.365-22.744 6.837-33.345 13.525-43.675 27.556-58.63 82.307-33.403 122.291 12.078 19.143 30.759 31.435 52.18 36.025m325.756 144.83s26.305-149.85-72.911-245.738c-39.844-80.391-115.495-105.419-134.264-111.607-18.769-6.189-144.755-36.097-184.831 57.937-15.119 31.653 4.869 52.985 4.869 52.985m295.039 255.483c24.775-48 28.797-120.09 27.619-148.05m-259.774 146.34c70.786-9.47 133.811-29.36 160.867-68.06 59.953-85.75 31.287-138.816 14.459-158.995m-56.457 247.545c119.635-87.22 111.702-181.995 101.923-220.555M-75.2 110.032c132.31 153.676 553.251 59.888 536.494 413.09M1494.263 693.26C901.834 174.459 633.047 551.692 361.67 616.951m1097.7 270.345C851.894 209.404 706.182 583.101 383.75 638.505m1060.23-21.49l-3.983-3.096C1309.852 509.838 1127.512 403.1 924.393 387.593 721.274 372.084 530.627 475 341.172 596.633m-121.104 419.733c11.329-110.77-171.998-100.94-339.758-330.138m479.397 280.928C174.879 614.154-1.65 693.786-141.48 540.989m413.085 432.547C261.567 819.366 38.75 819.166-87.72 645.273m941.669-537.231c-17.897-16.116-28.13-39.229-25.77-63.821 5.156-53.748 60.123-87.216 114.628-87.216 109.683 0 238.953 165.942-108.377 300.065-22.455 8.679-80.545 38.734-106.402 66.01m366.008 98.392c38.432-20.496 88.939-76.59 63.461-90.037-50.421-26.612-192.143 60.533-192.143 60.533m-76.001-267.151c-31.852-3.055-55.195-31.353-52.139-63.205 3.819-39.814 42.39-72.524 79.006-65.174 36.615 7.351 109.814 94.141-75.858 222.704 0 0-113.144 70.97-115.463 116.772-4.902 96.844 220.889-84.317 305.176-136.35 71.704-44.264 186.285-81.929 264.037-60.073 158.989 44.691 76.273 226.705-.686 300.768 0 0-31.925 29.018-50.083 44.173m168.155-42.178c-48.808 60.138-40.084 120.472-40.084 120.472M367.457-175.169c28.238 79.25 91.28 147.308 95.22 140.084 3.94-7.224 138.963-186.729 150.838-67.982 18.796 187.956 279.061 281.396 279.061 281.396M110.96-278.594c8.64 106.533 179.081 571.95 593.041 569.615m149.217-81.012S442.936 140.921 415.216-42.995M251.845-15.62C618.61 304.831 765.914 263.265 766.131 263.336m363.262 170.303c189.773-82.926 171.661-191.804 114.25-214.259-174.953-68.428-394.229 148.192-416.868 169.558M472.176 719.529c97.814-84.849 207.9 19.072 331.687-70.16M1157.25 757.37c88.317 45.403 184.98 107.936 290.193 192.626M551.129 786.493c65.995-11.978 160.71-15.978 278.539 5.045m146.166 37.148c22.798 7.38 52.933 16.77 76.656 26.06m143.075 66.05c59.018 31.46 119.854 69.2 181.83 114.26M-229.74 463.816c353.21-17.123 685.8 449.75 695.523 593.3m330.811-40.08c-288.942 5.13-602.901-716.684-1026.334-687.683m130.37-128.272c203.03 59.226 449.904 527.976 962.406 789.525m474.767-504.443c-7.339 19.158-9.944 32.6-11.237 46.483m76.436-121.091c18.954-16.495 28.483-34.893 23.229-48.76-5.335-14.083-36.538-24.655-61.974-26.02m-76.029 172.49s141.936-57.935 174.496-119.147c29.019-54.556-8.907-115.876-77.906-136.677 23.855 8.572 87.121 38.208 81.161 85.883-10.942 87.54-171.991 100.889-172.553 100.935m-712.249 20.489c-4.623-50.057 52.91-142.358 135.938-175.553 36.464-14.577 75.71-33.751 110.698-57.666"/>
  </g>
</svg>
