<svg viewBox="0 0 1440 950" xmlns="http://www.w3.org/2000/svg" fill-rule="evenodd" clip-rule="evenodd" stroke-miterlimit="10"><path fill="none" d="M0 0h1440v950H0z"/><clipPath id="a"><path d="M0 0h1440v950H0z"/></clipPath><g opacity=".37" clip-path="url(#a)"><clipPath id="b"><path clip-rule="nonzero" d="M.092 0h1439.91v948.078H.092z"/></clipPath><g clip-path="url(#b)" fill="none" stroke="#fff"><path d="M1986.28-171.669C1635.5 90.674 1215.8 50.944 1055.62 22.565 895.438-5.813 704.987-68.245 682.285-10.227c-22.703 58.018 63.063 287.568 312.793 440.246C1244.81 582.698 1254.9 712.607 1254.9 712.607c30.27 282.912-294.389 306.163-294.389 306.163l201.059-23.251s201.8-85.024 413.69-299.439c211.89-214.414 428.26-199.817 428.26-199.817l-17.24-667.932zM307.69 995.519S139.311 784.998-161.5 788.784c-300.811 3.783-385.947 206.735-385.947 206.735H307.69z"/><path d="M-245.837 995.52s61.634-78.088 167.58-81.871c105.946-3.784 219.46 81.871 219.46 81.871h-387.04zM338.333-218.223c-1.997-3.129-6.123-4.033-9.826-4.281-19.273-1.29-37.69 7.569-54.392 17.273-34.997 20.335-67.041 45.305-100.519 68.056C63.687-62.482-63.53-11.486-195.793 1.371c-3.639.354-7.313.649-10.95.401l63.42 54.847C37.745 27.49 201.233-74.42 332.647-202.545c4.329-4.22 8.938-10.582 5.686-15.678z"/><path d="M-195.793 1.371c132.264-12.857 259.479-63.853 369.39-138.546 33.477-22.751 65.522-47.721 100.519-68.056 16.701-9.705 35.119-18.563 54.391-17.273 3.704.248 7.83 1.151 9.826 4.281 3.252 5.096-1.357 11.458-5.687 15.678C201.234-74.42 37.746 27.49-143.322 56.619l51.648 44.667a47.972 47.972 0 003.885-1.098C36.924 60.042 149.486-12.067 249.35-96.874c41.272-35.049 81.077-72.914 109.832-118.796 5.123-8.173 9.759-19.249 3.736-26.784-4.116-5.15-11.534-6.101-18.121-5.838-22.986.92-44.343 11.61-64.433 22.817-83.107 46.362-159.293 105.709-247.08 142.448C-9.912-64.95-55.288-52.662-101.13-43.442c-23.35 4.696-46.85 8.603-70.404 12.12-12.107 1.808-24.229 3.507-36.358 5.158-7.624 1.037-19.277.784-27.35 3.289l28.499 24.647c3.638.247 7.311-.047 10.95-.401zM1161.57 995.52s201.8-85.024 413.69-299.439c211.89-214.415 428.26-199.818 428.26-199.818v206.643s-261.77 26.985-549.34 210.62c0 0-131.17 81.994-169.01 81.994h-123.6zM1019.06 241.818c-13.25 69.978 29.24 113.839 192.56 216.499 150.15 94.384 160.48 135.964 224.84 155.692 64.36 19.727 139-46.18 205.24-84.45 66.23-38.272 273.78-153.211 400.37-131.068 126.59 22.143-45.33-240.923-45.33-240.923s-273.96 155.999-535.3 101.709c-261.33-54.29-425.53-106.463-442.38-17.459zM69.604 240.388c179.128 130.104 402.622 155.474 446.195 159.716 61.381 5.974 158.078-28.589 94.52-113.044-58.773-78.095-193.741-45.035-346.773-50.707C110.522 230.681-8.71 173.029-8.725 173.021l49.657 42.945c9.647 8.335 19.184 16.432 28.672 24.422z"/><path d="M627.526 317.813c-42.169-69.259-181.075-44.255-281.976-13.985-97.131 29.139-175.818-3.173-181.565-5.629 155.735 80.323 315.691 98.386 351.836 101.905 53.307 5.189 133.225-20.205 111.705-82.291z"/><path d="M797.691 444.356c7.346-61.47-38.579-143.88-96.921-228.367l-.03-.023c29.807 119.617 60.195 184.794-80.678 222.816-153.905 41.54-412.42-90.236-414.661-91.381 358.184 261.734 574.112 249.071 592.29 96.955z"/><path d="M1984.04-189.231a218.547 218.547 0 000 0zm1.74-1.14c.13-.088.25-.163.33-.215l-.33.215zM1094.72 7.431C623.636-75.813 570.663-221.488 506.339-153.38c-61.207 52.637 87.48 214.493 194.431 369.37l-.029-.023c29.807 119.616 60.194 184.794-80.679 222.816-152.622 41.193-408.072-88.029-414.505-91.302-51.944-37.94-106.854-81.601-164.625-131.514l-337.388-291.78s148.199 15.136 309.01-28.378c160.811-43.514 351.893-217.568 514.595-217.568 26.994 0 57.515 6.307 90.095 16.207l.618.189 70.498 25.797c-41.689-14.562-86.005-25.612-91.841-9.4-11.351 31.531 139.82 148.509 235.856 186.667 6.601 2.623 13.37 5.254 20.271 7.887 3.676 1.402 37.401 13.762 44.579 16.261 1.498.522 44.239 14.691 44.483 14.769a1625.83 1625.83 0 0027.757 8.5c.094.027 34.215 9.728 36.685 10.399.82.222 22.15 5.866 32.21 8.361.14.037.28.073.43.109 135.94 33.707 296.68 54.186 463.19 34.977l.38-.042c4.17-.482 8.33-.989 12.51-1.521 257.6-53.05 446.41-171.879 469.11-186.598-33.8 21.922-438.34 276.309-889.26 196.628zM813.514 785.475c-47.037-57.105-123.876-77.695-194.655-99.234-180.165-54.83-352.414-135.598-509.785-239.04C-109 303.858-296.092 119.145-494.847-49.97c-198.755-169.116-415.991-326.3-666.603-399.084-103.58-30.084-211.3-44.829-319.09-46.075-178.15-2.057-355.79 32.177-523.45 91.378-179.46 63.367-496.79 267.267-496.79 267.267l32.5 16.397c850.17-455.447 1412.54-122.212 1412.54-122.212 240.334 126.412 900.546 693.25 1145.232 829.911C372.014 751.577 702.466 793.198 768.051 855c42.19 39.755 30.101 77.419 19.464 98.563.066 4.109-2.064 9.266-7.127 16.037 71.184-20.158 80.163-127.019 33.126-184.125z"/><path d="M-470.781 643.792l-.334.111.004-.043.33-.068zm84.355 73.31s6.727-60.561-43.724-76.107c-4.197-1.294-8.726-1.877-13.464-1.939 36.052-4.698 92.6-5.33 181.633 19.186 96.922 26.689 172.406 109.81 194.649 136.475 60.717 8.531 114.583 25.471 161.239 46.037l-.001-.024s-49.19-174.92-179.73-243.028c-85.136-85.136-147.627-178.598-376.488-191.082-196.547-10.721-231.545 141.101-191.815 156.235 0 0-91.339 53.766-91.339 157.61 0 101.417 105.081 163.603 198.019 153.874 152.613-15.976 161.021-157.237 161.021-157.237z"/><path d="M489.311 902.297C363.729 872.472 129.541 777.159 53.43 745.566c28.299 51.883 40.476 95.165 40.476 95.165l.001.023C232.866 902.01 307.689 995.52 307.689 995.52h-58.796l48.577 33.79 406.156-36.92c-16.283-12.385-83.961-59.134-214.315-90.093zM1575.26 696.08c211.89-214.414 428.26-199.817 428.26-199.817v206.642s-261.77 26.986-549.34 210.621c0 0-131.17 81.993-169.01 81.993h-123.6M864.92-206.984c-51.759-20.827-106.989-44.635-154.999-64.693l-21.562-7.89c-19.128-6.999-39.235-13.237-59.421-16.248-10.486-1.565-28.294-6.379-32.624 7.469-4.158 13.299 10.819 27.43 18.607 36.305 17.255 19.663 37.506 36.785 58.006 52.941 24.89 19.615 50.972 37.767 77.941 54.408 25.057 15.46 51.013 29.907 78.29 41.093 1.07.439 2.142.872 3.217 1.3 6.601 2.622 13.37 5.253 20.271 7.886 3.675 1.402 37.4 13.762 44.579 16.262 1.498.521 44.238 14.691 44.483 14.768a1610.6 1610.6 0 0027.756 8.5c.095.028 34.206 9.729 36.686 10.399.82.222 22.15 5.866 32.21 8.362.14.036.28.073.43.109 135.94 33.707 296.68 54.185 463.19 34.977l.38-.043c4.17-.482 8.33-.988 12.51-1.521 274.87-56.605 471.41-188.105 471.41-188.105l35.53 11.124s-35.51-531.777-35.53-531.909c-1.08-6.412-6.06-13.651-9.14-19.187-8.74-15.722-19.55-30.309-31.89-43.391-17.55-18.612-38.32-34.092-61.14-45.65-29.53-14.957-65.46-26.502-98.83-24.372-25.96 1.657-62 9.755-71.66 37.702-8.59 24.868.4 56.234 24.44 68.537 6.28 3.217 13.59 5.55 20.71 5.55 50.18-1.823 37.87-56.634 37.84-56.756 1.05 4.659-4.43 14.104-6.91 17.908-3.48 5.315-8.57 9.977-15.15 10.579-13.96 1.277-22.71-14.548-14.3-25.755 10.09-13.453 74.83-10.09 122.76 50.451 47.92 60.54 61.17 321.412-230.18 434.926-291.35 113.513-370.2 11.55-370.81 0-.62-11.551 37.5-17.361 15.13-43.514-49.39-57.753-159.56-36.644-223.24 11.351-94.638 83.941 17.02 138.108-28.38 174.055-17 13.459-93.94-13.054-180.61-47.928"/></g></g></svg>