<svg xmlns="http://www.w3.org/2000/svg" fill-rule="evenodd" stroke-miterlimit="10" clip-rule="evenodd" viewBox="0 0 375 740">
  <g>
    <path fill="none" d="M0 0h375v740H0z"/>
    <clipPath id="a">
      <path d="M0 0h375v740H0z"/>
    </clipPath>
    <g clip-path="url(#a)">
      <path fill="none" stroke="#414042" d="M-215.746 298.8333c89.628 104.105 293.157 211.011 452.725 198.131m604.65 226.27c-401.331-351.453-581.761-172.133-757.975-92.195m926.347 292.826c-458.663-454.187-719.453-399.905-926.347-292.826m733.194.043l-2.698-2.098c-88.165-70.508-211.688-142.815-349.288-153.321-137.6-10.506-266.75 59.213-395.094 141.611m334.151-230.031c-15.212 5.879-54.565 26.239-72.081 44.717m76.098-70.41s-43.342 27.187-65.509 53.866c-7.311 8.799-12.319 17.543-12.709 25.238-3.321 65.606 149.638-57.119 206.738-92.368M-12.452 19.8953c30.923 86.786 99.959 161.314 104.275 153.404 4.314-7.911-71.15-129.732 14.382-30.923 109.223 126.179 337.103 191.525 337.103 191.525M-77.547 19.8953c5.852 72.168 172.739 321.838 401.992 386.401m101.895-58.237c-111.225-12.465-310.442-110.758-310.442-110.758s14.383 28.525 71.913 78.384c27.232 23.602 64.266 43.027 95.72 56.942 34.945 15.46 63.004 24.117 63.081 24.142m-188.097 303.759c38.765-17.742 115.385-53.834 224.697-47.528m-171.211 92.892c44.707-8.115 108.87-10.824 188.691 3.417m-717.678-222.009c239.273-11.6 496.611 358.934 587.473 374.668m107.8.101c-143.011-18.83-488.183-428.918-695.273-465.859m88.315-86.897c137.543 40.122 304.781 357.669 651.968 534.852m-190.941-358.944c-3.132-33.911 35.843-96.439 92.089-118.925 24.702-9.875 51.289-22.864 74.99-39.065"/>
    </g>
  </g>
</svg>
