<svg xmlns="http://www.w3.org/2000/svg" fill-rule="evenodd" stroke-miterlimit="10" clip-rule="evenodd" viewBox="0 0 1440 950">
  <path fill="none" d="M0 0h1440v950H0z"/>
  <path fill="#fff" fill-rule="nonzero" d="M108.2113048 570.5747613l-1.88424508 2.11976347-.62509632-.32158797 5.50893813-6.21872227.79551889.4107068-1.78986062 8.2085222-.68260064-.35155888.66475897-2.82112112-1.98741333-1.02600223zm2.1382899.4561475c.48464714-2.19443946.78663086-3.47709632.93750743-4.04695106-.40668396.50906321-1.45138247 1.69670423-2.69834864 3.13856728l1.7608412.90838377zm5.82926332 6.81912841l3.692683-7.15628307.8516102.44061945c-.48278031 6.51011613-.5216466 7.28133055-.58340435 7.68076272.47082094-1.05206191 1.02764584-2.13030248 1.61376425-3.266783l1.58214975-3.06638951.62436069.32226535-3.72118264 7.21243262-.7948415-.40997116c.45921147-6.88263401.55349169-7.6246714.58742718-7.9672184-.4123504.93840804-1.02838147 2.13097986-1.70147006 3.43726381l-1.58288538 3.0670669-.56821114-.2937657zm11.98329058 1.7246507l-2.5563601-1.31909056-1.55223709 3.01029821 2.7254279 1.40673813-.2930301.56753375-3.3505242-1.7283261 3.72191827-7.21311 3.3505242 1.7283261-.29308832.56894676-2.72610528-1.40747376-1.31909056 2.5563601 2.5556827 1.31835493-.26311742.51144244zm1.93154524 5.4546554l2.21524085-7.9178131.68186502.35223625c-.9269102 3.1889388-1.76379358 6.06524326-2.08934614 6.97538224.5528603-.7931979 3.33817912-4.10156862 4.64502884-5.6570273l.6243607.32226535c-.53818688 1.87942589-1.62187066 6.21051163-1.94651524 6.97843885.7858345-1.10560164 3.33891475-4.102246 4.55902488-5.63084864l.68186501.35223625-5.36836997 6.3625194-.68260064-.35155888c.5389225-1.88010327 1.61926083-5.9239977 1.91795735-6.92087628-.72730571.99053475-3.33959214 4.10151037-4.52973137 5.5726087l-.73801456-.3807359.02923527-.05682694zm12.06535206 7.4427705l3.5594472-7.42645757.6069992.46875286c-1.48758152 2.96979314-2.83078588 5.64759265-3.31536195 6.48394453.68690913-.68010093 4.02530842-3.43064704 5.590999-4.72420026l.55623202.42985947c-.86976644 1.75110968-2.71879077 5.81498176-3.17634723 6.5109059.97239143-.94433932 4.02604405-3.43132443 5.50207406-4.71300386l.60626357.46943024-6.43020966 5.287621-.60626357-.46943024c.86908905-1.7518453 2.66266115-5.53492015 3.13677645-6.46087435-.89534028.84348236-4.02604404 3.43132442-5.46250328 4.66297231l-.6069992-.46875285.0388934-.05076718zm13.11907445 4.97172022c-1.64165108 2.12339376-3.08462166 2.94642609-4.5002175 1.85199203-1.3655643-1.05486328-.97241682-2.60906058.70812766-4.78322151 1.64165108-2.12339376 3.10836922-2.76710496 4.42316634-1.75113507 1.36482866 1.05554066 1.04946798 2.50820362-.6310765 4.68236455zm-3.18509064-2.46247662c-1.48540013 1.92106069-1.77306383 3.23403153-.91370001 3.89860612.91013098.70346798 2.0182651.1058389 3.50366523-1.81522179 1.56318692-2.02259504 1.69527704-3.13249719.83591323-3.79707178-.86077683-.66463283-1.97937171-.15660607-3.42587845 1.71368745zm6.01159726 4.97103536l-2.34511907 3.03352475-.55623202-.42985947 4.92568888-6.37085866 1.61719328 1.2513624c1.0624325.82014815 1.14917604 1.8576842.3672439 2.8686139-.74236138.96089817-1.51023835 1.012756-2.08302922.81292659.50151542.70997931.22322185 1.3835689-.44135274 2.24293271l-.19514434.25310025c-.42985947.55623202-.78193215 1.0109297-.95474195 1.44329283l-.55623203-.42985947c.1339164-.38159595.56377587-.93782798.99363534-1.49406l.11735756-.1515659c.70346798-.91013098.892101-1.5718468-.06879717-2.31420816l-.85936381-.6645746.03889339-.05076717zm.35207268-.45469768l.96089816.74236138c.85936382.66457459 1.55346168.39382485 2.1395721-.36474024.50832363-.65703075.59548054-1.39794635-.2131161-2.02362755l-1.01166534-.78125476-1.87568882 2.42726117zm7.83206926 1.7028649l.51457086.47909714-5.09529521 5.47215623 2.15166759 2.00303958-.4354038.46754007-2.66623845-2.48213673 5.53069901-5.93969628zm4.5834295 4.2674453l1.309236 1.21956039c1.35700243 1.26257633 1.140445 2.80777535-.60190585 4.678613-1.87269523 2.01125262-3.47914217 2.61098804-5.02217734 1.17443225l-1.16882104-1.08921602 5.530699-5.9396963-.04703078-.04369332zm-4.58072436 5.95125336l.60795504.56574817c1.21585182 1.13290936 2.46155095.54590461 4.07288006-1.1852537 1.52394245-1.63709673 1.7531723-2.82013492.62996903-3.86571586l-.6072194-.56642555-4.70358473 5.05164694zm4.7641421 4.26144776l.51457084.47909714-.47909714.51457085-.51457085-.47909713.47909714-.51457086z"/>
  <clipPath id="a">
    <path d="M0 0h1440v950H0z"/>
  </clipPath>
  <g clip-path="url(#a)">
    <path fill="none" stroke="#414042" d="M1157.25 966.366c-3.59-260.706-165.317-246.582-202.632-232.85l-.003-.007s-7.197 2.947-12.082 7.222c-11.187 9.789-11.653 27.426-1.773 38.584 7.904 8.926 21.354 9.578 30.042 1.457 6.649-6.215 7.402-16.603 1.918-23.744l-.337-.343c9.84 9.93 15.918 23.594 15.918 38.678 0 30.353-27.948 55.023-58.297 55.023-27.82 0-51.903-16.54-62.935-40.19-4.146-8.891-6.461-18.806-6.461-29.262 0-26.315 14.665-49.204 36.27-60.94m-15.149-81.489c-11.425 2.365-22.744 6.837-33.345 13.525-43.675 27.556-58.63 82.307-33.403 122.291 12.078 19.143 30.759 31.435 52.18 36.025m325.759 144.83s26.3-149.85-72.91-245.738c-39.85-80.391-115.5-105.419-134.268-111.607-18.769-6.189-144.755-36.097-184.831 57.937-15.119 31.653 4.869 52.985 4.869 52.985m295.04 255.483c24.77-48 28.8-120.09 27.62-148.05m-259.776 146.34c70.786-9.47 133.816-29.36 160.866-68.06 59.95-85.75 31.29-138.816 14.46-158.995m-56.457 247.545c119.637-87.22 111.707-181.995 101.927-220.555M-75.2 110.032c132.31 153.676 553.251 59.888 536.494 413.09M1494.26 693.26C901.834 174.459 633.047 551.692 361.67 616.951m1097.7 270.345C851.894 209.404 706.182 583.101 383.75 638.505m1060.23-21.49l-3.98-3.096C1309.85 509.838 1127.51 403.1 924.393 387.593 721.274 372.084 530.627 475 341.172 596.633M220.068 1016.37C231.397 905.596 48.07 915.426-119.69 686.228m479.397 280.928C174.879 614.154-1.65 693.786-141.48 540.989m413.085 432.547C261.567 819.366 38.75 819.166-87.72 645.273m941.669-537.231c-17.897-16.116-28.13-39.229-25.77-63.821 5.156-53.748 60.123-87.216 114.628-87.216 109.683 0 238.953 165.942-108.377 300.065-22.455 8.679-80.545 38.734-106.402 66.01m366.012 98.392c38.43-20.496 88.94-76.59 63.46-90.037-50.42-26.612-192.146 60.533-192.146 60.533m-76.001-267.151c-31.852-3.055-55.195-31.353-52.139-63.205 3.819-39.814 42.39-72.524 79.006-65.174 36.615 7.351 109.81 94.141-75.858 222.704 0 0-113.144 70.97-115.463 116.772-4.902 96.844 220.889-84.317 305.181-136.35 71.7-44.264 186.28-81.929 264.03-60.073 158.99 44.691 76.27 226.705-.68 300.768 0 0-31.93 29.018-50.09 44.173m168.16-42.178c-48.81 60.138-40.09 120.472-40.09 120.472M367.457-175.169c28.238 79.25 91.28 147.308 95.22 140.084 3.94-7.224 138.963-186.729 150.838-67.982 18.796 187.956 279.061 281.396 279.061 281.396M110.96-278.594c8.64 106.533 179.081 571.95 593.041 569.615m149.217-81.012S442.936 140.921 415.216-42.995M251.845-15.62C618.61 304.831 765.914 263.265 766.131 263.336m363.259 170.303c189.78-82.926 171.66-191.804 114.25-214.259-174.95-68.428-394.226 148.192-416.865 169.558M472.176 719.529c97.814-84.849 207.9 19.072 331.687-70.16M1157.25 757.37c88.32 45.403 184.98 107.936 290.19 192.626M551.129 786.493c65.995-11.978 160.71-15.978 278.539 5.045m146.166 37.148c22.798 7.38 52.936 16.77 76.656 26.06m143.08 66.05c59.01 31.46 119.85 69.2 181.82 114.264M-229.74 463.816c353.21-17.123 685.8 449.75 695.523 593.304m330.811-40.08c-288.942 5.13-602.901-716.688-1026.334-687.687m130.37-128.272c203.03 59.226 449.904 527.976 962.406 789.525M1337.8 486.163c-7.34 19.158-9.94 32.6-11.23 46.483M1403 411.555c18.96-16.495 28.49-34.893 23.23-48.76-5.33-14.083-36.54-24.655-61.97-26.02m-76.03 172.49s141.93-57.935 174.49-119.147c29.02-54.556-8.9-115.876-77.9-136.677 23.85 8.572 87.12 38.208 81.16 85.883-10.94 87.54-171.99 100.889-172.55 100.935m-712.253 20.489c-4.623-50.057 52.91-142.358 135.938-175.553 36.464-14.577 75.71-33.751 110.698-57.666"/>
  </g>
</svg>
