<svg xmlns="http://www.w3.org/2000/svg" fill-rule="evenodd" stroke-miterlimit="10" clip-rule="evenodd" viewBox="0 0 375 740">
  <path fill="none" d="M0 0h375v740H0z"/>
  <path fill="#fff" fill-rule="nonzero" d="M198.94655848 453.42900685l-.3007309 2.06770539-.5149305.05479524.87032499-6.05769917.65536609-.0697394 2.2242394 5.77573955-.56174236.05977663-.7341115-2.00492675-1.63841522.17434851zm1.49995903-.58569251c-.5906739-1.54677089-.92436095-2.45810123-1.06281715-2.86944523-.04380986.4780814-.20512778 1.63145445-.38835063 3.0238682l1.45116778-.15442297zM206.79607324 454.67676292l-.62765465-5.89829482.70217795-.07472079c2.34072484 4.20105973 2.6295794 4.6910833 2.75309145 4.96199171-.13647681-.83763216-.23112315-1.72705756-.33075087-2.66329484l-.26899485-2.52784063.5149305-.05479525.63263603 5.94510668-.65536609.0697394c-2.50606736-4.42017489-2.74811006-4.91517984-2.86664072-5.13927639.12651404.74400843.23112315 1.72705757.34569503 2.80373043l.26899485 2.52784063-.46811863.04981387zM214.86655088 450.88275926l-2.10653386.22416237.26401347 2.48102877 2.24696945-.23910653.04981386.46811864-2.76189995.29390178-.63263604-5.94510668 2.76189995-.29390178.04981386.46811864-2.24696945.23910653.22416238 2.10653386 2.10653386-.22416237.04483247.42130677zM218.26497982 453.45632332l-1.8447631-5.76877878.56174236-.05977663c.72216933 2.33759118 1.37261986 4.44610443 1.54096438 5.13831961.01890294-.71214072.3923094-3.87644451.56556948-5.36248199l.5149305-.05479524c.43031277 1.37446759 1.51803684 4.47797214 1.62960672 5.08154498.03582648-.9979933.3923094-3.87644452.523739-5.31068874l.56174237-.05977664-.724908 6.08956688-.56174237.05977663c-.43031277-1.3744676-1.40448757-4.30068746-1.62462534-5.03473311-.04578925.90436956-.3923094 3.87644451-.52872039 5.26387687l-.60855422.06475802-.00498139-.04681186zM229.18971617 451.63421624l-2.9557231-5.2974566.54004267-.165774c1.1545751 2.15703637 2.19507414 4.10286946 2.49229876 4.7502938-.1172104-.70268235-.3539141-3.88013458-.46713872-5.37194634l.49503912-.1519595c.68445636 1.26721969 2.34389931 4.10642951 2.56849138 4.67766125-.15509385-.9865182-.3539141-3.88013459-.49832778-5.31312829l.54004268-.165774.44933844 6.11607219-.54004267.165774c-.68445636-1.26721969-2.1986342-3.95404429-2.55467688-4.6326577.12746485.89651108.3539141 3.8801346.48451328 5.26812474l-.54004268.165774-.0138145-.04500355zM237.75633498 445.85294348c.58020903 1.89014937.46172149 3.10837973-.7983781 3.49518575-1.21509602.37299152-1.9828651-.52394527-2.57688863-2.4590982-.58020903-1.89014937-.34408537-3.04600162.8260071-3.40517864 1.21509603-.37299152 1.9552361.43393816 2.54925963 2.36909109zm-2.83522405.87031354c.52495102 1.71013515 1.19245854 2.44087222 1.957519 2.2060257.81006402-.248661.92143146-1.16924103.39648043-2.87937618-.55258002-1.80014225-1.16482954-2.3508651-1.92989-2.11601858-.76506046.2348465-.93524596 1.12423747-.42410943 2.78936906zM240.46680282 445.21790217l.82887004 2.70021338-.49503912.15195951-1.74062709-5.67044811 1.4401138-.44206402c.9450747-.29010452 1.60588782.09797865 1.88217784.99804978.26247551.85506757-.0320405 1.33942653-.395629 1.5987677.64030424.00042572.92727442.45402134 1.16212093 1.2190818l.0690725.22501778c.1519595.49503912.27629001.90007113.46299863 1.18746703l-.49503912.1519595c-.17289412-.24239233-.32485362-.73743145-.47681313-1.23247058l-.0414435-.13501066c-.24866102-.81006402-.56682025-1.20484158-1.42188782-.94236607l-.76506046.23484651-.0138145-.04500355zm-.1243305-.40503201l.85506756-.26247552c.76506046-.2348465.8969368-.76776908.68971929-1.44282242-.17958851-.58504624-.58775486-.9521948-1.30781176-.73116279l-.90007113.27629002.66309603 2.1601707zM244.10040498 440.85240287l.49503912-.1519595 1.61629658 5.2654161 2.0701636-.63546703.138145.45003556-2.56520272.78742654-1.75444158-5.71545167zM248.5107535 439.4985818l1.26009959-.38680602c1.30510314-.40062052 2.21144294.3060476 2.76402297 2.10618986.59402353 1.93515293.38552887 3.1810123-1.0995885 3.63689082l-1.1250889.34536251-1.7544416-5.71545167-.04500355.0138145zm2.1113357 5.1134566l.58504624-.1795885c1.17009247-.35917703 1.2538309-1.36976416.74269438-3.03489575-.48350752-1.57512447-1.1545751-2.15703637-2.23466045-1.82548835l-.58504623.1795885 1.49196607 4.8603841zM255.09481585 443.14058122l.49503912-.1519595.15195951.49503911-.49503912.15195951z"/>
  <g>
    <clipPath id="a">
      <path d="M0 0h375v740H0z"/>
    </clipPath>
    <g clip-path="url(#a)">
      <path fill="none" stroke="#414042" d="M-197.488 40.206c42.389 198.467 320.031 146.244 436.367 335.995m776.341 180.731c-481.857-421.977-604.112-95.78-844.32-91.609m561.639 279.544C292.011 182.719 468.517 474.033 209.33 501.679m828.83-49.109l-3.24-2.518c-105.848-84.657-254.161-171.473-419.372-184.087-165.21-12.614-320.276 71.095-474.373 170.027M42.673 777.393c-136.333 5.919-73.304-181.625-276.352-268.527m408.024 284.095c-84.763.698 54.57-215.044-233.831-309.249m180.31 293.681C14.956 788.907 59.94 472.215-207.669 475.555m181.368-330.532c246.158 24.631 209.274 176.506 393.438 167.009M80.148-36.164c270.924 15.271 291.613 273.222 406.675 201.063M247.73 535.952c128.073-57.747 81.748 38.935 216.179 11.265m-151.961 43.201c53.677-9.742 130.715-12.996 226.554 4.103m-567.843-194.21c-4.368 93.52 360.207 283.036 314.343 364.249m81.172 24.154c31.21-101.243-349.34-490.121-510.67-451.136m-72.654-223.315c165.141 48.172 365.939 429.438 782.793 642.173"/>
    </g>
  </g>
</svg>
