<svg viewBox="0 0 1440 950" xmlns="http://www.w3.org/2000/svg" fill-rule="evenodd" clip-rule="evenodd" stroke-miterlimit="10"><g><path fill="none" d="M0 0h1440v950H0z"/><clipPath id="a"><path d="M0 0h1440v950H0z"/></clipPath><g opacity=".37" clip-path="url(#a)"><clipPath id="b"><path clip-rule="nonzero" d="M.092 0h1439.91v948.078H.092z"/></clipPath><g clip-path="url(#b)"><path id="l1" d="M1986.28-171.67C1635.5 90.671 1213.032 88.065 1052.851 59.686 892.67 31.308 704.98-68.25 682.28-10.23c-22.7 58.018 378.808 8.79 261.47 324.165-81.41 218.818-35.37 452.9-35.37 452.9 82.002 279.57 194.123 247.963 194.123 247.963l59.059-19.282s201.802-85.024 413.695-299.439c211.891-214.414 428.257-199.817 428.257-199.817l-17.234-667.93zM307.69 995.519S139.311 784.998-161.5 788.783c-300.811 3.784-385.947 206.736-385.947 206.736H307.69z" fill="none" stroke="#fff"/><path id="l2" d="M-245.837 995.52s61.634-78.087 167.58-81.871c105.946-3.784 219.46 81.871 219.46 81.871h-387.04zM338.333-218.2236c-1.997-3.129-6.123-4.032-9.826-4.28-19.273-1.29-37.69 7.568-54.392 17.272-34.997 20.336-67.041 45.306-100.519 68.057C63.687-62.4816-63.53-11.4866-195.793 1.3714c-3.639.353-7.313.648-10.95.401l63.42 54.847c181.068-29.129 344.556-131.039 475.97-259.164 4.329-4.22 8.938-10.582 5.686-15.679z" fill="none" stroke="#fff"/><path id="l3" d="M-195.793 1.371c132.264-12.857 259.48-63.853 369.39-138.546 33.477-22.751 65.522-47.721 100.519-68.056 16.701-9.705 35.119-18.563 54.392-17.273 3.703.248 7.829 1.151 9.825 4.28 3.252 5.097-1.357 11.459-5.686 15.679C201.234-74.42 37.746 27.49-143.322 56.619l51.648 44.666c1.311-.303 2.612-.686 3.885-1.097C36.924 60.042 149.486-12.067 249.35-96.873c41.273-35.05 81.077-72.915 109.832-118.797 5.123-8.174 9.759-19.249 3.736-26.784-4.116-5.15-11.534-6.101-18.121-5.837-22.986.919-44.343 11.608-64.433 22.816-83.107 46.362-159.293 105.709-247.08 142.449C-9.912-64.949-55.288-52.661-101.13-43.442c-23.35 4.697-46.85 8.603-70.404 12.12-12.107 1.808-24.229 3.507-36.358 5.158-7.624 1.038-19.277.784-27.35 3.29l28.499 24.646c3.638.247 7.311-.047 10.95-.401zM1161.57 995.52s201.802-85.024 413.694-299.439c211.892-214.415 428.258-199.818 428.258-199.818v206.643s-261.771 26.985-549.339 210.621c0 0-131.172 81.993-169.009 81.993H1161.57zM1119.121 178.908c-69.576 15.221-6.903 166.628 156.414 269.287 150.15 94.385 96.567 146.086 160.93 165.813 64.361 19.728 138.995-46.179 205.233-84.45s273.784-153.21 400.372-131.067c126.59 22.142-45.326-240.924-45.326-240.924s-273.966 156-535.3 101.71c-261.333-54.29-242.418-102.224-342.323-80.369zM69.6035 240.389c179.128 130.104 382.823 148.021 431.819 139.723 60.805-10.298 172.454-8.596 108.896-93.051-58.772-78.095-165.149-57.825-321.094-105.483-146.442-44.753-297.934-8.548-297.95-8.556l49.658 42.944c9.647 8.335 19.184 16.433 28.671 24.423z" fill="none" stroke="#fff"/><path id="l4" d="M627.52668086 317.81230085c-42.16889826-69.25852901-174.37972913 39.0993233-274.90632023 7.60757325-85.97823058-26.93466799-182.88759591-24.76441716-188.6349031-27.22057082C319.72016502 378.52153512 479.8221502 434.8008962 515.96769246 438.32003696c53.3063296 5.18807746 133.07862817-58.4215325 111.5589884-120.5077361z" fill="none" stroke="#fff"/><path id="l5" d="M852.2 508.602c7.346-61.471-93.088-208.127-151.43-292.613l-.03-.024c29.807 119.618 99.942 241.125-40.931 279.147-153.905 41.54-452.167-146.566-454.408-147.71 358.184 261.733 628.621 313.316 646.799 161.2z" fill="none" stroke="#fff"/><path id="l6" d="M1984.04-189.231c.724-.47 1.273-.83 1.648-1.077-.373.246-.926.608-1.648 1.077zm1.744-1.14c.132-.088.247-.163.325-.215-.079.052-.187.125-.325.215zM1094.722 7.431C623.64-75.812 570.67-221.488 506.34-153.38c-61.2 52.637 87.48 214.493 194.43 369.37l-.03-.024c29.81 119.617 99.44 241-41.44 279.022-152.62 41.193-447.31-144.234-453.74-147.506-51.94-37.941-106.85-81.602-164.62-131.516L-296.45-75.812s148.2 15.135 309.01-28.379 351.89-217.568 514.59-217.568c27 0 57.52 6.307 90.1 16.207.2.063.41.127.62.189l70.49 25.797c-41.69-14.561-86-25.612-91.84-9.4-11.35 31.532 139.82 148.509 235.86 186.667 6.6 2.623 13.37 5.255 20.27 7.886 3.68 1.403 37.4 13.763 44.58 16.262 1.5.522 44.24 14.691 44.48 14.769 9.09 2.874 18.35 5.71 27.76 8.5.09.028 34.209 9.728 36.684 10.399.822.222 22.151 5.866 32.205 8.361.144.036.286.074.431.109 135.939 33.707 296.683 54.186 463.19 34.977.129-.014.257-.027.385-.042 4.165-.482 8.333-.989 12.505-1.521 257.605-53.05 446.412-171.878 469.116-186.598-33.802 21.922-438.343 276.309-889.264 196.628zM813.514 785.471c-47.037-57.1-139.899-42.42-210.678-63.96-180.165-54.83-310.583-212.125-467.954-315.567C-83.192 262.601-296.096 119.145-494.846-49.97c-198.76-169.115-415.99-326.3-666.6-399.084-103.59-30.083-211.3-44.829-319.09-46.075-178.15-2.057-355.79 32.177-523.45 91.377-179.46 63.368-496.8 267.268-496.8 267.268l32.51 16.397c850.17-455.447 1412.54-122.212 1412.54-122.212 240.33 126.413 923.096 653.255 1167.782 789.916 282.522 163.964 525.868 259.284 656.005 307.384 51.31 18.96 33.562 88.96 22.925 110.1.066 4.11-2.064 9.27-7.127 16.04 71.184-20.16 76.702-138.56 29.665-195.67z" fill="none" stroke="#fff"/><path id="l7" d="M-470.781 643.792c-.111.036-.223.074-.334.111l.004-.043c.107-.022.223-.046.33-.068zm84.355 73.31s6.727-60.561-43.724-76.107c-4.197-1.294-8.726-1.877-13.464-1.939 36.052-4.698 92.6-5.33 181.633 19.186 96.922 26.689 172.406 109.81 194.649 136.475 60.717 8.531 114.583 25.47 161.239 46.037l-.001-.023S44.716 665.81-85.824 597.702c-85.136-85.136-147.627-178.599-376.488-191.082-196.547-10.721-231.545 141.101-191.815 156.235 0 0-91.339 53.766-91.339 157.61 0 101.417 105.081 163.603 198.019 153.874 152.613-15.976 161.021-157.237 161.021-157.237z" fill="none" stroke="#fff"/><path id="l8" d="M449.146 837.413c-125.582-29.825-319.605-60.254-395.716-91.847 28.298 51.883 40.475 95.166 40.475 95.166l.002.022C232.865 902.01 307.689 995.52 307.689 995.52h-58.796l48.577 33.793 406.155-36.923C687.342 980.005 579.5 868.372 449.146 837.413zM1575.26 696.08c211.892-214.414 428.258-199.817 428.258-199.817v206.642s-261.772 26.986-549.339 210.621c0 0-131.172 81.993-169.01 81.993h-123.603M864.92-206.983c-51.759-20.827-106.989-44.636-154.999-64.693 0 0-21.559-7.889-21.562-7.89-19.128-6.999-39.235-13.237-59.421-16.249-10.486-1.564-28.294-6.378-32.624 7.47-4.158 13.299 10.819 27.43 18.607 36.304 17.255 19.663 37.506 36.786 58.006 52.941 24.89 19.615 50.972 37.768 77.941 54.408 25.057 15.461 51.013 29.907 78.29 41.094 1.07.438 2.142.872 3.217 1.299 6.601 2.623 13.37 5.254 20.271 7.886 3.675 1.403 37.4 13.763 44.579 16.262 1.498.522 44.238 14.691 44.483 14.769 9.091 2.874 18.347 5.709 27.756 8.5.095.028 34.21 9.728 36.686 10.399.822.222 22.151 5.866 32.205 8.361.144.036.286.074.431.109 135.939 33.707 296.682 54.186 463.19 34.977.129-.014.257-.027.385-.042 4.165-.482 8.333-.989 12.505-1.521 274.871-56.606 471.414-188.105 471.414-188.105l35.52 11.123s-35.5-531.776-35.52-531.908c-1.08-6.412-6.06-13.651-9.13-19.187-8.75-15.723-19.56-30.31-31.9-43.392-17.55-18.611-38.32-34.092-61.14-45.65-29.53-14.956-65.461-26.501-98.829-24.371-25.961 1.657-62.001 9.754-71.659 37.702-8.594 24.868.394 56.233 24.434 68.536 6.286 3.218 13.591 5.551 20.717 5.551 50.181-1.824 37.865-56.634 37.838-56.757 1.05 4.66-4.431 14.105-6.915 17.909-3.472 5.314-8.562 9.977-15.144 10.578-13.961 1.277-22.713-14.548-14.307-25.754 10.09-13.454 74.835-10.091 122.765 50.45 47.93 60.54 61.17 321.412-230.183 434.926-291.352 113.514-370.2 11.551-370.812 0-.611-11.551 37.502-17.36 15.135-43.514-49.39-57.752-159.556-36.643-223.243 11.352-94.635 83.94 17.027 138.108-28.379 174.054-17.002 13.46-93.938-13.053-180.608-47.927" fill="none" stroke="#fff"/></g></g></g></svg>
