<svg xmlns="http://www.w3.org/2000/svg" fill-rule="evenodd" stroke-miterlimit="10" clip-rule="evenodd" viewBox="0 0 375 740">
  <path fill="none" d="M0 0h375v740H0z"/>
  <path fill="#fff" fill-rule="nonzero" d="M38.49415632 470.64239299l-1.61021285 1.3317312-.41882303-.30460361 4.70829055-3.90977715.53215026.38753096-2.22237702 5.77635611-.45689415-.3320916.79959142-1.97989572-1.33172518-.9692502zm1.50521054.57159345c.59861807-1.54416784.96203028-2.44399775 1.13551565-2.8416545-.35325789.3257759-1.24590847 1.07240057-2.31584246 1.98281964l1.18032681.85883486zm3.4812286 5.61735406l3.48854307-4.79652278.57157092.41544175c-1.08056217 4.68616452-1.19523292 5.24377704-1.28490477 5.52764318.45983458-.7132723.98657783-1.43670496 1.54080907-2.19820875l1.49510728-2.05469447.41835965.30371745-3.51691722 4.83505729-.53261363-.38841713c1.10467491-4.95944753 1.256994-5.48822252 1.31917786-5.73401753-.40532198.63624388-.98615505 1.43535543-1.62373643 2.31153599l-1.4946439 2.05558062-.3807519-.27711562zm8.5308564 2.59774442l-1.71294044-1.24725198-1.46804208 2.01797287 1.82715384 1.32971595-.27711562.3807519-2.24597687-1.63431957 3.5173806-4.83417112 2.2455135 1.6334334-.2757661.3811747-1.82804-1.32925259-1.2463658 1.71247707 1.7138266 1.2467886-.24962763.34268077zm.79526845 4.1882753l2.49992145-5.51749488.45689415.3320916c-1.0323142 2.21894623-1.96348724 4.21912207-2.30278672 4.84566897.49204738-.51570877 2.89035382-2.61274181 4.01572717-3.59841698l.41882303.3046036c-.6024567 1.3080698-1.87676184 4.33965717-2.1982703 4.86211045.69504645-.71664757 2.8903538-2.61274182 3.94970466-3.58872001l.456008.33255498-4.62110178 4.03119841-.45689416-.3320916c.6024567-1.3080698 1.84206597-4.13193328 2.17166848-4.82450269-.64142002.64008252-2.89035381 2.61274182-3.92221668 3.55064888l-.49542866-.36046576.02795136-.03718496zm8.4136455 6.12002361l2.46096414-5.5445195.45689416.3320916c-1.03142804 2.21848286-1.96348724 4.21912206-2.30190056 4.8452056.49116122-.5152454 2.89035381-2.61274182 4.014841-3.59795362l.41882303.30460362c-.6024567 1.3080698-1.87676184 4.33965716-2.1982703 4.86211044.69504646-.71664757 2.8903538-2.61274182 3.94970467-3.58872001l.45689415.3320916-4.62198793 4.03166179-.456008-.33255498c.6024567-1.3080698 1.84206597-4.13193328 2.17078231-4.82403931-.64053385.63961914-2.89035381 2.61274181-3.92221668 3.55064888l-.45689415-.3320916.02837415-.0385345zm9.76569582 3.37955085c-1.1625523 1.59868647-2.20837357 2.23582254-3.27402362 1.46033782-1.02757892-.74799672-.7716356-1.90082952.41975423-3.53716433 1.16343847-1.59914984 2.22865369-2.10424092 3.21904764-1.38419556 1.02757891.74799672.8261482 1.8238011-.36477825 3.46102207zm-2.39737523-1.7447349c-1.05260033 1.44640194-1.23666282 2.41946222-.58894963 2.88987995.68489815.4983691 1.4874135.03472441 2.54001384-1.41167753 1.10846248-1.52300758 1.18080067-2.3428566.53397365-2.8137377-.64682703-.4708811-1.46127506-.07321833-2.48503786 1.33553527zm4.53293675 3.53045283l-1.66134418 2.28493415-.41882303-.3046036 3.48942923-4.79698616 1.21839795.88632284c.79957492.58171924.88584297 1.34233084.33161173 2.10383463-.52627988.72431882-1.09021412.77883746-1.51624502.6438866.38412716.51232749.19420031 1.01450065-.27668079 1.66132768l-.1387895.18993286c-.3046036.41882303-.55376786.76238996-.67139108 1.08344107l-.41882303-.30460361c.08967186-.28386615.39427547-.70268917.69934246-1.12062604l.08335013-.11467676c.4983691-.68489816.62273682-1.17648818-.10069584-1.70323143l-.64682702-.4708811.02748799-.03807113zm.24962763-.34268077l.72343266.52674325c.64682702.4708811 1.15194664.2564067 1.56738838-.31516423.36004297-.49407912.4091546-1.0411085-.20048746-1.48403824l-.7615038-.55423124-1.32882978 1.82669046zm5.42312075.62750064l.41882302.30460361-3.2398016 4.45430539 1.7505482 1.2738538-.27711561.3807519-2.16937123-1.57845742 3.51691722-4.83505728zm3.73044994 2.71440789l1.06653621.77502134c1.10372118.8029727 1.08298973 1.95243024-.02547275 3.47543782-1.19004029 1.6367576-2.3124672 2.21803152-3.5680501 1.30375731l-.95185945-.6916712 3.51691722-4.83505728-.03807113-.027488zm-2.82097858 4.758909l.4949653.3595796c.98950778.72050872 1.84788528.1802584 2.87299762-1.2280724.96878682-1.33261135 1.03142803-2.21848286.11763972-2.88266607l-.4945425-.36092913-2.99106014 4.112088zm3.86156819 2.69324161l.41882303.30460361-.30460362.41882303-.41882302-.30460361.30460361-.41882303z"/>
  <clipPath id="a">
    <path d="M0 0h375v740H0z"/>
  </clipPath>
  <g clip-path="url(#a)">
    <path fill="none" stroke="#414042" d="M-197.488 40.206c107.613 124.996 297.658 161.24 436.367 335.995m829.041 187.014C586.055 141.238 382.472 369.346 170.9 465.323m1099.17 338.78C719.377 258.779 457.74 373.114 209.33 501.679m828.83-49.109l-3.24-2.518c-105.848-84.657-254.161-171.473-419.372-184.087-165.21-12.614-320.276 71.095-474.373 170.027M42.673 777.393c-53.463-25.186-73.304-181.625-276.352-268.527m485.566 293.837c-47.293-33.392-214.882-317.765-503.283-411.97m372.22 386.66C84.246 745.411-11.862 533.488-207.669 475.555m33.875-568.977c7.027 86.65 265.676 327.937 540.931 405.454M124.698-120.887C209.5 83.1 486.647 164.842 486.823 164.899M247.73 535.952c46.544-21.303 138.538-64.637 269.783-57.066M311.948 590.418c53.677-9.742 130.715-12.996 226.554 4.103m-861.687-266.558C-35.9 314.036 273.074 758.921 382.169 777.812m129.432.122C339.894 755.325-74.541 262.949-323.185 218.596m106.035-104.333c165.141 48.172 365.939 429.438 782.793 642.173"/>
  </g>
</svg>
