<svg xmlns="http://www.w3.org/2000/svg" fill-rule="evenodd" stroke-miterlimit="10" clip-rule="evenodd" viewBox="0 0 1440 950">
  <path fill="none" d="M0 0h1440v950H0z"/>
  <path fill="#fff" fill-rule="nonzero" d="M510.12466547 712.41290929l.04444399 2.83613229-.67822988.18487006-.1445701-8.30661873.86320165-.23528916 4.23075572 7.25905564-.73988713.20167643-1.4177101-2.52804944-2.15800415.5882229zm1.8834323-1.10952553c-1.12633189-1.94508956-1.77074557-3.09420294-2.04531741-3.61550556.04474916.65018536.07815845 2.23079784.13394231 4.136503l1.9113751-.52099744zM519.93576964 712.48009593l-2.10094542-7.77333362.92539686-.25011255c4.03509693 5.13218685 4.52697842 5.72744037 4.75040969 6.06425077-.36182818-1.09380206-.67863741-2.26597142-1.01212081-3.4998339l-.90040518-3.33142869.67862436-.18341587 2.11761959 7.83502674-.86370374.23343838c-4.30354715-5.39062996-4.73373552-6.00255764-4.94049261-6.27767492.32847984.97041581.6786374 2.26597141 1.06214332 3.68491326l.90040518 3.3314287-.61693124.1667417zM530.405122 705.27731255l-2.76884232.77701394.91514975 3.26108094 2.9534318-.82881486.17266976.61529829-3.63025992 1.0187516-2.192906-7.8142883 3.63025993-1.0187516.17266976.6152983-2.9534318.82881485.77701393 2.76884231 2.76884232-.77701393.15540278.55376846zM535.92905792 707.78646402l-4.42114834-6.9320227.71656698-.27319873c1.7582337 2.81774406 3.3429207 5.3596851 3.80384693 6.2098607-.22207057-.94124184-.82895481-5.22385862-1.11672077-7.2343559l.65685307-.25043216c1.04128029 1.65481809 3.544829 5.35109934 3.9005082 6.10461367-.29895602-1.3222919-.82895481-5.22385862-1.15366812-7.15187543l.71656698-.27319872 1.15964958 8.24389743-.71656697.27319872c-1.0412803-1.65481809-3.33433494-5.1577768-3.87774164-6.04489976.2534229 1.20286407.8289548 5.22385863 1.13090155 7.09216152l-.77628089.29596528-.02276656-.05971392zM549.10845177 702.7019626l-4.51860595-6.8846372.71506172-.27711591c1.77362739 2.80808236 3.37220134 5.34131533 3.83777319 6.18895648-.22721794-.94001312-.85752832-5.21924745-1.15629176-7.22814116l.65547323-.25402292c1.05032064 1.64909633 3.57405977 5.33162483 3.93385715 6.08318203-.30618742-1.32063698-.85752831-5.21924745-1.19278724-7.1454597l.71506171-.2771159 1.20474428 8.23743326-.71506172.27711591c-1.05032064-1.64909633-3.36251084-5.1394569-3.91076416-6.02359355.26000144 1.20146003.85752832 5.21924745 1.16969426 7.08587122l-.71506172.27711591-.023093-.05958847zM559.77723608 693.2149144c1.1695179 2.41589084 1.26260174 4.07485654-.34799215 4.85453514-1.55307268.75183294-2.76873506-.29269826-3.96609863-2.7661103-1.1695179-2.41589084-1.091868-4.01550544.40368348-4.73949272 1.55307268-.75183293 2.71304373.17765584 3.9104073 2.65106789zm-3.62383625 1.75427686c1.05813524 2.185806 2.10489376 3.02809801 3.08275433 2.55472172 1.0353818-.50122196.99432952-1.75936906-.06380573-3.94517505-1.11382657-2.30084842-2.04920243-2.9130556-3.027063-2.4396793-.97786059.4733763-1.02217518 1.70184785.0081144 3.83013263zM563.28237015 691.80210505l1.67073986 3.45127262-.63273331.30630231-3.50855371-7.2476725 1.84067873-.89106127c1.20794542-.58475895 2.1748267-.20080673 2.73174.94961748.52906762 1.092903.23414204 1.80368366-.20001186 2.22685827.85915839-.1319088 1.33802433.41728752 1.81140062 1.3951481l.13922832.28760605c.30630231.63273332.5569133 1.15042421.86687536 1.49738135l-.63273331.30630231c-.2821164-.28943593-.58841872-.92216925-.89472102-1.55490256l-.083537-.17256363c-.50122196-1.03538179-1.00976344-1.49921123-2.10266644-.97014361l-.97786057.4733763-.02784567-.05752122zm-.25061098-.5176909l1.092903-.52906761c.97786058-.4733763 1.0445312-1.21566239.62684623-2.07848054-.36199364-.74777574-.98557754-1.15591386-1.90591691-.71038323l-1.1504242.55691329 1.33659188 2.7610181zM567.25419855 685.19329307l.63273332-.30630231 3.25794273 6.72998161 2.64597567-1.28090056.27845665.5752121-3.278709 1.58720288-3.53639937-7.30519372zM572.89127717 682.46441796l1.6105939-.7796786c1.6681151-.80752427 3.03032532-.04693936 4.1441519 2.25390905 1.19736357 2.47341205 1.17540499 4.18806907-.72279496 5.106976l-1.43803026.6961416-3.53639937-7.30519371-.05752121.02784566zm3.89067604 6.4236793l.74777574-.36199363c1.49555147-.72398727 1.39880786-2.0971768.36851828-4.22546158-.97459825-2.01324236-1.99534098-2.65512509-3.37585003-1.98682914l-.74777574.36199364 3.00733175 6.21229072zM582.47838292 685.98848841l.63273332-.3063023.3063023.6327333-.6327333.30630231z"/>
  <g>
    <clipPath id="a">
      <path d="M0 0h1440v950H0z"/>
    </clipPath>
    <g clip-path="url(#a)">
      <path fill="none" stroke="#414042" d="M1157.25 966.366c-3.59-260.706-165.317-246.582-202.632-232.85l-.003-.007s-7.197 2.947-12.082 7.222c-11.187 9.789-11.653 27.426-1.773 38.584 7.904 8.926 21.354 9.578 30.042 1.457 6.649-6.215 7.402-16.603 1.918-23.744l-.337-.343c9.84 9.93 15.918 23.594 15.918 38.678 0 30.353-27.948 55.023-58.297 55.023-27.82 0-51.903-16.54-62.935-40.19-4.146-8.891-6.461-18.806-6.461-29.262 0-26.315 14.665-49.204 36.27-60.94m-15.149-81.489c-11.425 2.365-22.744 6.837-33.345 13.525-43.675 27.556-58.63 82.307-33.403 122.291 12.078 19.143 30.759 31.435 52.18 36.025m325.759 144.83s26.3-149.85-72.91-245.738c-39.85-80.391-115.5-105.419-134.268-111.607-18.769-6.189-144.755-36.097-184.831 57.937-15.119 31.653 4.869 52.985 4.869 52.985m295.04 255.483c24.77-48 28.8-120.09 27.62-148.05m-259.776 146.34c70.786-9.47 133.816-29.36 160.866-68.06 59.95-85.75 31.29-138.816 14.46-158.995m-56.457 247.545c119.637-87.22 111.707-181.995 101.927-220.555M-49.38-53.169c-51.857 232.535 669.792 433.752 510.674 576.291M1502.62 935.356C1275.9 263.366 847.401 439.32 361.67 616.951m1255.04 435.669C806.191 554.744 1318.76 347.157 383.75 638.505m1060.23-21.49l-3.98-3.096C1309.85 509.838 1127.51 403.1 924.393 387.593 721.274 372.084 530.627 475 341.172 596.633M220.068 1016.37c8.986-110.554-251.158-90.304-339.758-330.142m596.978 361.262c-200.84-20.44-163.724-362.372-518.298-478.192m357.161 447.072C337.453 907.496 31.17 887.446-87.72 645.273m941.669-537.231c-17.897-16.116-28.13-39.229-25.77-63.821 5.156-53.748 60.123-87.216 114.628-87.216 109.683 0 238.953 165.942-108.377 300.065-22.455 8.679-80.545 38.734-106.402 66.01m366.012 98.392c38.43-20.496 88.94-76.59 63.46-90.037-50.42-26.612-192.146 60.533-192.146 60.533m-76.001-267.151c-31.852-3.055-55.195-31.353-52.139-63.205 3.819-39.814 42.39-72.524 79.006-65.174 36.615 7.351 109.81 94.141-75.858 222.704 0 0-113.144 70.97-115.463 116.772-4.902 96.844 220.889-84.317 305.181-136.35 71.7-44.264 186.28-81.929 264.03-60.073 158.99 44.691 76.27 226.705-.68 300.768 0 0-31.93 29.018-50.09 44.173m168.16-42.178c-48.81 60.138-40.09 120.472-40.09 120.472M367.457-175.169c28.238 79.25 91.28 147.308 95.22 140.084 3.94-7.224-21.146 11.824 98.083 16.933 89.028 3.815 331.816 196.481 331.816 196.481M175.996-55.649c164.828 43.471 193.02 340.244 528.005 346.67m149.217-81.012S542.504-27.106 306.792-30.008M47.63-86.689c339.827 69.561 718.284 349.954 718.501 350.025m363.259 170.303c189.78-82.926 171.66-191.804 114.25-214.259-174.95-68.428-394.226 148.192-416.865 169.558M472.176 719.529c77.807 36.012 204.877-137.221 331.687-70.16M1157.25 757.37c88.32 45.403 184.98 107.936 290.19 192.626M551.129 786.493c65.995-11.978 160.71-15.978 278.539 5.045m146.166 37.148c22.798 7.38 52.936 16.77 76.656 26.06m143.08 66.05c59.01 31.46 119.85 69.2 181.82 114.264M-99.05 407.698C76.28 586.95 416.203 969.016 657.717 981.626m-77.309 25.534C528.876 798.787-3.57 474.851-46.46 269.665m-52.91-68.584c203.03 59.226 449.904 527.976 962.406 789.525M1337.8 486.163c-7.34 19.158-9.94 32.6-11.23 46.483M1403 411.555c18.96-16.495 28.49-34.893 23.23-48.76-5.33-14.083-36.54-24.655-61.97-26.02m-76.03 172.49s141.93-57.935 174.49-119.147c29.02-54.556-8.9-115.876-77.9-136.677 23.85 8.572 87.12 38.208 81.16 85.883-10.94 87.54-171.99 100.889-172.55 100.935m-712.253 20.489c-4.623-50.057 52.91-142.358 135.938-175.553 36.464-14.577 75.71-33.751 110.698-57.666"/>
    </g>
  </g>
</svg>
