<svg xmlns="http://www.w3.org/2000/svg" fill-rule="evenodd" stroke-miterlimit="10" clip-rule="evenodd" viewBox="0 0 1440 950">
  <path fill="none" d="M0 0h1440v950H0z"/>
  <path fill="#fff" fill-rule="nonzero" d="M499.88405167 695.3164277l.2826361 2.8223627-.6602937.2412146-.8421492-8.2650794.8403738-.3070004 4.82584 6.8778185-.7203204.2631432-1.6251521-2.3999602-2.1009345.767501zm1.7835237-1.2638841c-1.2858127-1.8435504-2.0245182-2.9344414-2.341929-3.4308245.0992326.6441242.2653588 2.2163366.4811013 4.1106111l1.8608277-.6797866zM510.63326217 694.3832407l-2.7630036-7.5633642.9004005-.328929c4.4623564 4.7653658 5.0037045 5.3160165 5.2553295 5.6323195-.4547415-1.058552-.8713849-2.1990593-1.3099569-3.3995933l-1.1841444-3.2414418.6602937-.2412146 2.7849322 7.6233909-.8403738.3070004c-4.7520795-4.9997135-5.2334009-5.5722928-5.4630973-5.8285691.4108843.9384986.8713849 2.1990593 1.3757427 3.5796734l1.1841444 3.2414418-.600267.219286zM520.01846827 686.7363659l-2.7012015.986787 1.1622158 3.1814151 2.8812816-1.0525728.219286.600267-3.5415753 1.2937874-2.7849322-7.6233909 3.5415753-1.2937874.219286.600267-2.8812816 1.0525728.986787 2.7012015 2.7012015-.986787.1973574.5402403zM525.33980367 689.0107337l-4.3236978-6.9932206.7203204-.2631432c1.7186256 2.8420757 3.2675815 5.4059465 3.7165639 6.2624898-.2088756-.9442577-.7557627-5.2349489-1.0153624-7.2492768l.6602937-.2412146c1.0180182 1.6692294 3.4695902 5.4001874 3.8146887 6.1586059-.2804205-1.3263465-.7557627-5.2349489-1.0534605-7.1673215l.7203204-.2631432 1.0441579 8.2593203-.7203204.2631432c-1.0180182-1.6692294-3.2618224-5.2039378-3.7927601-6.0985792.2365633 1.2062931.7557627 5.2349489 1.0315319 7.1072948l-.7803471.2850718-.0219286-.0600267zM538.60570437 684.1645131l-4.3837245-6.971292.7203204-.2631432c1.7186256 2.8420757 3.2675815 5.4059465 3.7165639 6.2624898-.2088756-.9442577-.7557627-5.2349489-1.0153624-7.2492768l.6602937-.2412146c1.0180182 1.6692294 3.4695902 5.4001874 3.8146887 6.1586059-.2804205-1.3263465-.7557627-5.2349489-1.0534605-7.1673215l.7203204-.2631432 1.0441579 8.2593203-.7203204.2631432c-1.0180182-1.6692294-3.2618224-5.2039378-3.7927601-6.0985792.2365633 1.2062931.7557627 5.2349489 1.0315319 7.1072948l-.7203204.2631432-.0219286-.0600267zM549.80788097 675.7177983c.9210012 2.5211214.8470206 4.1810482-.833727 4.795049-1.6207209.5920722-2.7253457-.5692559-3.6682755-3.150404-.9210012-2.5211214-.68311-4.104852.8775842-4.6749956 1.6207209-.5920722 2.6814885.4492025 3.6244183 3.0303506zm-3.7816821 1.3815018c.8332868 2.2810146 1.7901705 3.2241645 2.8106244 2.8513783 1.0804806-.3947148 1.1659794-1.6506242.3326926-3.9316388-.877144-2.401068-1.7463133-3.1041111-2.7667672-2.7313249-1.0204539.3727862-1.187908 1.5905975-.3765498 3.8115854zM553.43717067 674.6641177l1.315716 3.601602-.6602937.2412146-2.7630036-7.5633642 1.9208544-.7017152c1.2605607-.4605006 2.1839976.0186052 2.6225696 1.2191392.4166434 1.1405073.0518319 1.8180783-.4226226 2.1955158.8680615-.044965 1.2893562.5495429 1.6621424 1.5699968l.109643.3001335c.2412146.6602937.438572 1.200534.7121256 1.5768637l-.6602937.2412146c-.251625-.316303-.4928396-.9765967-.7340542-1.6368904l-.0657858-.1800801c-.3947148-1.0804806-.8541076-1.5930332-1.9946149-1.1763898l-1.0204539.3727862-.0219286-.0600267zm-.1973574-.5402403l1.1405073-.4166434c1.0204539-.3727862 1.1613281-1.1046248.8323991-2.0050253-.2850718-.7803471-.864518-1.2490425-1.8249452-.8981849l-1.200534.438572 1.0525728 2.8812816zM558.05257977 668.4875669l.6602937-.2412146 2.5656462 7.0231239 2.7612282-1.0087156.219286.600267-3.4215219 1.2499302-2.7849322-7.6233909zM563.93519637 666.3385641l1.6807476-.6140008c1.7407743-.6359294 3.0197201.2576042 3.8968641 2.6586722.9429298 2.5811481.7488958 4.2849321-1.2319853 5.0085759l-1.5006675.548215-2.7849322-7.6233909-.0600267.0219286zm3.2259399 6.7819093l.7803471-.2850718c1.5606942-.5701436 1.6023358-1.9461064.7909776-4.1670943-.767501-2.1009345-1.7186256-2.8420757-3.1592664-2.3157893l-.7803471.2850718 2.3682888 6.4828836zM573.11994907 670.80756l.6602937-.2412146.2412146.6602937-.6602937.2412146z"/>
  <g>
    <clipPath id="a">
      <path d="M0 0h1440v950H0z"/>
    </clipPath>
    <g clip-path="url(#a)">
      <path fill="none" stroke="#414042" d="M1157.25 966.366c-3.59-260.706-165.317-246.582-202.632-232.85l-.003-.007s-7.197 2.947-12.082 7.222c-11.187 9.789-11.653 27.426-1.773 38.584 7.904 8.926 21.354 9.578 30.042 1.457 6.649-6.215 7.402-16.603 1.918-23.744l-.337-.343c9.84 9.93 15.918 23.594 15.918 38.678 0 30.353-27.948 55.023-58.297 55.023-27.82 0-51.903-16.54-62.935-40.19-4.146-8.891-6.461-18.806-6.461-29.262 0-26.315 14.665-49.204 36.27-60.94m-15.149-81.489c-11.425 2.365-22.744 6.837-33.345 13.525-43.675 27.556-58.63 82.307-33.403 122.291 12.078 19.143 30.759 31.435 52.18 36.025m325.759 144.83s26.3-149.85-72.91-245.738c-39.85-80.391-115.5-105.419-134.268-111.607-18.769-6.189-144.755-36.097-184.831 57.937-15.119 31.653 4.869 52.985 4.869 52.985m295.04 255.483c24.77-48 28.8-120.09 27.62-148.05m-259.776 146.34c70.786-9.47 133.816-29.36 160.866-68.06 59.95-85.75 31.29-138.816 14.46-158.995m-56.457 247.545c119.637-87.22 111.707-181.995 101.927-220.555M-75.2 110.032c132.31 153.676 365.959 198.237 536.494 413.09M1480.56 753.047C888.132 234.246 621.788 498.951 361.67 616.951M1729.1 1049.21C1052.05 378.758 689.158 480.44 383.75 638.505m1060.23-21.49l-3.98-3.096C1309.85 509.838 1127.51 403.1 924.393 387.593 721.274 372.084 530.627 475 341.172 596.633M220.068 1016.37C154.34 985.406 129.94 793.069-119.69 686.228m596.978 361.262C419.144 1006.44 213.1 656.809-141.48 540.989m457.631 475.381C271.18 977.046 153.02 716.5-87.72 645.273m941.669-537.231c-17.897-16.116-28.13-39.229-25.77-63.821 5.156-53.748 60.123-87.216 114.628-87.216 109.683 0 238.953 165.942-108.377 300.065-22.455 8.679-80.545 38.734-106.402 66.01m366.012 98.392c38.43-20.496 88.94-76.59 63.46-90.037-50.42-26.612-192.146 60.533-192.146 60.533m-76.001-267.151c-31.852-3.055-55.195-31.353-52.139-63.205 3.819-39.814 42.39-72.524 79.006-65.174 36.615 7.351 109.81 94.141-75.858 222.704 0 0-113.144 70.97-115.463 116.772-4.902 96.844 220.889-84.317 305.181-136.35 71.7-44.264 186.28-81.929 264.03-60.073 158.99 44.691 76.27 226.705-.68 300.768 0 0-31.93 29.018-50.09 44.173m168.16-42.178c-48.81 60.138-40.09 120.472-40.09 120.472M367.457-175.169c28.238 79.25 91.28 147.308 95.22 140.084 3.94-7.224-9.356-149.081 43.419-42.046 77.242 156.657 386.48 255.46 386.48 255.46M110.96-278.594c8.64 106.533 254.627 474.311 593.041 569.615m149.217-81.012S491.438 125.51 415.216-42.995m-94.302-45.03c104.261 250.792 445 351.29 445.217 351.361m363.259 170.303c189.78-82.926 171.66-191.804 114.25-214.259-174.95-68.428-394.226 148.192-416.865 169.558M472.176 719.529c57.224-26.19 170.326-79.469 331.687-70.16M1157.25 757.37c88.32 45.403 184.98 107.936 290.19 192.626M551.129 786.493c65.995-11.978 160.71-15.978 278.539 5.045m146.166 37.148c22.798 7.38 52.936 16.77 76.656 26.06m143.08 66.05c59.01 31.46 119.85 69.2 181.82 114.264M-229.74 463.816c353.21-17.123 733.077 529.84 867.204 553.074m159.13.15C585.488 989.236 75.96 383.885-229.74 329.353m130.37-128.272c203.03 59.226 449.904 527.976 962.406 789.525M1337.8 486.163c-7.34 19.158-9.94 32.6-11.23 46.483M1403 411.555c18.96-16.495 28.49-34.893 23.23-48.76-5.33-14.083-36.54-24.655-61.97-26.02m-76.03 172.49s141.93-57.935 174.49-119.147c29.02-54.556-8.9-115.876-77.9-136.677 23.85 8.572 87.12 38.208 81.16 85.883-10.94 87.54-171.99 100.889-172.55 100.935m-712.253 20.489c-4.623-50.057 52.91-142.358 135.938-175.553 36.464-14.577 75.71-33.751 110.698-57.666"/>
    </g>
  </g>
</svg>
