<svg xmlns="http://www.w3.org/2000/svg" fill-rule="evenodd" stroke-miterlimit="10" clip-rule="evenodd" viewBox="0 0 375 740">
  <g>
    <path fill="none" d="M0 0h375v740H0z"/>
    <clipPath id="a">
      <path d="M0 0h375v740H0z"/>
    </clipPath>
    <g clip-path="url(#a)">
      <path fill="none" stroke="#414042" d="M-70.145 263.2703c175.486-19.501-12.309 334.471 307.124 233.694m400.324 260.453c-217.58-400.409-377.435-206.316-553.649-126.378m406.788 203.207c63.675-261.051-203.021-258.103-406.788-203.207m733.194.043l-2.698-2.098c-88.165-70.508-211.688-142.815-349.288-153.321-137.6-10.506-266.75 59.213-395.094 141.611m334.151-230.031c-15.212 5.879-54.565 26.239-72.081 44.717m76.098-70.41s-43.342 27.187-65.509 53.866c-7.311 8.799-12.319 17.543-12.709 25.238-3.321 65.606 149.638-57.119 206.738-92.368M-12.452 19.8953c30.923 86.786 63.483 150.683 107.844 152.489 68.13 2.774 68.39 67.155 199.054 64.743 179.498-3.312 155.794-167.609 155.794-167.609m-527.787-49.623c116.519 54.606 110.951 515.434 401.992 386.401m101.895-58.237c-113.048-65.866-310.442-110.758-310.442-110.758s-53.541 27.3 3.989 77.159c27.232 23.602 46.265 80.414 77.719 94.329 34.945 15.459 148.929-12.045 149.006-12.02m-188.097 303.759c23.359-93.465 121.945-63.799 232.506-8.126m-179.02 53.49c10.448-96.876 101.686-18.827 156.834 50.88m-685.821-269.472c195.767 192.632 428.838 213.941 471.626 296.001m45.854-40.521c-203.031-48.174-132.672-238.045-517.48-346.57m88.315-86.897c137.543 40.122 304.781 357.669 651.968 534.852m-190.941-358.944c-3.132-33.911 35.843-96.439 92.089-118.925 24.702-9.875 51.289-22.864 74.99-39.065"/>
    </g>
  </g>
</svg>
