<svg xmlns="http://www.w3.org/2000/svg" fill-rule="evenodd" stroke-miterlimit="10" clip-rule="evenodd" viewBox="0 0 375 740">
  <g>
    <path fill="none" d="M0 0h375v740H0z"/>
    <clipPath id="a">
      <path d="M0 0h375v740H0z"/>
    </clipPath>
    <g clip-path="url(#a)">
      <path fill="none" stroke="#414042" d="M-215.746 298.8333c89.628 104.105 321.013 34.174 452.725 198.131m400.324 260.453c-401.331-351.453-377.435-206.316-553.649-126.378m769.423 411.268c-458.663-454.187-562.529-518.347-769.423-411.268m733.194.043l-2.698-2.098c-88.165-70.508-211.688-142.815-349.288-153.321-137.6-10.506-266.75 59.213-395.094 141.611m334.151-230.031c-15.212 5.879-54.565 26.239-72.081 44.717m76.098-70.41s-43.342 27.187-65.509 53.866c-7.311 8.799-12.319 17.543-12.709 25.238-3.321 65.606 149.638-57.119 206.738-92.368M-12.452 19.8953c30.923 86.786 99.959 161.314 104.275 153.404 4.314-7.911-33.972-128.747 77.47-60.486 142.306 87.167 274.015 221.088 274.015 221.088M-77.547 19.8953c5.852 72.168 120.124 430.324 401.992 386.401m101.895-58.237c-113.048-65.866-310.442-110.758-310.442-110.758s-14.695 47.788 42.835 97.647c27.231 23.602 95.782-3.558 127.236 10.357 34.945 15.46 60.566 51.439 60.643 51.464m-188.097 303.759c38.765-17.742 114.136-103.201 224.697-47.528m-171.211 92.892c44.707-8.115 133.543-66.29 188.691 3.417m-717.678-222.009c239.273-11.6 436.734 265.031 479.522 347.092m37.958-91.612c-104.716-74.268-310.39-309.629-517.48-346.57m88.315-86.897c137.543 40.122 304.781 357.669 651.968 534.852m-190.941-358.944c-3.132-33.911 35.843-96.439 92.089-118.925 24.702-9.875 51.289-22.864 74.99-39.065"/>
    </g>
  </g>
</svg>
