<svg xmlns="http://www.w3.org/2000/svg" fill-rule="evenodd" stroke-miterlimit="10" clip-rule="evenodd" viewBox="0 0 375 740">
  <g>
    <path fill="none" d="M0 0h375v740H0z"/>
    <clipPath id="a">
      <path d="M0 0h375v740H0z"/>
    </clipPath>
    <g clip-path="url(#a)">
      <path fill="none" stroke="#414042" d="M-197.488 40.206c107.613 124.996 297.658 161.24 436.367 335.995m829.043 187.014C586.055 141.238 382.472 369.346 170.9 465.323m1099.172 338.78C719.377 258.779 457.74 373.114 209.33 501.679m828.832-49.109l-3.24-2.518c-105.85-84.657-254.163-171.473-419.374-184.087-165.21-12.614-320.276 71.095-474.373 170.027M42.673 777.393c-53.463-25.186-73.304-181.625-276.352-268.527m485.566 293.837c-47.293-33.392-214.882-317.765-503.283-411.97m372.22 386.66C84.246 745.411-11.862 533.488-207.669 475.555m69.319-652.553c7.027 86.65 230.232 411.513 505.487 489.03M124.698-120.887C209.5 83.1 486.647 164.842 486.823 164.899M247.73 535.952c46.544-21.303 138.538-64.637 269.783-57.066M311.948 590.418c53.677-9.742 130.715-12.996 226.554 4.103m-861.687-266.558C-35.9 314.036 273.074 758.921 382.169 777.812m129.432.122C339.894 755.325-74.541 262.949-323.185 218.596m106.035-104.333c165.141 48.172 365.939 429.438 782.793 642.173"/>
    </g>
  </g>
</svg>
