<?xml version="1.0" encoding="UTF-8" standalone="no"?>
<!DOCTYPE svg PUBLIC "-//W3C//DTD SVG 1.1//EN" "http://www.w3.org/Graphics/SVG/1.1/DTD/svg11.dtd">
<svg width="100%" height="100%" viewBox="0 0 1440 950" version="1.1" xmlns="http://www.w3.org/2000/svg" xmlns:xlink="http://www.w3.org/1999/xlink" xml:space="preserve" xmlns:serif="http://www.serif.com/" style="fill-rule:evenodd;clip-rule:evenodd;stroke-miterlimit:10;">
    <rect id="Page-1" serif:id="Page 1" x="0" y="0" width="1440" height="950" style="fill:none;"/>
    <clipPath id="_clip1">
        <rect id="Page-11" serif:id="Page 1" x="0" y="0" width="1440" height="950"/>
    </clipPath>
    <g clip-path="url(#_clip1)">
        <g id="Layer-1" serif:id="Layer 1">
            <g opacity="0.37">
                <g>
                    <clipPath id="_clip2">
                        <rect x="0.092" y="-0" width="1439.91" height="948.078" clip-rule="nonzero"/>
                    </clipPath>
                    <g clip-path="url(#_clip2)">
                        <path d="M1986.28,-171.669C1635.5,90.674 1215.8,50.944 1055.62,22.565C895.438,-5.813 704.987,-68.245 682.285,-10.227C659.582,47.791 745.348,277.341 995.078,430.019C1244.81,582.698 1254.9,712.607 1254.9,712.607C1285.17,995.519 960.511,1018.77 960.511,1018.77L1161.57,995.519C1161.57,995.519 1363.37,910.495 1575.26,696.08C1787.15,481.666 2003.52,496.263 2003.52,496.263L1986.28,-171.669Z" style="fill:none;fill-rule:nonzero;stroke:white;stroke-width:1px;"/>
                        <path d="M307.69,995.519C307.69,995.519 139.311,784.998 -161.5,788.784C-462.311,792.567 -547.447,995.519 -547.447,995.519L307.69,995.519Z" style="fill:none;fill-rule:nonzero;stroke:white;stroke-width:1px;"/>
                        <path d="M-245.837,995.52C-245.837,995.52 -184.203,917.432 -78.257,913.649C27.689,909.865 141.203,995.52 141.203,995.52L-245.837,995.52Z" style="fill:none;fill-rule:nonzero;stroke:white;stroke-width:1px;"/>
                        <path d="M338.333,-218.223C336.336,-221.352 332.21,-222.256 328.507,-222.504C309.234,-223.794 290.817,-214.935 274.115,-205.231C239.118,-184.896 207.074,-159.926 173.596,-137.175C63.687,-62.482 -63.53,-11.486 -195.793,1.371C-199.432,1.725 -203.106,2.02 -206.743,1.772L-143.323,56.619C37.745,27.49 201.233,-74.42 332.647,-202.545C336.976,-206.765 341.585,-213.127 338.333,-218.223Z" style="fill:none;fill-rule:nonzero;stroke:white;stroke-width:1px;"/>
                        <path d="M-195.793,1.371C-63.529,-11.486 63.686,-62.482 173.597,-137.175C207.074,-159.926 239.119,-184.896 274.116,-205.231C290.817,-214.936 309.235,-223.794 328.507,-222.504C332.211,-222.256 336.337,-221.353 338.333,-218.223C341.585,-213.127 336.976,-206.765 332.646,-202.545C201.234,-74.42 37.746,27.49 -143.322,56.619L-91.674,101.286C-90.363,100.982 -89.062,100.599 -87.789,100.188C36.924,60.042 149.486,-12.067 249.35,-96.874C290.622,-131.923 330.427,-169.788 359.182,-215.67C364.305,-223.843 368.941,-234.919 362.918,-242.454C358.802,-247.604 351.384,-248.555 344.797,-248.292C321.811,-247.372 300.454,-236.682 280.364,-225.475C197.257,-179.113 121.071,-119.766 33.284,-83.027C-9.912,-64.95 -55.288,-52.662 -101.13,-43.442C-124.48,-38.746 -147.98,-34.839 -171.534,-31.322C-183.641,-29.514 -195.763,-27.815 -207.892,-26.164C-215.516,-25.127 -227.169,-25.38 -235.242,-22.875L-206.743,1.772C-203.105,2.019 -199.432,1.725 -195.793,1.371Z" style="fill:none;fill-rule:nonzero;stroke:white;stroke-width:1px;"/>
                        <path d="M1161.57,995.52C1161.57,995.52 1363.37,910.496 1575.26,696.081C1787.15,481.666 2003.52,496.263 2003.52,496.263L2003.52,702.906C2003.52,702.906 1741.75,729.891 1454.18,913.526C1454.18,913.526 1323.01,995.52 1285.17,995.52L1161.57,995.52Z" style="fill:none;fill-rule:nonzero;stroke:white;stroke-width:1px;"/>
                        <path d="M1019.06,241.818C1005.81,311.796 1048.3,355.657 1211.62,458.317C1361.77,552.701 1372.1,594.281 1436.46,614.009C1500.82,633.736 1575.46,567.829 1641.7,529.559C1707.93,491.287 1915.48,376.348 2042.07,398.491C2168.66,420.634 1996.74,157.568 1996.74,157.568C1996.74,157.568 1722.78,313.567 1461.44,259.277C1200.11,204.987 1035.91,152.814 1019.06,241.818Z" style="fill:none;fill-rule:nonzero;stroke:white;stroke-width:1px;"/>
                        <path d="M69.604,240.388C248.732,370.492 472.226,395.862 515.799,400.104C577.18,406.078 673.877,371.515 610.319,287.06C551.546,208.965 416.578,242.025 263.546,236.353C110.522,230.681 -8.71,173.029 -8.725,173.021L40.932,215.966C50.579,224.301 60.116,232.398 69.604,240.388Z" style="fill:none;fill-rule:nonzero;stroke:white;stroke-width:1px;"/>
                        <path d="M627.526,317.813C585.357,248.554 446.451,273.558 345.55,303.828C248.419,332.967 169.732,300.655 163.985,298.199C319.72,378.522 479.676,396.585 515.821,400.104C569.128,405.293 649.046,379.899 627.526,317.813Z" style="fill:none;fill-rule:nonzero;stroke:white;stroke-width:1px;"/>
                        <path d="M797.691,444.356C805.037,382.886 759.112,300.476 700.77,215.989L700.74,215.966C730.547,335.583 760.935,400.76 620.062,438.782C466.157,480.322 207.642,348.546 205.401,347.401C563.585,609.135 779.513,596.472 797.691,444.356Z" style="fill:none;fill-rule:nonzero;stroke:white;stroke-width:1px;"/>
                        <path d="M1984.04,-189.231C1984.76,-189.701 1985.31,-190.061 1985.68,-190.308C1985.31,-190.063 1984.76,-189.7 1984.04,-189.231ZM1985.78,-190.371C1985.91,-190.459 1986.03,-190.534 1986.11,-190.586C1986.03,-190.534 1985.92,-190.462 1985.78,-190.371ZM1094.72,7.431C623.636,-75.813 570.663,-221.488 506.339,-153.38C445.132,-100.743 593.819,61.113 700.77,215.99L700.741,215.967C730.548,335.583 760.935,400.761 620.062,438.783C467.44,479.976 211.99,350.754 205.557,347.481C153.613,309.541 98.703,265.88 40.932,215.967L-296.456,-75.813C-296.456,-75.813 -148.257,-60.677 12.554,-104.191C173.365,-147.705 364.447,-321.759 527.149,-321.759C554.143,-321.759 584.664,-315.452 617.244,-305.552C617.45,-305.489 617.656,-305.426 617.862,-305.363L688.36,-279.566C646.671,-294.128 602.355,-305.178 596.519,-288.966C585.168,-257.435 736.339,-140.457 832.375,-102.299C838.976,-99.676 845.745,-97.045 852.646,-94.412C856.322,-93.01 890.047,-80.65 897.225,-78.151C898.723,-77.629 941.464,-63.46 941.708,-63.382C950.799,-60.509 960.055,-57.672 969.465,-54.882C969.559,-54.855 1003.68,-45.154 1006.15,-44.483C1006.97,-44.261 1028.3,-38.617 1038.36,-36.122C1038.5,-36.085 1038.64,-36.049 1038.79,-36.013C1174.73,-2.306 1335.47,18.173 1501.98,-1.036C1502.11,-1.051 1502.23,-1.064 1502.36,-1.078C1506.53,-1.56 1510.69,-2.067 1514.87,-2.599C1772.47,-55.649 1961.28,-174.478 1983.98,-189.197C1950.18,-167.275 1545.64,87.112 1094.72,7.431Z" style="fill:none;fill-rule:nonzero;stroke:white;stroke-width:1px;"/>
                        <path d="M813.514,785.475C766.477,728.37 689.638,707.78 618.859,686.241C438.694,631.411 266.445,550.643 109.074,447.201C-109,303.858 -296.092,119.145 -494.847,-49.97C-693.602,-219.086 -910.838,-376.27 -1161.45,-449.054C-1265.03,-479.138 -1372.75,-493.883 -1480.54,-495.129C-1658.69,-497.186 -1836.33,-462.952 -2003.99,-403.751C-2183.45,-340.384 -2500.78,-136.484 -2500.78,-136.484L-2468.28,-120.087C-1618.11,-575.534 -1055.74,-242.299 -1055.74,-242.299C-815.406,-115.887 -155.194,450.951 89.492,587.612C372.014,751.577 702.466,793.198 768.051,855C810.241,894.755 798.152,932.419 787.515,953.563C787.581,957.672 785.451,962.829 780.388,969.6C851.572,949.442 860.551,842.581 813.514,785.475Z" style="fill:none;fill-rule:nonzero;stroke:white;stroke-width:1px;"/>
                        <path d="M-470.781,643.792C-470.892,643.828 -471.004,643.866 -471.115,643.903L-471.111,643.86C-471.004,643.838 -470.888,643.814 -470.781,643.792ZM-386.426,717.102C-386.426,717.102 -379.699,656.541 -430.15,640.995C-434.347,639.701 -438.876,639.118 -443.614,639.056C-407.562,634.358 -351.014,633.726 -261.981,658.242C-165.059,684.931 -89.575,768.052 -67.332,794.717C-6.615,803.248 47.251,820.188 93.907,840.754L93.906,840.73C93.906,840.73 44.716,665.81 -85.824,597.702C-170.96,512.566 -233.451,419.104 -462.312,406.62C-658.859,395.899 -693.857,547.721 -654.127,562.855C-654.127,562.855 -745.466,616.621 -745.466,720.465C-745.466,821.882 -640.385,884.068 -547.447,874.339C-394.834,858.363 -386.426,717.102 -386.426,717.102Z" style="fill:none;fill-rule:nonzero;stroke:white;stroke-width:1px;"/>
                        <path d="M489.311,902.297C363.729,872.472 129.541,777.159 53.43,745.566C81.729,797.449 93.906,840.731 93.906,840.731L93.907,840.754C232.866,902.01 307.689,995.52 307.689,995.52L248.893,995.52L297.47,1029.31L703.626,992.39C687.343,980.005 619.665,933.256 489.311,902.297Z" style="fill:none;fill-rule:nonzero;stroke:white;stroke-width:1px;"/>
                        <path d="M1575.26,696.08C1787.15,481.666 2003.52,496.263 2003.52,496.263L2003.52,702.905C2003.52,702.905 1741.75,729.891 1454.18,913.526C1454.18,913.526 1323.01,995.519 1285.17,995.519L1161.57,995.519" style="fill:none;fill-rule:nonzero;stroke:white;stroke-width:1px;"/>
                        <path d="M864.92,-206.984C813.161,-227.811 757.931,-251.619 709.921,-271.677C709.921,-271.677 688.362,-279.566 688.359,-279.567C669.231,-286.566 649.124,-292.804 628.938,-295.815C618.452,-297.38 600.644,-302.194 596.314,-288.346C592.156,-275.047 607.133,-260.916 614.921,-252.041C632.176,-232.378 652.427,-215.256 672.927,-199.1C697.817,-179.485 723.899,-161.333 750.868,-144.692C775.925,-129.232 801.881,-114.785 829.158,-103.599C830.228,-103.16 831.3,-102.727 832.375,-102.299C838.976,-99.677 845.745,-97.046 852.646,-94.413C856.321,-93.011 890.046,-80.651 897.225,-78.151C898.723,-77.63 941.463,-63.46 941.708,-63.383C950.799,-60.509 960.055,-57.672 969.464,-54.883C969.559,-54.855 1003.67,-45.154 1006.15,-44.484C1006.97,-44.262 1028.3,-38.618 1038.36,-36.122C1038.5,-36.086 1038.64,-36.049 1038.79,-36.013C1174.73,-2.306 1335.47,18.172 1501.98,-1.036C1502.11,-1.051 1502.23,-1.064 1502.36,-1.079C1506.53,-1.561 1510.69,-2.067 1514.87,-2.6C1789.74,-59.205 1986.28,-190.705 1986.28,-190.705L2021.81,-179.581C2021.81,-179.581 1986.3,-711.358 1986.28,-711.49C1985.2,-717.902 1980.22,-725.141 1977.14,-730.677C1968.4,-746.399 1957.59,-760.986 1945.25,-774.068C1927.7,-792.68 1906.93,-808.16 1884.11,-819.718C1854.58,-834.675 1818.65,-846.22 1785.28,-844.09C1759.32,-842.433 1723.28,-834.335 1713.62,-806.388C1705.03,-781.52 1714.02,-750.154 1738.06,-737.851C1744.34,-734.634 1751.65,-732.301 1758.77,-732.301C1808.95,-734.124 1796.64,-788.935 1796.61,-789.057C1797.66,-784.398 1792.18,-774.953 1789.7,-771.149C1786.22,-765.834 1781.13,-761.172 1774.55,-760.57C1760.59,-759.293 1751.84,-775.118 1760.25,-786.325C1770.34,-799.778 1835.08,-796.415 1883.01,-735.874C1930.93,-675.334 1944.18,-414.462 1652.83,-300.948C1361.48,-187.435 1282.63,-289.398 1282.02,-300.948C1281.4,-312.499 1319.52,-318.309 1297.15,-344.462C1247.76,-402.215 1137.59,-381.106 1073.91,-333.111C979.272,-249.17 1090.93,-195.003 1045.53,-159.056C1028.53,-145.597 951.59,-172.11 864.92,-206.984" style="fill:none;fill-rule:nonzero;stroke:white;stroke-width:1px;"/>
                    </g>
                </g>
            </g>
        </g>
    </g>
</svg>
