<?xml version="1.0" encoding="UTF-8" standalone="no"?>
<!DOCTYPE svg PUBLIC "-//W3C//DTD SVG 1.1//EN" "http://www.w3.org/Graphics/SVG/1.1/DTD/svg11.dtd">
<svg width="100%" height="100%" viewBox="0 0 375 950" version="1.1" xmlns="http://www.w3.org/2000/svg" xmlns:xlink="http://www.w3.org/1999/xlink" xml:space="preserve" xmlns:serif="http://www.serif.com/" style="fill-rule:evenodd;clip-rule:evenodd;stroke-miterlimit:10;">
    <rect id="Page-2" serif:id="Page 2" x="0" y="0" width="375" height="950" style="fill:none;"/>
    <g id="Layer-1" serif:id="Layer 1">
        <g opacity="0.37">
            <g>
                <clipPath id="_clip1">
                    <rect x="0" y="0" width="375" height="937.382" clip-rule="nonzero"/>
                </clipPath>
                <g clip-path="url(#_clip1)">
                    <path d="M1204.04,233.656C969.55,409.03 688.982,382.471 581.902,363.5C474.823,344.53 347.509,302.794 332.333,341.578C317.156,380.363 374.489,533.815 541.432,635.88C708.374,737.944 715.119,824.786 715.119,824.786C721.864,1007.84 518.324,1029.46 518.324,1029.46L652.727,1013.91C652.727,1013.91 787.63,957.073 929.277,813.738C1070.93,670.404 1215.56,680.162 1215.56,680.162L1204.04,233.656Z" style="fill:none;fill-rule:nonzero;stroke:white;stroke-width:1px;"/>
                    <path d="M399.086,51.986C418.99,70.768 443.309,84.474 468.258,95.362C478.833,99.978 489.623,104.095 500.539,107.829C601.705,100.043 666.704,96.101 666.719,96.1C666.711,96.101 666.703,96.103 666.695,96.104C696.558,91.961 725.746,97.544 743.364,118.146C758.316,135.629 732.838,139.513 733.247,147.235C733.655,154.956 786.365,223.117 981.131,147.235C1105.14,98.918 1146.59,10.67 1152.08,-57.521C1152.08,-57.521 1007.69,114.352 785.1,91.587C785.1,91.587 670.011,85.996 522.04,-11.753C522.04,-11.753 469.804,-51.556 514.451,18.071C556.357,83.424 367.081,-19.902 433.075,-140.859C414.638,-131.584 397.27,-119.581 384.278,-103.419C371.334,-87.316 364.295,-67.265 361.664,-46.936C359.484,-30.089 360.837,-12.854 366.392,3.243C372.871,22.024 384.714,38.425 399.086,51.986Z" style="fill:none;fill-rule:nonzero;stroke:white;stroke-width:1px;"/>
                    <path d="M81.919,1013.91C81.919,1013.91 -30.641,873.18 -231.729,875.71C-432.819,878.239 -489.731,1013.91 -489.731,1013.91L81.919,1013.91Z" style="fill:none;fill-rule:nonzero;stroke:white;stroke-width:1px;"/>
                    <path d="M102.403,202.535C101.069,200.443 98.311,199.839 95.835,199.674C82.952,198.811 70.639,204.733 59.474,211.22C36.08,224.814 14.658,241.506 -7.721,256.715C-81.195,306.647 -166.238,340.737 -254.655,349.332C-257.087,349.568 -259.543,349.765 -261.975,349.6L-219.578,386.264C-98.536,366.792 10.754,298.666 98.602,213.016C101.496,210.195 104.577,205.942 102.403,202.535Z" style="fill:none;fill-rule:nonzero;stroke:white;stroke-width:1px;"/>
                    <path d="M-254.654,349.332C-166.237,340.737 -81.194,306.647 -7.72,256.715C14.658,241.506 36.08,224.814 59.475,211.22C70.64,204.733 82.952,198.811 95.835,199.674C98.312,199.839 101.07,200.443 102.404,202.535C104.577,205.942 101.496,210.195 98.603,213.016C10.754,298.666 -98.536,366.792 -219.578,386.265L-185.051,416.124C-184.175,415.921 -183.305,415.665 -182.455,415.391C-99.086,388.553 -23.839,340.348 42.919,283.656C70.51,260.226 97.118,234.914 116.341,204.242C119.766,198.778 122.866,191.374 118.839,186.337C116.087,182.895 111.128,182.259 106.725,182.435C91.359,183.049 77.082,190.195 63.652,197.687C8.096,228.68 -42.834,268.353 -101.518,292.913C-130.394,304.997 -160.728,313.212 -191.373,319.375C-206.982,322.514 -222.692,325.125 -238.437,327.477C-246.531,328.686 -254.634,329.822 -262.742,330.925C-267.839,331.619 -275.629,331.449 -281.025,333.124L-261.974,349.6C-259.543,349.766 -257.087,349.568 -254.654,349.332Z" style="fill:none;fill-rule:nonzero;stroke:white;stroke-width:1px;"/>
                    <path d="M-77.239,509.112C42.507,596.086 191.91,613.046 221.038,615.881C262.071,619.875 326.712,596.769 284.224,540.312C244.936,488.106 154.711,510.207 52.409,506.415C-49.885,502.624 -129.591,464.084 -129.601,464.078L-96.405,492.787C-89.957,498.358 -83.582,503.771 -77.239,509.112Z" style="fill:none;fill-rule:nonzero;stroke:white;stroke-width:1px;"/>
                    <path d="M295.727,560.87C267.538,514.571 174.681,531.286 107.229,551.521C42.298,571.001 -10.304,549.4 -14.145,547.759C89.962,601.453 196.891,613.529 221.053,615.881C256.689,619.349 310.114,602.374 295.727,560.87Z" style="fill:none;fill-rule:nonzero;stroke:white;stroke-width:1px;"/>
                    <path d="M409.48,645.464C414.391,604.371 383.691,549.28 344.689,492.803L344.669,492.787C364.595,572.749 384.909,616.32 290.737,641.737C187.853,669.506 15.038,581.416 13.54,580.651C252.983,755.616 397.329,747.152 409.48,645.464Z" style="fill:none;fill-rule:nonzero;stroke:white;stroke-width:1px;"/>
                    <path d="M1202.54,221.916C1203.02,221.602 1203.39,221.361 1203.64,221.196C1203.39,221.36 1203.02,221.603 1202.54,221.916ZM1203.71,221.154C1203.8,221.095 1203.87,221.045 1203.92,221.01C1203.87,221.045 1203.8,221.093 1203.71,221.154ZM608.04,353.382C293.127,297.735 257.714,200.352 214.714,245.882C173.798,281.069 273.193,389.268 344.689,492.802L344.67,492.787C364.596,572.749 384.909,616.32 290.737,641.737C188.711,669.274 17.944,582.891 13.645,580.703C-21.08,555.341 -57.787,526.153 -96.405,492.787L-321.946,297.735C-321.946,297.735 -222.877,307.853 -115.376,278.765C-7.876,249.676 119.86,133.322 228.626,133.322C246.671,133.322 267.074,137.539 288.854,144.157C288.991,144.198 289.129,144.241 289.267,144.283L336.394,161.528C308.524,151.793 278.9,144.407 274.999,155.244C267.411,176.323 368.467,254.521 432.667,280.029C437.079,281.782 441.604,283.541 446.218,285.301C448.675,286.239 471.22,294.501 476.019,296.172C477.02,296.52 505.591,305.993 505.755,306.045C511.832,307.966 518.02,309.862 524.31,311.727C524.373,311.746 547.179,318.23 548.834,318.678C549.383,318.827 563.642,322.6 570.361,324.268C570.458,324.292 570.554,324.317 570.65,324.341C661.524,346.874 768.979,360.563 880.289,347.723C880.375,347.713 880.46,347.704 880.546,347.694C883.33,347.372 886.116,347.033 888.905,346.678C1061.11,311.214 1187.33,231.779 1202.51,221.939C1179.91,236.593 909.477,406.648 608.04,353.382Z" style="fill:none;fill-rule:nonzero;stroke:white;stroke-width:1px;"/>
                    <path d="M420.058,873.498C388.615,835.323 337.247,821.56 289.933,807.16C169.495,770.508 54.347,716.515 -50.854,647.364C-196.634,551.541 -321.704,428.062 -454.569,315.01C-587.435,201.958 -732.655,96.882 -900.186,48.227C-969.431,28.116 -1041.44,18.259 -1113.49,17.426C-1232.59,16.051 -1351.34,38.936 -1463.42,78.511C-1583.38,120.871 -1795.52,257.177 -1795.52,257.177L-1773.79,268.138C-1205.46,-36.324 -829.518,186.44 -829.518,186.44C-668.86,270.946 -227.514,649.871 -63.944,741.228C124.919,850.837 345.824,878.66 389.666,919.975C417.87,946.551 409.788,971.728 402.678,985.863C402.722,988.609 401.298,992.057 397.913,996.583C445.499,983.108 451.501,911.673 420.058,873.498Z" style="fill:none;fill-rule:nonzero;stroke:white;stroke-width:1px;"/>
                    <path d="M203.332,951.593C119.381,931.655 -37.171,867.939 -88.051,846.819C-69.134,881.503 -60.993,910.437 -60.993,910.437L-60.992,910.451C31.899,951.401 81.919,1013.91 81.919,1013.91L42.614,1013.91L75.087,1036.5L346.599,1011.82C335.714,1003.54 290.473,972.288 203.332,951.593Z" style="fill:none;fill-rule:nonzero;stroke:white;stroke-width:1px;"/>
                    <path d="M350.807,166.802C346.158,165.028 341.302,163.242 336.394,161.528L350.807,166.802Z" style="fill:none;fill-rule:nonzero;stroke:white;stroke-width:1px;"/>
                    <path d="M288.961,144.171L288.854,144.156C288.991,144.198 289.129,144.24 289.267,144.282L288.961,144.171Z" style="fill:none;fill-rule:nonzero;stroke:white;stroke-width:1px;"/>
                    <path d="M350.807,166.802C329.629,158.188 308.893,150.269 289.267,144.282L336.394,161.528C341.302,163.242 346.158,165.028 350.807,166.802Z" style="fill:none;fill-rule:nonzero;stroke:white;stroke-width:1px;"/>
                    <path d="M454.423,210.049C419.822,196.126 382.902,180.211 350.807,166.802C350.807,166.802 336.396,161.529 336.394,161.528C323.607,156.849 310.165,152.679 296.671,150.666C289.661,149.62 277.757,146.402 274.862,155.659C272.082,164.549 282.095,173.996 287.301,179.929C298.836,193.073 312.373,204.519 326.077,215.319C342.716,228.431 360.152,240.567 378.18,251.69C394.931,262.026 412.281,271.683 430.516,279.161C431.232,279.454 431.948,279.744 432.667,280.029C437.079,281.782 441.605,283.542 446.218,285.301C448.675,286.239 471.22,294.502 476.019,296.172C477.02,296.521 505.591,305.993 505.755,306.045C511.832,307.966 518.02,309.862 524.31,311.727C524.373,311.746 547.179,318.23 548.834,318.678C549.383,318.827 563.642,322.6 570.361,324.268C570.458,324.293 570.554,324.317 570.651,324.341C661.525,346.874 768.98,360.564 880.289,347.723C880.375,347.713 880.46,347.704 880.546,347.695C883.33,347.372 886.116,347.033 888.905,346.678C1072.65,308.838 1204.04,220.931 1204.04,220.931L1227.79,228.367C1227.79,228.367 1204.06,-127.12 1204.04,-127.208C1203.32,-131.495 1199.99,-136.334 1197.93,-140.035C1192.09,-150.545 1184.86,-160.297 1176.61,-169.042C1164.88,-181.483 1151,-191.832 1135.74,-199.558C1116,-209.557 1091.98,-217.275 1069.67,-215.851C1052.32,-214.743 1028.23,-209.329 1021.77,-190.647C1016.03,-174.023 1022.04,-153.055 1038.11,-144.831C1042.31,-142.68 1047.19,-141.12 1051.95,-141.12C1085.5,-142.34 1077.27,-178.98 1077.25,-179.062C1077.95,-175.947 1074.29,-169.633 1072.63,-167.09C1070.31,-163.537 1066.9,-160.421 1062.5,-160.018C1053.17,-159.165 1047.32,-169.743 1052.94,-177.235C1059.68,-186.229 1102.96,-183.98 1135.01,-143.509C1167.04,-103.038 1175.9,71.352 981.131,147.235C786.365,223.117 733.655,154.956 733.247,147.235C732.838,139.513 758.317,135.629 743.364,118.146C710.348,79.538 636.703,93.65 594.128,125.734C530.866,181.848 605.511,218.058 575.157,242.088C563.792,251.086 512.361,233.362 454.423,210.049" style="fill:none;fill-rule:nonzero;stroke:white;stroke-width:1px;"/>
                    <path d="M-117.063,138.136C-211.495,152.224 -264.613,130.793 -264.613,130.793C-264.613,130.793 -398.672,98.754 -372.535,21.185C-339.842,-75.841 -120.199,-91.797 -61.718,-78.306C-61.718,-78.306 -139.827,-96.012 -204.75,-88.424C-515.87,-53.012 -475.398,173.793 -475.398,173.793L-476.333,174.531C-395.55,235.907 -321.947,297.736 -321.947,297.736C-321.947,297.736 -222.877,307.853 -115.376,278.764C-7.876,249.676 119.861,133.323 228.625,133.323C246.67,133.323 267.075,137.539 288.853,144.157C288.992,144.198 289.128,144.241 289.267,144.283L336.393,161.528L350.807,166.803C382.902,180.211 419.823,196.127 454.423,210.049C512.361,233.362 563.791,251.086 575.158,242.088C605.511,218.058 530.867,181.848 594.128,125.734C613.991,110.767 640.613,99.717 666.719,96.1C666.704,96.101 601.706,100.043 500.539,107.829C498.289,108.002 495.971,108.169 493.621,108.331C493.256,108.356 492.893,108.381 492.527,108.406C388.914,115.431 193.222,110.143 161.952,-32.105C156.768,-55.677 185.697,-84.066 227.813,-6.902C227.813,-6.902 241.303,-47.878 233.44,-85.351C191.801,-78.682 142.865,-86.385 89.507,-115.405" style="fill:none;fill-rule:nonzero;stroke:white;stroke-width:1px;"/>
                    <path d="M835.966,-336.186C793.997,-369.928 713.281,-389.118 603.263,-353.171C461.333,-306.799 316.754,-158.671 198.714,-162.044C166.91,-162.953 81.959,-187.303 108.096,-278.924C121.795,-324.925 171.635,-344.157 270.783,-278.975C368.171,-214.951 391.353,-289.936 391.353,-289.936C391.353,-289.936 396.312,-316.556 382.921,-318.603C382.921,-318.603 383.343,-365.397 350.038,-362.024C316.735,-358.652 319.55,-319.653 344.659,-315.565L344.81,-315.017C346.04,-310.26 345.794,-304.87 342.029,-299.632C335.951,-291.178 310.832,-287.406 277.529,-310.593C244.224,-333.779 127.362,-453.6 46.085,-354.436C4.204,-303.337 -6.611,-167.68 89.508,-115.405C179.826,-66.284 257.489,-78.21 308.506,-117.604C311.781,-120.133 314.947,-122.776 317.999,-125.523C232.394,20.51 351.497,103.711 352.593,104.474C406.676,112.318 461.227,110.855 500.539,107.829C489.623,104.095 478.833,99.977 468.258,95.362C443.309,84.474 418.99,70.767 399.086,51.985C384.714,38.424 372.871,22.023 366.392,3.243C360.837,-12.854 359.485,-30.089 361.664,-46.937C364.295,-67.266 371.334,-87.317 384.279,-103.42C398.999,-121.734 419.341,-134.707 440.49,-144.424C455.504,-151.322 471.227,-155.936 486.628,-161.778C501.35,-167.362 519.847,-169.011 533.022,-158.762C540.11,-153.249 544.843,-144.054 541.945,-135.075C537.783,-122.19 521.486,-117.645 512.764,-127.21C503.509,-137.36 511.629,-146.228 514.069,-149.783C497.119,-149.873 458.563,-122.943 491.305,-89.498C511.394,-68.978 550.475,-75.489 570.173,-97.344C588.851,-118.068 584.31,-154.104 569.537,-175.549C557.285,-193.333 517.262,-228.948 547.053,-264.922C576.844,-300.896 625.184,-298.086 647.106,-291.341C647.106,-291.341 628.419,-294.93 629.119,-276.727C629.819,-258.523 645.42,-251.994 657.785,-253.119C670.152,-254.243 696.233,-263.678 692.073,-295.487C691.132,-302.687 686.346,-308.323 679.576,-312.732L679.707,-312.701C679.775,-312.74 679.841,-312.781 679.908,-312.819C699.714,-324.257 724.95,-328.127 747.298,-324.129C786.629,-317.093 843.037,-273.994 816.515,-229.389C806.606,-212.724 794.461,-212.609 785.687,-217.583C775.411,-223.408 774.8,-241.122 787.222,-246.098C799.644,-251.074 809.422,-233.467 809.422,-233.467C809.422,-233.467 818.907,-253.686 800.237,-261.791C786.234,-267.87 756.643,-265.355 751.53,-233.793C746.418,-202.231 765.952,-184.292 790.091,-180.43C877.605,-166.426 893.905,-289.604 835.966,-336.186Z" style="fill:none;fill-rule:nonzero;stroke:white;stroke-width:1px;"/>
                </g>
            </g>
        </g>
    </g>
</svg>
