<?xml version="1.0" encoding="UTF-8" standalone="no"?>
<!DOCTYPE svg PUBLIC "-//W3C//DTD SVG 1.1//EN" "http://www.w3.org/Graphics/SVG/1.1/DTD/svg11.dtd">
<svg width="100%" height="100%" viewBox="0 0 1440 950" version="1.1" xmlns="http://www.w3.org/2000/svg" xmlns:xlink="http://www.w3.org/1999/xlink" xml:space="preserve" xmlns:serif="http://www.serif.com/" style="fill-rule:evenodd;clip-rule:evenodd;stroke-miterlimit:10;">
    <rect id="Page-1" serif:id="Page 1" x="0" y="0" width="1440" height="950" style="fill:none;"/>
    <clipPath id="_clip1">
        <rect id="Page-11" serif:id="Page 1" x="0" y="0" width="1440" height="950"/>
    </clipPath>
    <g clip-path="url(#_clip1)">
        <g id="Layer-1" serif:id="Layer 1">
            <g opacity="0.37">
                <g>
                    <clipPath id="_clip2">
                        <rect x="0.092" y="-0" width="1439.91" height="948.078" clip-rule="nonzero"/>
                    </clipPath>
                    <g clip-path="url(#_clip2)">
                        <g transform="matrix(1,0,0,1,1986.28,1018.77)">
                            <path d="M0,-1190.44C-350.78,-928.099 -770.483,-967.829 -930.664,-996.208C-1090.85,-1024.59 -1281.3,-1087.02 -1304,-1029C-1326.7,-970.982 -1240.93,-741.432 -991.205,-588.754C-741.475,-436.075 -731.385,-306.166 -731.385,-306.166C-701.114,-23.254 -1025.77,0 -1025.77,0L-824.718,-23.254C-824.718,-23.254 -622.916,-108.278 -411.023,-322.693C-199.132,-537.107 17.234,-522.51 17.234,-522.51L0,-1190.44Z" style="fill:none;fill-rule:nonzero;stroke:white;stroke-width:1px;"/>
                        </g>
                        <g transform="matrix(1,0,0,1,307.69,784.998)">
                            <path d="M0,210.521C0,210.521 -168.379,0 -469.19,3.785C-770.001,7.569 -855.137,210.521 -855.137,210.521L0,210.521Z" style="fill:none;fill-rule:nonzero;stroke:white;stroke-width:1px;"/>
                        </g>
                        <g transform="matrix(1,0,0,1,-245.837,909.865)">
                            <path d="M0,85.655C0,85.655 61.634,7.567 167.58,3.784C273.526,0 387.04,85.655 387.04,85.655L0,85.655Z" style="fill:none;fill-rule:nonzero;stroke:white;stroke-width:1px;"/>
                        </g>
                        <g transform="matrix(1,0,0,1,338.333,51.0479)">
                            <path d="M0,-269.271C-1.997,-272.4 -6.123,-273.304 -9.826,-273.552C-29.099,-274.842 -47.516,-265.983 -64.218,-256.279C-99.215,-235.944 -131.259,-210.974 -164.737,-188.223C-274.646,-113.53 -401.863,-62.534 -534.126,-49.677C-537.765,-49.323 -541.439,-49.028 -545.076,-49.276L-481.656,5.571C-300.588,-23.558 -137.1,-125.468 -5.686,-253.593C-1.357,-257.813 3.252,-264.175 0,-269.271Z" style="fill:none;fill-rule:nonzero;stroke:white;stroke-width:1px;"/>
                        </g>
                        <g transform="matrix(1,0,0,1,-195.793,-148.64)">
                            <path d="M0,150.011C132.264,137.154 259.48,86.158 369.39,11.465C402.867,-11.286 434.912,-36.256 469.909,-56.591C486.61,-66.296 505.028,-75.154 524.301,-73.864C528.004,-73.616 532.13,-72.713 534.126,-69.583C537.378,-64.487 532.769,-58.125 528.44,-53.905C397.027,74.22 233.539,176.13 52.471,205.259L104.119,249.926C105.43,249.622 106.731,249.239 108.004,248.828C232.717,208.682 345.279,136.573 445.143,51.766C486.416,16.717 526.22,-21.148 554.975,-67.03C560.098,-75.203 564.734,-86.279 558.711,-93.814C554.595,-98.964 547.177,-99.915 540.59,-99.652C517.604,-98.732 496.247,-88.042 476.157,-76.835C393.05,-30.473 316.864,28.874 229.077,65.613C185.881,83.69 140.505,95.978 94.663,105.198C71.313,109.894 47.813,113.801 24.259,117.318C12.152,119.126 0.03,120.825 -12.099,122.476C-19.723,123.513 -31.376,123.26 -39.449,125.765L-10.95,150.412C-7.312,150.659 -3.639,150.365 0,150.011Z" style="fill:none;fill-rule:nonzero;stroke:white;stroke-width:1px;"/>
                        </g>
                        <g transform="matrix(1,0,0,1,1161.57,481.666)">
                            <path d="M0,513.854C0,513.854 201.802,428.83 413.694,214.415C625.586,0 841.952,14.597 841.952,14.597L841.952,221.24C841.952,221.24 580.181,248.225 292.613,431.861C292.613,431.861 161.441,513.854 123.604,513.854L0,513.854Z" style="fill:none;fill-rule:nonzero;stroke:white;stroke-width:1px;"/>
                        </g>
                        <g transform="matrix(1,0,0,1,1019.06,544.732)">
                            <path d="M0,-302.914C-13.248,-232.936 29.245,-189.075 192.562,-86.415C342.712,7.969 353.042,49.549 417.405,69.277C481.766,89.004 556.4,23.097 622.638,-15.173C688.876,-53.445 896.422,-168.384 1023.01,-146.241C1149.6,-124.098 977.684,-387.164 977.684,-387.164C977.684,-387.164 703.718,-231.165 442.384,-285.455C181.051,-339.745 16.85,-391.918 0,-302.914Z" style="fill:none;fill-rule:nonzero;stroke:white;stroke-width:1px;"/>
                        </g>
                        <g transform="matrix(1,0,0,1,69.6035,338.711)">
                            <path d="M0,-98.323C179.128,31.781 402.622,57.151 446.195,61.393C507.576,67.367 604.273,32.804 540.715,-51.651C481.943,-129.746 346.975,-96.686 193.942,-102.358C40.919,-108.03 -78.313,-165.682 -78.329,-165.69L-28.671,-122.745C-19.024,-114.41 -9.487,-106.313 0,-98.323Z" style="fill:none;fill-rule:nonzero;stroke:white;stroke-width:1px;"/>
                        </g>
                        <g transform="matrix(0.0422734,-0.999106,-0.999106,-0.0422734,406.756,105.725)">
                            <path d="M-202.565,-229.539C-135.151,-184.48 -166.004,-46.755 -200.512,52.776C-233.731,148.589 -204.776,228.571 -202.565,234.417C-276.232,75.426 -287.517,-85.151 -289.505,-121.412C-292.435,-174.891 -263.686,-253.664 -202.565,-229.539Z" style="fill:none;fill-rule:nonzero;stroke:white;stroke-width:1px;"/>
                        </g>
                        <g transform="matrix(1,0,0,1,797.691,380.745)">
                            <path d="M0,63.611C7.346,2.141 -38.579,-80.269 -96.921,-164.756L-96.951,-164.779C-67.144,-45.162 -36.756,20.015 -177.629,58.037C-331.534,99.577 -590.049,-32.199 -592.29,-33.344C-234.106,228.39 -18.178,215.727 0,63.611Z" style="fill:none;fill-rule:nonzero;stroke:white;stroke-width:1px;"/>
                        </g>
                        <g transform="matrix(1,0,0,1,1984.04,347.448)">
                            <path d="M0,-536.679C0.724,-537.149 1.273,-537.509 1.648,-537.756C1.275,-537.511 0.722,-537.148 0,-536.679ZM1.744,-537.819C1.876,-537.907 1.991,-537.982 2.069,-538.034C1.99,-537.982 1.882,-537.91 1.744,-537.819ZM-889.318,-340.017C-1360.4,-423.261 -1413.37,-568.936 -1477.7,-500.828C-1538.9,-448.191 -1390.22,-286.335 -1283.27,-131.458L-1283.3,-131.481C-1253.49,-11.865 -1223.1,53.313 -1363.97,91.335C-1516.6,132.528 -1772.05,3.306 -1778.48,0.033C-1830.42,-37.907 -1885.33,-81.568 -1943.1,-131.481L-2280.49,-423.261C-2280.49,-423.261 -2132.29,-408.125 -1971.48,-451.639C-1810.67,-495.153 -1619.59,-669.207 -1456.89,-669.207C-1429.89,-669.207 -1399.37,-662.9 -1366.79,-653C-1366.59,-652.937 -1366.38,-652.874 -1366.17,-652.811L-1295.68,-627.014C-1337.37,-641.576 -1381.68,-652.626 -1387.52,-636.414C-1398.87,-604.883 -1247.7,-487.905 -1151.66,-449.747C-1145.06,-447.124 -1138.29,-444.493 -1131.39,-441.86C-1127.71,-440.458 -1093.99,-428.098 -1086.81,-425.599C-1085.31,-425.077 -1042.57,-410.908 -1042.33,-410.83C-1033.24,-407.957 -1023.98,-405.12 -1014.57,-402.33C-1014.48,-402.303 -980.361,-392.602 -977.886,-391.931C-977.064,-391.709 -955.735,-386.065 -945.681,-383.57C-945.537,-383.533 -945.395,-383.497 -945.25,-383.461C-809.311,-349.754 -648.567,-329.275 -482.06,-348.484C-481.931,-348.499 -481.803,-348.512 -481.675,-348.526C-477.51,-349.008 -473.342,-349.515 -469.17,-350.047C-211.565,-403.097 -22.758,-521.926 -0.054,-536.645C-33.856,-514.723 -438.397,-260.336 -889.318,-340.017Z" style="fill:none;fill-rule:nonzero;stroke:white;stroke-width:1px;"/>
                        </g>
                        <g transform="matrix(1,0,0,1,813.514,-391.409)">
                            <path d="M0,1176.88C-47.037,1119.78 -123.876,1099.19 -194.655,1077.65C-374.82,1022.82 -547.069,942.052 -704.44,838.61C-922.514,695.267 -1109.61,510.554 -1308.36,341.439C-1507.12,172.323 -1724.35,15.139 -1974.96,-57.645C-2078.55,-87.729 -2186.26,-102.474 -2294.05,-103.72C-2472.2,-105.777 -2649.84,-71.543 -2817.5,-12.342C-2996.96,51.025 -3314.3,254.925 -3314.3,254.925L-3281.79,271.322C-2431.62,-184.125 -1869.25,149.11 -1869.25,149.11C-1628.92,275.522 -968.708,842.36 -724.022,979.021C-441.5,1142.99 -111.048,1184.61 -45.463,1246.41C-3.273,1286.16 -15.362,1323.83 -25.999,1344.97C-25.933,1349.08 -28.063,1354.24 -33.126,1361.01C38.058,1340.85 47.037,1233.99 0,1176.88Z" style="fill:none;fill-rule:nonzero;stroke:white;stroke-width:1px;"/>
                        </g>
                        <g transform="matrix(1,0,0,1,-470.781,636.175)">
                            <path d="M0,7.617C-0.111,7.653 -0.223,7.691 -0.334,7.728L-0.33,7.685C-0.223,7.663 -0.107,7.639 0,7.617ZM84.355,80.927C84.355,80.927 91.082,20.366 40.631,4.82C36.434,3.526 31.905,2.943 27.167,2.881C63.219,-1.817 119.767,-2.449 208.8,22.067C305.722,48.756 381.206,131.877 403.449,158.542C464.166,167.073 518.032,184.013 564.688,204.579L564.687,204.555C564.687,204.555 515.497,29.635 384.957,-38.473C299.821,-123.609 237.33,-217.071 8.469,-229.555C-188.078,-240.276 -223.076,-88.454 -183.346,-73.32C-183.346,-73.32 -274.685,-19.554 -274.685,84.29C-274.685,185.707 -169.604,247.893 -76.666,238.164C75.947,222.188 84.355,80.927 84.355,80.927Z" style="fill:none;fill-rule:nonzero;stroke:white;stroke-width:1px;"/>
                        </g>
                        <g transform="matrix(1,0,0,1,489.311,872.582)">
                            <path d="M0,29.715C-125.582,-0.11 -359.77,-95.423 -435.881,-127.016C-407.583,-75.133 -395.406,-31.851 -395.406,-31.851L-395.404,-31.828C-256.446,29.428 -181.622,122.938 -181.622,122.938L-240.418,122.938L-191.841,156.731L214.314,119.808C198.031,107.423 130.354,60.674 0,29.715Z" style="fill:none;fill-rule:nonzero;stroke:white;stroke-width:1px;"/>
                        </g>
                        <g transform="matrix(1,0,0,1,1575.26,781.105)">
                            <path d="M0,-85.025C211.892,-299.439 428.258,-284.842 428.258,-284.842L428.258,-78.2C428.258,-78.2 166.486,-51.214 -121.081,132.421C-121.081,132.421 -252.253,214.414 -290.091,214.414L-413.694,214.414" style="fill:none;fill-rule:nonzero;stroke:white;stroke-width:1px;"/>
                        </g>
                        <g transform="matrix(1,0,0,1,864.92,-621.064)">
                            <path d="M0,414.08C-51.759,393.253 -106.989,369.445 -154.999,349.387C-154.999,349.387 -176.558,341.498 -176.561,341.497C-195.689,334.498 -215.796,328.26 -235.982,325.249C-246.468,323.684 -264.276,318.87 -268.606,332.718C-272.764,346.017 -257.787,360.148 -249.999,369.023C-232.744,388.686 -212.493,405.808 -191.993,421.964C-167.103,441.579 -141.021,459.731 -114.052,476.372C-88.995,491.832 -63.039,506.279 -35.762,517.465C-34.692,517.904 -33.62,518.337 -32.545,518.765C-25.944,521.387 -19.175,524.018 -12.274,526.651C-8.599,528.053 25.126,540.413 32.305,542.913C33.803,543.434 76.543,557.604 76.788,557.681C85.879,560.555 95.135,563.392 104.544,566.181C104.639,566.209 138.754,575.91 141.23,576.58C142.052,576.802 163.381,582.446 173.435,584.942C173.579,584.978 173.721,585.015 173.866,585.051C309.805,618.758 470.548,639.236 637.056,620.028C637.185,620.013 637.313,620 637.441,619.985C641.606,619.503 645.774,618.997 649.946,618.464C924.817,561.859 1121.36,430.359 1121.36,430.359L1156.88,441.483C1156.88,441.483 1121.38,-90.294 1121.36,-90.426C1120.28,-96.838 1115.3,-104.077 1112.23,-109.613C1103.48,-125.335 1092.67,-139.922 1080.33,-153.004C1062.78,-171.616 1042.01,-187.096 1019.19,-198.654C989.66,-213.611 953.729,-225.156 920.361,-223.026C894.4,-221.369 858.36,-213.271 848.702,-185.324C840.108,-160.456 849.096,-129.09 873.136,-116.787C879.422,-113.57 886.727,-111.237 893.853,-111.237C944.034,-113.06 931.718,-167.871 931.691,-167.993C932.741,-163.334 927.26,-153.889 924.776,-150.085C921.304,-144.77 916.214,-140.108 909.632,-139.506C895.671,-138.229 886.919,-154.054 895.325,-165.261C905.415,-178.714 970.16,-175.351 1018.09,-114.81C1066.02,-54.27 1079.26,206.602 787.907,320.116C496.555,433.629 417.707,331.666 417.095,320.116C416.484,308.565 454.597,302.755 432.23,276.602C382.84,218.849 272.674,239.958 208.987,287.953C114.352,371.894 226.014,426.061 180.608,462.008C163.606,475.467 86.67,448.954 0,414.08" style="fill:none;fill-rule:nonzero;stroke:white;stroke-width:1px;"/>
                        </g>
                    </g>
                </g>
            </g>
        </g>
    </g>
</svg>
