<svg xmlns="http://www.w3.org/2000/svg" fill-rule="evenodd" stroke-miterlimit="10" clip-rule="evenodd" viewBox="0 0 375 740">
  <path fill="none" d="M0 0h375v740H0z"/>
  <path fill="#fff" fill-rule="nonzero" d="M45.31664233 460.19014077l-1.7735649 1.10530389-.37450025-.35777062 5.18789586-3.24685017.47698885.45576096-2.97496706 5.4275187-.40866312-.39043406 1.05722784-1.85500798-1.19041722-1.13852072zm1.41594449.76713732c.79903711-1.44946172 1.2798464-2.29333572 1.50461003-2.66407349-.3934329.2750105-1.37786893.89647408-2.5604307 1.65532488l1.05582067 1.0087486zm2.69856893 6.03250562l4.09932161-4.2881442.51038807.48907003c-1.69732365 4.49923497-1.88492557 5.03628881-2.01181688 5.30594726.55148823-.64565812 1.16968475-1.29140639 1.82066274-1.9727268l1.7560716-1.83692913.37450026.35777062-4.1312214 4.32166143-.47698885-.45576095c1.75815229-4.76803964 1.97991707-5.27243003 2.07479056-5.50716197-.48680697.57656875-1.16968475 1.2914064-1.91853506 2.07380612l-1.75683526 1.83757475-.34033739-.32510716zm8.10817163 3.713907l-1.53140024-1.46439154-1.7241718 1.8034119 1.6332432 1.56161822-.32510718.3403374-2.00774345-1.91938885 4.1312214-4.32166143 2.00774346 1.91938884-.32510717.34033739-1.6332432-1.56161823-1.46439154 1.53140024 1.53216389 1.4637459-.29320737.30682016zm.22897671 4.25609209l3.21355162-5.13292994.40866312.39043406c-1.31850752 2.06019333-2.50874235 3.9189638-2.928723 4.49403313.55598648-.44517919 3.21299823-2.20311068 4.4594776-3.03040524l.37450026.35777061c-.77098994 1.2162292-2.43956284 4.05035336-2.82773383 4.52519716.78536638-.6168473 3.21299824-2.20311068 4.39329693-3.02814217l.40866312.39043406-5.11795269 3.3775941-.40866312-.39043407c.77163558-1.21546555 2.37658915-3.84913865 2.79507039-4.4910343-.72003949.54852158-3.21299824 2.2031107-4.35998786 2.99474297l-.44282598-.42309751.03266344-.03416286zm8.44487988 7.16654931l2.13657706-5.67725447.47540627.30519696c-.90149256 2.27464082-1.7161022 4.32523384-2.0184323 4.9697608.4605443-.54257943 2.73441287-2.77537686 3.80082397-3.82494938l.4356618.27987148c-.52605291 1.34175978-1.62295793 4.44160036-1.9137359 4.98207656.65288723-.75495708 2.73441286-2.77537685 3.73510839-3.81129404l.47540626.30519696-4.37995601 4.29231603-.47540627-.30519696c.52528927-1.34111414 1.59973569-4.23208956 1.88841044-4.9423321-.60235431.67687745-2.73441286 2.77537686-3.70978292 3.77154958l-.47540627-.30519696.02532548-.03974446zm9.945133 2.80904744c-1.06818935 1.66392193-2.07514624 2.3594248-3.18417298 1.64708335-1.06928227-.68701598-.88013116-1.85263005.2140293-3.5555328 1.068835-1.66315828 2.10398423-2.22928492 3.13352204-1.56759442 1.06928227.68701597.93078211 1.77314112-.16337835 3.47604387zm-2.49473741-1.60325249c-.96688746 1.50494408-1.0938355 2.48701847-.42047057 2.91948844.71234575.45844107 1.48733325-.0514189 2.45422071-1.55636297 1.01818404-1.58366936 1.04318455-2.40752955.36981962-2.83999951-.67336494-.43246997-1.46200778.01167443-2.40356976 1.47687404zm4.72995873 3.2635353l-1.52663043 2.37626768-.4356618-.27987149 3.20585934-4.99023849 1.26724094.81428898c.8323428.53377187.96204398 1.28969525.45295196 2.08152992-.48312091.75285387-1.04318884.84006174-1.47533814.7300746.41243955.48938227.25180145 1.0010205-.18066851 1.67438543l-.127273.19795867c-.28063514.43630743-.50985568.7924803-.6082907 1.12057885l-.4356618-.27987148c.07310954-.28835409.35374468-.72466152.63361617-1.16032332l.07662205-.11846974c.45779544-.7131094.5533636-1.21032864-.19872662-1.69409518l-.67336493-.43246997.02532547-.03974446zm.2285749-.35693653l.7534995.48388457c.67260128.4331156 1.1642048.18903308 1.54602381-.40484292.33116807-.51438708.3487746-1.06354853-.2854915-1.47145667l-.79259833-.5084464-1.22143347 1.90086142zm5.45109916.31246003l.4356618.27987149-2.97740246 4.63471124 1.82213614 1.1701369-.25454601.39591733-2.25779794-1.45000838 3.23194847-5.03062858zm3.88109373 2.49492717l1.10902674.71234145c1.1487712.73766693 1.19381072 1.88599514.17627231 3.47042815-1.09416046 1.70290274-2.18060628 2.34775466-3.48759168 1.5081402l-.98979335-.63636502 3.23183045-5.0292193-.03974447-.02532548zm-2.54162263 4.91317345l.51515073.33052244c1.0295378.6616905 1.85505824.07375088 2.79662022-1.39144873.89102906-1.38711996.90149256-2.27464081-.04855632-2.88568036l-.51515073-.33052244-2.7480639 4.2771291zm4.0112336 2.4660892l.43566181.27987148-.27987148.4356618-.4356618-.27987148.27987148-.4356618z"/>
  <clipPath id="a">
    <path d="M0 0h375v740H0z"/>
  </clipPath>
  <g clip-path="url(#a)">
    <path fill="none" stroke="#414042" d="M-197.488 40.206c42.389 198.467 320.031 146.244 436.367 335.995m776.341 180.731c-481.857-421.977-604.112-95.78-844.32-91.609m561.639 279.544C292.011 182.719 468.517 474.033 209.33 501.679m828.83-49.109l-3.24-2.518c-105.848-84.657-254.161-171.473-419.372-184.087-165.21-12.614-320.276 71.095-474.373 170.027M42.673 777.393c-136.333 5.919-73.304-181.625-276.352-268.527m408.024 284.095c-84.763.698 54.57-215.044-233.831-309.249m180.31 293.681C14.956 788.907 59.94 472.215-207.669 475.555m181.368-330.532c246.158 24.631 209.274 176.506 393.438 167.009M80.148-36.164c270.924 15.271 291.613 273.222 406.675 201.063M247.73 535.952c128.073-57.747 81.748 38.935 216.179 11.265m-151.961 43.201c53.677-9.742 130.715-12.996 226.554 4.103m-567.843-194.21c-4.368 93.52 360.207 283.036 314.343 364.249m81.172 24.154c31.21-101.243-349.34-490.121-510.67-451.136m-72.654-223.315c165.141 48.172 365.939 429.438 782.793 642.173"/>
  </g>
</svg>
