<?xml version="1.0" encoding="UTF-8" standalone="no"?>
<!DOCTYPE svg PUBLIC "-//W3C//DTD SVG 1.1//EN" "http://www.w3.org/Graphics/SVG/1.1/DTD/svg11.dtd">
<svg width="100%" height="100%" viewBox="0 0 375 950" version="1.1" xmlns="http://www.w3.org/2000/svg" xmlns:xlink="http://www.w3.org/1999/xlink" xml:space="preserve" xmlns:serif="http://www.serif.com/" style="fill-rule:evenodd;clip-rule:evenodd;stroke-miterlimit:10;">
    <g transform="matrix(1,0,0,1,-1620,0)">
        <g id="Page-2" serif:id="Page 2" transform="matrix(1,0,0,1,1620,0)">
            <rect x="0" y="0" width="375" height="950" style="fill:none;"/>
            <g id="Layer-1" serif:id="Layer 1">
                <g opacity="0.37">
                    <g>
                        <clipPath id="_clip1">
                            <rect x="0" y="0" width="375" height="937.382" clip-rule="nonzero"/>
                        </clipPath>
                        <g clip-path="url(#_clip1)">
                            <g transform="matrix(1,0,0,1,1204.04,1029.46)">
                                <path d="M0,-795.8C-234.493,-620.426 -515.061,-646.985 -622.141,-665.956C-729.22,-684.926 -856.534,-726.662 -871.71,-687.878C-886.887,-649.093 -829.554,-495.641 -662.611,-393.576C-495.669,-291.512 -488.924,-204.67 -488.924,-204.67C-482.179,-21.62 -685.719,0 -685.719,0L-551.316,-15.545C-551.316,-15.545 -416.413,-72.383 -274.766,-215.718C-133.117,-359.052 11.521,-349.294 11.521,-349.294L0,-795.8Z" style="fill:none;fill-rule:nonzero;stroke:white;stroke-width:1px;"/>
                            </g>
                            <g transform="matrix(1,0,0,1,399.086,30.2718)">
                                <path d="M0,21.714C19.904,40.496 44.223,54.202 69.172,65.09C79.747,69.706 90.537,73.823 101.453,77.557C202.619,69.771 267.618,65.829 267.633,65.828C267.625,65.829 267.617,65.831 267.609,65.832C297.472,61.689 326.66,67.272 344.278,87.874C359.23,105.357 333.752,109.241 334.161,116.963C334.569,124.684 387.279,192.845 582.045,116.963C706.058,68.646 747.507,-19.602 752.994,-87.793C752.994,-87.793 608.604,84.08 386.014,61.315C386.014,61.315 270.925,55.724 122.954,-42.025C122.954,-42.025 70.718,-81.828 115.365,-12.201C157.271,53.152 -32.005,-50.174 33.989,-171.131C15.552,-161.856 -1.816,-149.853 -14.808,-133.691C-27.752,-117.588 -34.791,-97.537 -37.422,-77.208C-39.602,-60.361 -38.249,-43.126 -32.694,-27.029C-26.215,-8.248 -14.372,8.153 0,21.714Z" style="fill:none;fill-rule:nonzero;stroke:white;stroke-width:1px;"/>
                            </g>
                            <g transform="matrix(1,0,0,1,81.9189,873.18)">
                                <path d="M0,140.731C0,140.731 -112.56,0 -313.648,2.53C-514.738,5.059 -571.65,140.731 -571.65,140.731L0,140.731Z" style="fill:none;fill-rule:nonzero;stroke:white;stroke-width:1px;"/>
                            </g>
                            <g transform="matrix(1,0,0,1,102.403,382.54)">
                                <path d="M0,-180.005C-1.334,-182.097 -4.092,-182.701 -6.568,-182.866C-19.451,-183.729 -31.764,-177.807 -42.929,-171.32C-66.323,-157.726 -87.745,-141.034 -110.124,-125.825C-183.598,-75.893 -268.641,-41.803 -357.058,-33.208C-359.49,-32.972 -361.946,-32.775 -364.378,-32.94L-321.981,3.724C-200.939,-15.748 -91.649,-83.874 -3.801,-169.524C-0.907,-172.345 2.174,-176.598 0,-180.005Z" style="fill:none;fill-rule:nonzero;stroke:white;stroke-width:1px;"/>
                            </g>
                            <g transform="matrix(1,0,0,1,-254.654,249.051)">
                                <path d="M0,100.281C88.417,91.686 173.46,57.596 246.934,7.664C269.312,-7.545 290.734,-24.237 314.129,-37.831C325.294,-44.318 337.606,-50.24 350.489,-49.377C352.966,-49.212 355.724,-48.608 357.058,-46.516C359.231,-43.109 356.15,-38.856 353.257,-36.035C265.408,49.615 156.118,117.741 35.076,137.214L69.603,167.073C70.479,166.87 71.349,166.614 72.199,166.34C155.568,139.502 230.815,91.297 297.573,34.605C325.164,11.175 351.772,-14.137 370.995,-44.809C374.42,-50.273 377.52,-57.677 373.493,-62.714C370.741,-66.156 365.782,-66.792 361.379,-66.616C346.013,-66.002 331.736,-58.856 318.306,-51.364C262.75,-20.371 211.82,19.302 153.136,43.862C124.26,55.946 93.926,64.161 63.281,70.324C47.672,73.463 31.962,76.074 16.217,78.426C8.123,79.635 0.02,80.771 -8.088,81.874C-13.185,82.568 -20.975,82.398 -26.371,84.073L-7.32,100.549C-4.889,100.715 -2.433,100.517 0,100.281Z" style="fill:none;fill-rule:nonzero;stroke:white;stroke-width:1px;"/>
                            </g>
                            <g transform="matrix(1,0,0,1,-77.2393,574.841)">
                                <path d="M0,-65.729C119.746,21.245 269.149,38.205 298.277,41.04C339.31,45.034 403.951,21.928 361.463,-34.529C322.175,-86.735 231.95,-64.634 129.648,-68.426C27.354,-72.217 -52.352,-110.757 -52.362,-110.763L-19.166,-82.054C-12.718,-76.483 -6.343,-71.07 0,-65.729Z" style="fill:none;fill-rule:nonzero;stroke:white;stroke-width:1px;"/>
                            </g>
                            <g transform="matrix(0.0422732,-0.999106,-0.999106,-0.0422732,148.145,419.092)">
                                <path d="M-135.412,-153.443C-90.346,-123.322 -110.972,-31.255 -134.04,35.282C-156.248,99.331 -136.89,152.799 -135.412,156.706C-184.657,50.423 -192.202,-56.921 -193.531,-81.161C-195.489,-116.912 -176.271,-169.572 -135.412,-153.443Z" style="fill:none;fill-rule:nonzero;stroke:white;stroke-width:1px;"/>
                            </g>
                            <g transform="matrix(1,0,0,1,409.48,602.939)">
                                <path d="M0,42.525C4.911,1.432 -25.789,-53.659 -64.791,-110.136L-64.811,-110.152C-44.885,-30.19 -24.571,13.381 -118.743,38.798C-221.627,66.567 -394.442,-21.523 -395.94,-22.288C-156.497,152.677 -12.151,144.213 0,42.525Z" style="fill:none;fill-rule:nonzero;stroke:white;stroke-width:1px;"/>
                            </g>
                            <g transform="matrix(1,0,0,1,1202.54,580.68)">
                                <path d="M0,-358.764C0.483,-359.078 0.851,-359.319 1.102,-359.484C0.853,-359.32 0.482,-359.077 0,-358.764ZM1.165,-359.526C1.254,-359.585 1.331,-359.635 1.383,-359.67C1.33,-359.635 1.258,-359.587 1.165,-359.526ZM-594.501,-227.298C-909.414,-282.945 -944.827,-380.328 -987.827,-334.798C-1028.74,-299.611 -929.348,-191.412 -857.852,-87.878L-857.871,-87.893C-837.945,-7.931 -817.632,35.64 -911.804,61.057C-1013.83,88.594 -1184.6,2.211 -1188.9,0.023C-1223.62,-25.339 -1260.33,-54.527 -1298.95,-87.893L-1524.49,-282.945C-1524.49,-282.945 -1425.42,-272.827 -1317.92,-301.915C-1210.42,-331.004 -1082.68,-447.358 -973.915,-447.358C-955.87,-447.358 -935.467,-443.141 -913.687,-436.523C-913.55,-436.482 -913.412,-436.439 -913.274,-436.397L-866.147,-419.152C-894.017,-428.887 -923.641,-436.273 -927.542,-425.436C-935.13,-404.357 -834.074,-326.159 -769.874,-300.651C-765.462,-298.898 -760.937,-297.139 -756.323,-295.379C-753.866,-294.441 -731.321,-286.179 -726.522,-284.508C-725.521,-284.16 -696.95,-274.687 -696.786,-274.635C-690.709,-272.714 -684.521,-270.818 -678.231,-268.953C-678.168,-268.934 -655.362,-262.45 -653.707,-262.002C-653.158,-261.853 -638.899,-258.08 -632.18,-256.412C-632.083,-256.388 -631.987,-256.363 -631.891,-256.339C-541.017,-233.806 -433.562,-220.117 -322.252,-232.957C-322.166,-232.967 -322.081,-232.976 -321.995,-232.986C-319.211,-233.308 -316.425,-233.647 -313.636,-234.002C-141.43,-269.466 -15.214,-348.901 -0.036,-358.741C-22.633,-344.087 -293.064,-174.032 -594.501,-227.298Z" style="fill:none;fill-rule:nonzero;stroke:white;stroke-width:1px;"/>
                            </g>
                            <g transform="matrix(1,0,0,1,420.058,86.761)">
                                <path d="M0,786.737C-31.443,748.562 -82.811,734.799 -130.125,720.399C-250.563,683.747 -365.711,629.754 -470.912,560.603C-616.692,464.78 -741.762,341.301 -874.627,228.249C-1007.49,115.197 -1152.71,10.121 -1320.24,-38.534C-1389.49,-58.645 -1461.5,-68.502 -1533.55,-69.335C-1652.64,-70.71 -1771.39,-47.825 -1883.48,-8.25C-2003.44,34.11 -2215.58,170.416 -2215.58,170.416L-2193.85,181.377C-1625.52,-123.085 -1249.58,99.679 -1249.58,99.679C-1088.92,184.185 -647.572,563.11 -484.002,654.467C-295.139,764.076 -74.234,791.899 -30.392,833.214C-2.188,859.79 -10.27,884.967 -17.38,899.102C-17.336,901.848 -18.76,905.296 -22.145,909.822C25.441,896.347 31.443,824.912 0,786.737Z" style="fill:none;fill-rule:nonzero;stroke:white;stroke-width:1px;"/>
                            </g>
                            <g transform="matrix(1,0,0,1,203.332,931.727)">
                                <path d="M0,19.866C-83.951,-0.072 -240.503,-63.788 -291.383,-84.908C-272.466,-50.224 -264.325,-21.29 -264.325,-21.29L-264.324,-21.276C-171.433,19.674 -121.413,82.184 -121.413,82.184L-160.718,82.184L-128.245,104.774L143.267,80.092C132.382,71.812 87.141,40.561 0,19.866Z" style="fill:none;fill-rule:nonzero;stroke:white;stroke-width:1px;"/>
                            </g>
                            <g transform="matrix(1,0,0,1,350.807,161.528)">
                                <path d="M0,5.274C-4.649,3.5 -9.505,1.714 -14.413,0L0,5.274Z" style="fill:none;fill-rule:nonzero;stroke:white;stroke-width:1px;"/>
                            </g>
                            <g transform="matrix(1,0,0,1,288.961,144.267)">
                                <path d="M0,-0.096L-0.107,-0.111C0.03,-0.069 0.168,-0.027 0.306,0.015L0,-0.096Z" style="fill:none;fill-rule:nonzero;stroke:white;stroke-width:1px;"/>
                            </g>
                            <g transform="matrix(1,0,0,1,350.807,144.282)">
                                <path d="M0,22.52C-21.178,13.906 -41.914,5.987 -61.54,0L-14.413,17.246C-9.505,18.96 -4.649,20.746 0,22.52Z" style="fill:none;fill-rule:nonzero;stroke:white;stroke-width:1px;"/>
                            </g>
                            <g transform="matrix(1,0,0,1,454.423,-66.7602)">
                                <path d="M0,276.809C-34.601,262.886 -71.521,246.971 -103.616,233.562C-103.616,233.562 -118.027,228.289 -118.029,228.288C-130.816,223.609 -144.258,219.439 -157.752,217.426C-164.762,216.38 -176.666,213.162 -179.561,222.419C-182.341,231.309 -172.328,240.756 -167.122,246.689C-155.587,259.833 -142.05,271.279 -128.346,282.079C-111.707,295.191 -94.271,307.327 -76.243,318.45C-59.492,328.786 -42.142,338.443 -23.907,345.921C-23.191,346.214 -22.475,346.504 -21.756,346.789C-17.344,348.542 -12.818,350.302 -8.205,352.061C-5.748,352.999 16.797,361.262 21.596,362.932C22.597,363.281 51.168,372.753 51.332,372.805C57.409,374.726 63.597,376.622 69.887,378.487C69.95,378.506 92.756,384.99 94.411,385.438C94.96,385.587 109.219,389.36 115.938,391.028C116.035,391.053 116.131,391.077 116.228,391.101C207.102,413.634 314.557,427.324 425.866,414.483C425.952,414.473 426.037,414.464 426.123,414.455C428.907,414.132 431.693,413.793 434.482,413.438C618.23,375.598 749.62,287.691 749.62,287.691L773.366,295.127C773.366,295.127 749.635,-60.36 749.62,-60.448C748.895,-64.735 745.569,-69.574 743.512,-73.275C737.667,-83.785 730.437,-93.537 722.188,-102.282C710.455,-114.723 696.574,-125.072 681.318,-132.798C661.578,-142.797 637.559,-150.515 615.252,-149.091C597.897,-147.983 573.805,-142.569 567.349,-123.887C561.604,-107.263 567.613,-86.295 583.684,-78.071C587.886,-75.92 592.769,-74.36 597.532,-74.36C631.077,-75.58 622.845,-112.22 622.826,-112.302C623.527,-109.187 619.864,-102.873 618.203,-100.33C615.883,-96.777 612.48,-93.661 608.08,-93.258C598.747,-92.405 592.896,-102.983 598.516,-110.475C605.261,-119.469 648.542,-117.22 680.582,-76.749C712.621,-36.278 721.474,138.112 526.708,213.995C331.942,289.877 279.232,221.716 278.824,213.995C278.415,206.273 303.894,202.389 288.941,184.906C255.925,146.298 182.28,160.41 139.705,192.494C76.443,248.608 151.088,284.818 120.734,308.848C109.369,317.846 57.938,300.122 0,276.809" style="fill:none;fill-rule:nonzero;stroke:white;stroke-width:1px;"/>
                            </g>
                            <g transform="matrix(1,0,0,1,-117.062,54.3117)">
                                <path d="M0,83.824C-94.432,97.912 -147.55,76.481 -147.55,76.481C-147.55,76.481 -281.609,44.442 -255.473,-33.127C-222.779,-130.153 -3.136,-146.109 55.345,-132.618C55.345,-132.618 -22.765,-150.324 -87.687,-142.736C-398.807,-107.324 -358.336,119.481 -358.336,119.481L-359.271,120.219C-278.488,181.595 -204.884,243.424 -204.884,243.424C-204.884,243.424 -105.814,253.541 1.687,224.452C109.187,195.364 236.923,79.011 345.688,79.011C363.733,79.011 384.137,83.227 405.916,89.845C406.054,89.886 406.191,89.929 406.329,89.971L453.456,107.216L467.869,112.491C499.964,125.899 536.885,141.815 571.485,155.737C629.423,179.05 680.854,196.774 692.22,187.776C722.573,163.746 647.929,127.536 711.19,71.422C731.053,56.455 757.675,45.405 783.781,41.788C783.767,41.789 718.768,45.731 617.602,53.517C615.352,53.69 613.033,53.857 610.683,54.019C610.318,54.044 609.956,54.069 609.589,54.094C505.977,61.119 310.285,55.831 279.014,-86.417C273.831,-109.989 302.759,-138.378 344.876,-61.214C344.876,-61.214 358.366,-102.19 350.502,-139.663C308.863,-132.994 259.928,-140.697 206.57,-169.717" style="fill:none;fill-rule:nonzero;stroke:white;stroke-width:1px;"/>
                            </g>
                            <g transform="matrix(1,0,0,1,835.966,-5.0955)">
                                <path d="M0,-331.09C-41.969,-364.832 -122.685,-384.022 -232.703,-348.075C-374.633,-301.703 -519.212,-153.575 -637.252,-156.948C-669.056,-157.857 -754.007,-182.207 -727.87,-273.828C-714.171,-319.829 -664.331,-339.061 -565.183,-273.879C-467.795,-209.855 -444.613,-284.84 -444.613,-284.84C-444.613,-284.84 -439.654,-311.46 -453.045,-313.507C-453.045,-313.507 -452.623,-360.301 -485.928,-356.928C-519.231,-353.556 -516.416,-314.557 -491.307,-310.469L-491.156,-309.921C-489.926,-305.164 -490.172,-299.774 -493.937,-294.536C-500.015,-286.082 -525.134,-282.31 -558.437,-305.497C-591.742,-328.683 -708.604,-448.504 -789.881,-349.34C-831.762,-298.241 -842.577,-162.584 -746.458,-110.309C-656.14,-61.188 -578.477,-73.114 -527.46,-112.508C-524.185,-115.037 -521.019,-117.68 -517.967,-120.427C-603.572,25.606 -484.469,108.807 -483.373,109.569C-429.29,117.414 -374.739,115.951 -335.427,112.925C-346.343,109.191 -357.133,105.073 -367.708,100.458C-392.657,89.57 -416.976,75.863 -436.88,57.081C-451.252,43.52 -463.095,27.119 -469.574,8.339C-475.129,-7.758 -476.481,-24.993 -474.302,-41.841C-471.671,-62.17 -464.632,-82.221 -451.687,-98.324C-436.967,-116.638 -416.625,-129.611 -395.476,-139.328C-380.462,-146.226 -364.739,-150.84 -349.338,-156.682C-334.616,-162.266 -316.119,-163.915 -302.944,-153.666C-295.856,-148.153 -291.123,-138.958 -294.021,-129.979C-298.183,-117.094 -314.48,-112.549 -323.202,-122.114C-332.457,-132.264 -324.337,-141.132 -321.897,-144.687C-338.847,-144.777 -377.403,-117.847 -344.661,-84.402C-324.572,-63.882 -285.491,-70.393 -265.793,-92.248C-247.115,-112.972 -251.656,-149.008 -266.429,-170.453C-278.681,-188.237 -318.704,-223.852 -288.913,-259.826C-259.122,-295.8 -210.782,-292.99 -188.86,-286.245C-188.86,-286.245 -207.547,-289.834 -206.847,-271.631C-206.147,-253.427 -190.546,-246.898 -178.181,-248.023C-165.814,-249.147 -139.733,-258.582 -143.893,-290.391C-144.834,-297.591 -149.62,-303.227 -156.39,-307.636L-156.259,-307.605C-156.191,-307.644 -156.125,-307.685 -156.058,-307.723C-136.252,-319.161 -111.016,-323.031 -88.668,-319.033C-49.337,-311.997 7.071,-268.898 -19.451,-224.293C-29.36,-207.628 -41.505,-207.513 -50.279,-212.487C-60.555,-218.312 -61.166,-236.026 -48.744,-241.002C-36.322,-245.978 -26.544,-228.371 -26.544,-228.371C-26.544,-228.371 -17.059,-248.59 -35.729,-256.695C-49.732,-262.774 -79.323,-260.259 -84.436,-228.697C-89.548,-197.135 -70.014,-179.196 -45.875,-175.334C41.639,-161.33 57.939,-284.508 0,-331.09Z" style="fill:none;fill-rule:nonzero;stroke:white;stroke-width:1px;"/>
                            </g>
                        </g>
                    </g>
                </g>
            </g>
            <g opacity="0.5">
                <text x="295.396px" y="38.239px" style="font-family:'LucidaGrande', 'Lucida Grande', sans-serif;font-weight:500;font-size:11px;fill:white;">C<tspan x="304.231px 314px 323.349px 331.528px 340.341px 349.175px " y="38.239px 38.239px 38.239px 38.239px 38.239px 38.239px ">ONTACT</tspan></text>
            </g>
            <g transform="matrix(1,0,0,1,96.4473,53.5818)">
                <path d="M0,-22.804L0.97,-22.804C3.25,-22.804 5.134,-22.308 6.621,-21.317C8.002,-20.396 8.823,-19.1 8.823,-16.979C8.823,-14.858 7.931,-13.514 6.621,-12.64C5.134,-11.649 3.25,-11.154 0.97,-11.154L0,-11.154L0.003,-11.447C2.369,-12.398 3.73,-14.111 3.73,-16.979C3.73,-19.848 2.368,-21.555 0.001,-22.506L0,-22.804ZM-0.279,0.331L-9.202,0.331L-9.202,0.265C-7.979,-0.231 -7.385,-1.19 -7.385,-2.776L-7.385,-22.804L-2.097,-22.804L-2.097,-2.776C-2.097,-1.223 -1.469,-0.166 -0.279,0.265L-0.279,0.331ZM7.831,-4.068L5.348,-10.203L-0.01,-10.203L2.561,-3.656C2.858,-2.961 3.041,-2.348 3.041,-1.819C3.041,-0.761 2.446,-0.132 1.156,0.265L1.156,0.331L10.883,0.331L10.883,0.265C9.956,0.033 8.89,-1.521 7.831,-4.068M-16.943,-22.505C-14.644,-21.24 -13.495,-19.082 -12.408,-16.194L-12.346,-16.194L-12.346,-22.804L-16.943,-22.804L-16.943,-22.505ZM-26.426,-22.505C-28.726,-21.24 -29.875,-19.082 -30.961,-16.194L-31.023,-16.194L-31.023,-22.804L-26.426,-22.804L-26.426,-22.505ZM-19.041,-2.776L-19.041,-22.804L-24.329,-22.804L-24.329,-2.776C-24.329,-1.19 -24.924,-0.231 -26.146,0.265L-26.146,0.331L-17.223,0.331L-17.223,0.265C-18.413,-0.165 -19.041,-1.223 -19.041,-2.776M-70.692,0.331L-76.447,0.331L-73.569,-5.625L-70.692,0.331ZM-57.396,-4.068L-65.301,-23.582L-65.367,-23.582L-67.98,-17.066L-62.721,-3.671C-62.424,-2.976 -62.291,-2.348 -62.291,-1.819C-62.291,-0.761 -62.887,-0.133 -64.177,0.265L-64.177,0.331L-54.287,0.331L-54.287,0.265C-55.214,0.033 -56.338,-1.521 -57.396,-4.068M-41.602,-23.165L-41.602,-23.25C-39.982,-23.151 -38.08,-22.853 -35.998,-22.324L-35.998,-16.177L-36.064,-16.177C-37.419,-20.01 -39.321,-22.206 -41.602,-23.165M-43.688,-23.079C-44.102,-22.994 -44.433,-22.782 -44.599,-22.679C-45.936,-21.847 -46.938,-20.447 -46.938,-18.854C-46.938,-17.763 -46.607,-16.87 -45.913,-16.21C-45.219,-15.549 -43.996,-14.888 -42.245,-14.194L-40.625,-13.566C-36.263,-11.88 -34.445,-10.062 -34.445,-6.757C-34.445,-2.759 -37.669,0.315 -41.602,0.778L-41.602,0.468C-40.71,0.205 -39.865,-0.082 -39.171,-0.875C-38.443,-1.7 -38.08,-2.659 -38.08,-3.816C-38.245,-6.526 -39.634,-7.286 -43.666,-9.005L-45.186,-9.633C-49.053,-11.219 -50.606,-13.07 -50.606,-16.21C-50.606,-20.388 -48.083,-22.637 -44.476,-23.186C-44.354,-23.204 -43.929,-23.26 -43.688,-23.25L-43.688,-23.079ZM-51.758,-1.28C-49.224,-0.226 -46.381,0.664 -43.689,0.778L-43.689,0.465C-44.898,0.109 -48.945,-3.902 -49.199,-7.407L-49.303,-7.407L-51.758,-1.28ZM34.901,0.029C38.596,-0.604 41.337,-3.955 41.337,-10.577C41.337,-17.077 38.71,-21.339 34.901,-22.505L34.901,-22.806L35.655,-22.806C42.331,-22.806 46.661,-18.41 46.661,-11.304C46.76,-4.298 41.67,0.428 35.655,0.329L34.901,0.329L34.901,0.029ZM32.809,-22.806L27.521,-22.806L27.521,-2.778C27.521,-1.191 26.926,-0.233 25.703,0.263L25.703,0.329L32.809,0.329L32.809,-22.806ZM21.706,0.329L14.601,0.329L14.601,0.263C15.823,-0.233 16.418,-1.191 16.418,-2.778L16.418,-22.805L21.706,-22.805L21.706,0.329Z" style="fill:white;fill-rule:nonzero;"/>
            </g>
            <g transform="matrix(1,0,0,1,148.962,53.9125)">
                <path d="M0,-5.956L-2.878,0L2.877,0L0,-5.956Z" style="fill:white;fill-rule:nonzero;"/>
            </g>
            <g transform="matrix(1,0,0,1,20,64.0862)">
                <path d="M0,6.157L3.495,6.157L3.495,5.477L0.68,5.477L0.68,3.347L3.347,3.347L3.347,2.667L0.68,2.667L0.68,0.679L3.495,0.679L3.495,0L0,0L0,6.157Z" style="fill:white;fill-rule:nonzero;"/>
            </g>
            <g transform="matrix(1,0,0,1,33.2715,65.5266)">
                <path d="M0,3.386L-3.65,-1.383L-3.696,-1.441L-4.327,-1.441L-4.327,4.717L-3.647,4.717L-3.647,-0.253L0.202,4.769L0.247,4.827L0.679,4.827L0.679,-1.441L0,-1.441L0,3.386Z" style="fill:white;fill-rule:nonzero;"/>
            </g>
            <g transform="matrix(1,0,0,1,39.3994,69.5636)">
                <path d="M0,-4.798L2.08,-4.798L2.08,0.68L2.76,0.68L2.76,-4.798L4.839,-4.798L4.839,-5.478L0,-5.478L0,-4.798Z" style="fill:white;fill-rule:nonzero;"/>
            </g>
            <g transform="matrix(1,0,0,1,49.6885,64.0862)">
                <path d="M0,6.157L3.495,6.157L3.495,5.477L0.679,5.477L0.679,3.347L3.347,3.347L3.347,2.667L0.679,2.667L0.679,0.679L3.495,0.679L3.495,0L0,0L0,6.157Z" style="fill:white;fill-rule:nonzero;"/>
            </g>
            <g transform="matrix(1,0,0,1,68.2715,69.5636)">
                <path d="M0,-4.798L2.079,-4.798L2.079,0.68L2.759,0.68L2.759,-4.798L4.839,-4.798L4.839,-5.478L0,-5.478L0,-4.798Z" style="fill:white;fill-rule:nonzero;"/>
            </g>
            <g transform="matrix(1,0,0,1,81.6426,66.432)">
                <path d="M0,1.441L-2.163,1.441L-1.484,-0.189C-1.358,-0.488 -1.225,-0.803 -1.088,-1.121L0,1.441ZM-0.896,-2.37L-1.281,-2.37L-3.819,3.604L-3.906,3.811L-3.157,3.811L-2.45,2.12L0.282,2.12L0.996,3.811L1.748,3.811L-0.856,-2.279L-0.896,-2.37Z" style="fill:white;fill-rule:nonzero;"/>
            </g>
            <g transform="matrix(1,0,0,1,0,-815.671)">
                <rect x="88.016" y="879.757" width="0.679" height="6.157" style="fill:white;"/>
            </g>
            <g transform="matrix(1,0,0,1,108.259,65.9197)">
                <path d="M0,2.489L-2.243,-1.834L-2.912,-1.834L-2.912,4.323L-2.232,4.323L-2.232,-0.327L-0.221,3.529L-0.18,3.609L0.178,3.609L2.239,-0.33L2.239,4.323L2.92,4.323L2.92,-1.834L2.258,-1.834L0,2.489Z" style="fill:white;fill-rule:nonzero;"/>
            </g>
            <g transform="matrix(1,0,0,1,117.375,64.0862)">
                <path d="M0,6.157L3.495,6.157L3.495,5.477L0.679,5.477L0.679,3.347L3.348,3.347L3.348,2.667L0.679,2.667L0.679,0.679L3.495,0.679L3.495,0L0,0L0,6.157Z" style="fill:white;fill-rule:nonzero;"/>
            </g>
            <g transform="matrix(1,0,0,1,62.373,68.4125)">
                <path d="M0,-2.494C0,-1.741 -0.472,-1.327 -1.327,-1.327L-2.313,-1.327L-2.313,-3.647L-1.486,-3.647C-0.486,-3.647 0,-3.269 0,-2.494M0.688,-2.494C0.688,-3.659 -0.096,-4.327 -1.462,-4.327L-2.993,-4.327L-2.993,1.831L-2.313,1.831L-2.313,-0.647L-1.268,-0.647L0.495,1.831L1.339,1.833L-0.521,-0.77C0.241,-1.027 0.688,-1.659 0.688,-2.494" style="fill:white;fill-rule:nonzero;"/>
            </g>
            <g transform="matrix(1,0,0,1,99.2178,65.4176)">
                <path d="M0,3.495L-3.65,-1.274L-3.695,-1.332L-4.327,-1.332L-4.327,4.826L-3.646,4.826L-3.646,-0.144L0.118,4.768L0.164,4.827L0.68,4.827L0.68,-1.332L0,-1.332L0,3.495Z" style="fill:white;fill-rule:nonzero;"/>
            </g>
            <g transform="matrix(1,0,0,1,131.394,65.4176)">
                <path d="M0,3.495L-3.65,-1.274L-3.696,-1.332L-4.326,-1.332L-4.326,4.826L-3.647,4.826L-3.647,-0.144L0.118,4.768L0.163,4.827L0.681,4.827L0.681,-1.332L0,-1.332L0,3.495Z" style="fill:white;fill-rule:nonzero;"/>
            </g>
            <g transform="matrix(1,0,0,1,138.269,70.2429)">
                <path d="M0,-6.157L0,-5.477L2.081,-5.477L2.081,0L2.761,0L2.761,-5.477L4.84,-5.477L4.84,-6.157L0,-6.157Z" style="fill:white;fill-rule:nonzero;"/>
            </g>
        </g>
    </g>
</svg>
