<svg xmlns="http://www.w3.org/2000/svg" fill-rule="evenodd" stroke-miterlimit="10" clip-rule="evenodd" viewBox="0 0 1440 950">
  <path fill="none" d="M0 0h1440v950H0z"/>
  <path fill="#fff" fill-rule="nonzero" d="M493.26917652 691.84704977l.2826361 2.8223627-.6602937.2412146-.8421492-8.2650794.8403738-.3070004 4.82584 6.8778185-.7203204.2631432-1.6251521-2.3999602-2.1009345.767501zm1.7835237-1.2638841c-1.2858127-1.8435504-2.0245182-2.9344414-2.341929-3.4308245.0992326.6441242.2653588 2.2163366.4811013 4.1106111l1.8608277-.6797866zM504.01838702 690.91386277l-2.7630036-7.5633642.9004005-.328929c4.4623564 4.7653658 5.0037045 5.3160165 5.2553295 5.6323195-.4547415-1.058552-.8713849-2.1990593-1.3099569-3.3995933l-1.1841444-3.2414418.6602937-.2412146 2.7849322 7.6233909-.8403738.3070004c-4.7520795-4.9997135-5.2334009-5.5722928-5.4630973-5.8285691.4108843.9384986.8713849 2.1990593 1.3757427 3.5796734l1.1841444 3.2414418-.600267.219286zM513.40359312 683.26698797l-2.7012015.986787 1.1622158 3.1814151 2.8812816-1.0525728.219286.600267-3.5415753 1.2937874-2.7849322-7.6233909 3.5415753-1.2937874.219286.600267-2.8812816 1.0525728.986787 2.7012015 2.7012015-.986787.1973574.5402403zM518.72492852 685.54135577l-4.3236978-6.9932206.7203204-.2631432c1.7186256 2.8420757 3.2675815 5.4059465 3.7165639 6.2624898-.2088756-.9442577-.7557627-5.2349489-1.0153624-7.2492768l.6602937-.2412146c1.0180182 1.6692294 3.4695902 5.4001874 3.8146887 6.1586059-.2804205-1.3263465-.7557627-5.2349489-1.0534605-7.1673215l.7203204-.2631432 1.0441579 8.2593203-.7203204.2631432c-1.0180182-1.6692294-3.2618224-5.2039378-3.7927601-6.0985792.2365633 1.2062931.7557627 5.2349489 1.0315319 7.1072948l-.7803471.2850718-.0219286-.0600267zM532.37287308 681.70674975l-3.0514199-7.648841.75601973-.12860719c1.176597 3.1059112 2.23660604 5.90753145 2.52336832 6.83112158-.0347557-.9664592.2029294-5.2853267.31170567-7.31339854l.69301809-.11788993c.69952784 1.82574573 2.43632824 5.93838129 2.63865434 6.7466854-.03605765-1.35518633.20292941-5.2853267.2594213-7.23967963l.75601973-.1286072-.46595491 8.31200954-.75601973.1286072c-.69952785-1.82574574-2.26745589-5.70780925-2.62793708-6.68368376.01462312 1.22918304-.2029294 5.2853267-.27013856 7.17667799l-.75601973.12860719-.01071727-.06300165zM544.91731336 675.42401867c.45012517 2.64606906.07732311 4.26528119-1.68672293 4.56536463-1.7010444.28936618-2.57755795-1.05249898-3.03840039-3.76156968-.45012517-2.64606906.07011471-4.16071243 1.70815746-4.43936134 1.7010444-.28936618 2.55612343.92649569 3.01696586 3.6355664zm-3.96910359.67518776c.4072561 2.39406248 1.17789896 3.49463833 2.24892691 3.3124448 1.1340296-.19291078 1.44513197-1.4126785 1.03787586-3.80674099-.42869064-2.52006577-1.15646442-3.36863504-2.22749238-3.18644152-1.07102795.18219352-1.45584923 1.34967687-1.05931039 3.6807377zM548.67727944 675.04370656l.64303596 3.78009866-.6930181.11788992-1.3503755-7.93820718 2.01605262-.3429525c1.32303453-.2250626 2.1446598.41306721 2.35900513 1.6731001.20362805 1.19703124-.27764862 1.79749979-.81251162 2.08296011.86189044.11268212 1.1687853.77354841 1.35097882 1.84457637l.05358633.31500822c.11788992.69301808.21434531 1.26003288.41536946 1.67960986l-.69301808.11788993c-.19030689-.35657534-.30819681-1.04959342-.42608674-1.74261151l-.0321518-.18900493c-.19291078-1.1340296-.55209002-1.72117698-1.74912126-1.51754893l-1.07102795.18219352-.01071727-.06300164zm-.0964554-.5670148l1.19703125-.20362805c1.07102795-.18219352 1.34186516-.87651356 1.18110617-1.82153823-.13932446-.81902137-.62450698-1.38473422-1.6325333-1.21325796l-1.26003288.21434531.51442877 3.02407893zM555.13871115 669.8686483l.70089914-.05396417.57398242 7.45501806 2.93103274-.2256683.04905833.63718102-3.63193187.27963247-.62304076-8.09219909zM561.38308525 669.38787669l1.78410688-.13736332c1.847825-.14226914 2.83799509 1.06341126 3.0342284 3.61213538.2109508 2.73987843-.43592645 4.3279829-2.53862385 4.48987537l-1.59295258.12264582-.62304075-8.09219908-.0637181.00490583zm1.27488156 7.4010539l.82833534-.06377583c1.65667068-.12755165 2.06829885-1.44116037 1.88678304-3.79873019-.17170415-2.2301336-.8873785-3.20056492-2.41661297-3.08282494l-.82833534.06377583.52982993 6.88155512zM569.01996544 676.1709111l.70089914-.05396415.05396416.70089913-.70089914.05396416z"/>
  <g>
    <clipPath id="a">
      <path d="M0 0h1440v950H0z"/>
    </clipPath>
    <g clip-path="url(#a)">
      <path fill="none" stroke="#414042" d="M1157.25 966.366c-3.59-260.706-165.317-246.582-202.632-232.85l-.003-.007s-7.197 2.947-12.082 7.222c-11.187 9.789-11.653 27.426-1.773 38.584 7.904 8.926 21.354 9.578 30.042 1.457 6.649-6.215 7.402-16.603 1.918-23.744l-.337-.343c9.84 9.93 15.918 23.594 15.918 38.678 0 30.353-27.948 55.023-58.297 55.023-27.82 0-51.903-16.54-62.935-40.19-4.146-8.891-6.461-18.806-6.461-29.262 0-26.315 14.665-49.204 36.27-60.94m-15.149-81.489c-11.425 2.365-22.744 6.837-33.345 13.525-43.675 27.556-58.63 82.307-33.403 122.291 12.078 19.143 30.759 31.435 52.18 36.025m325.759 144.83s26.3-149.85-72.91-245.738c-39.85-80.391-115.5-105.419-134.268-111.607-18.769-6.189-144.755-36.097-184.831 57.937-15.119 31.653 4.869 52.985 4.869 52.985m295.04 255.483c24.77-48 28.8-120.09 27.62-148.05m-259.776 146.34c70.786-9.47 133.816-29.36 160.866-68.06 59.95-85.75 31.29-138.816 14.46-158.995m-56.457 247.545c119.637-87.22 111.707-181.995 101.927-220.555M-75.2 110.032c132.31 153.676 553.251 59.888 536.494 413.09M1494.26 693.26C901.834 174.459 633.047 551.692 361.67 616.951m1097.7 270.345C851.894 209.404 706.182 583.101 383.75 638.505m1060.23-21.49l-3.98-3.096C1309.85 509.838 1127.51 403.1 924.393 387.593 721.274 372.084 530.627 475 341.172 596.633M220.068 1016.37C231.397 905.596 48.07 915.426-119.69 686.228m479.397 280.928C174.879 614.154-1.65 693.786-141.48 540.989m413.085 432.547C261.567 819.366 38.75 819.166-87.72 645.273m941.669-537.231c-17.897-16.116-28.13-39.229-25.77-63.821 5.156-53.748 60.123-87.216 114.628-87.216 109.683 0 238.953 165.942-108.377 300.065-22.455 8.679-80.545 38.734-106.402 66.01m366.012 98.392c38.43-20.496 88.94-76.59 63.46-90.037-50.42-26.612-192.146 60.533-192.146 60.533m-76.001-267.151c-31.852-3.055-55.195-31.353-52.139-63.205 3.819-39.814 42.39-72.524 79.006-65.174 36.615 7.351 109.81 94.141-75.858 222.704 0 0-113.144 70.97-115.463 116.772-4.902 96.844 220.889-84.317 305.181-136.35 71.7-44.264 186.28-81.929 264.03-60.073 158.99 44.691 76.27 226.705-.68 300.768 0 0-31.93 29.018-50.09 44.173m168.16-42.178c-48.81 60.138-40.09 120.472-40.09 120.472M367.457-175.169c28.238 79.25 91.28 147.308 95.22 140.084 3.94-7.224 138.963-186.729 150.838-67.982 18.796 187.956 279.061 281.396 279.061 281.396M110.96-278.594c8.64 106.533 179.081 571.95 593.041 569.615m149.217-81.012S442.936 140.921 415.216-42.995M251.845-15.62C618.61 304.831 765.914 263.265 766.131 263.336m363.259 170.303c189.78-82.926 171.66-191.804 114.25-214.259-174.95-68.428-394.226 148.192-416.865 169.558M472.176 719.529c97.814-84.849 207.9 19.072 331.687-70.16M1157.25 757.37c88.32 45.403 184.98 107.936 290.19 192.626M551.129 786.493c65.995-11.978 160.71-15.978 278.539 5.045m146.166 37.148c22.798 7.38 52.936 16.77 76.656 26.06m143.08 66.05c59.01 31.46 119.85 69.2 181.82 114.264M-229.74 463.816c353.21-17.123 685.8 449.75 695.523 593.304m330.811-40.08c-288.942 5.13-602.901-716.688-1026.334-687.687m130.37-128.272c203.03 59.226 449.904 527.976 962.406 789.525M1337.8 486.163c-7.34 19.158-9.94 32.6-11.23 46.483M1403 411.555c18.96-16.495 28.49-34.893 23.23-48.76-5.33-14.083-36.54-24.655-61.97-26.02m-76.03 172.49s141.93-57.935 174.49-119.147c29.02-54.556-8.9-115.876-77.9-136.677 23.85 8.572 87.12 38.208 81.16 85.883-10.94 87.54-171.99 100.889-172.55 100.935m-712.253 20.489c-4.623-50.057 52.91-142.358 135.938-175.553 36.464-14.577 75.71-33.751 110.698-57.666"/>
    </g>
  </g>
</svg>
