<svg xmlns="http://www.w3.org/2000/svg" fill-rule="evenodd" stroke-miterlimit="10" clip-rule="evenodd" viewBox="0 0 375 740">
  <path fill="none" d="M0 0h375v740H0z"/>
  <g fill="#fff" fill-rule="nonzero">
    <path d="M184.142715 450.320432l.4347615 2.0437285-.4639987.2299154-1.283762-5.983739.5905438-.2926196 4.0886556 4.6464283-.5061804.2508168-1.3836603-1.6260794-1.4763595.731549zm1.2038835-1.0693815c-1.0902829-1.2460652-1.7192194-1.9851922-1.9916954-2.3230247.1246506.4636198.373194 1.601389.6840627 2.9709681l1.3076327-.6479434zM191.9379937 448.7694986l-2.6335764-5.3148942.6327255-.313521c3.6519996 3.1290238 4.0928235 3.4885155 4.3025953 3.6998029-.4184069-.7383692-.8155335-1.5398215-1.2335615-2.3834555l-1.1286756-2.2778118.4639987-.2299154 2.6544778 5.3570759-.5905438.2926196c-3.8830517-3.2772281-4.2816939-3.6576212-4.4705643-3.8267269.3766041.6540058.8155335 1.5398215 1.2962657 2.5100006l1.1286756 2.2778118-.421817.209014zM198.1926312 442.4128826l-1.8981765.940563 1.1077742 2.2356301 2.0247216-1.0032672.209014.421817-2.4887203 1.2331826-2.6544778-5.3570759 2.4887203-1.2331826.209014.421817-2.0247216 1.0032672.940563 1.8981765 1.8981765-.940563.1881126.3796353zM202.2725102 443.6486556l-3.7303006-4.7714578.5061804-.2508168c1.4877884 1.9422527 2.8288881 3.6944983 3.2267725 4.285421-.2291576-.6745283-.9759245-3.7720415-1.328596-5.225984l.4639987-.2299154c.8801322 1.1400426 2.9763346 3.6739758 3.2902345 4.2014365-.3123843-.9485199-.9759245-3.7720415-1.3498763-5.1629009l.5061804-.2508168 1.4312085 5.9632165-.5061804.2508168c-.8801322-1.1400426-2.8083656-3.5470518-3.2693331-4.1592548.2705815.8641565.9759245 3.7720415 1.3289749 5.1207192l-.5483621.2717182-.0209014-.0421817zM211.5946659 439.0294462l-3.7724823-4.7505564.5061804-.2508168c1.4877884 1.9422527 2.8288881 3.6944983 3.2267725 4.285421-.2291576-.6745283-.9759245-3.7720415-1.328596-5.225984l.4639987-.2299154c.8801322 1.1400426 2.9763346 3.6739758 3.2902345 4.2014365-.3123843-.9485199-.9759245-3.7720415-1.3498763-5.1629009l.5061804-.2508168 1.4312085 5.9632165-.5061804.2508168c-.8801322-1.1400426-2.8083656-3.5470518-3.2693331-4.1592548.2705815.8641565.9759245 3.7720415 1.3289749 5.1207192l-.5061804.2508168-.0209014-.0421817zM219.1151333 431.9405234c.8778588 1.7716314.9576754 2.9930062-.2234122 3.5782454-1.1389059.5643378-2.0414551-.1968273-2.9402153-2.0106404-.8778588-1.7716314-.8315092-2.9504456.265215-3.493882 1.1389059-.5643378 1.9996523.1124639 2.8984125 1.926277zm-2.6574471 1.3167882c.7942532 1.6029046 1.5710151 2.2162443 2.288104 1.8609205.7592706-.3762252.720499-1.302707-.0737542-2.9056116-.836056-1.687268-1.5292123-2.1318809-2.2463012-1.7765571-.7170889.3553238-.7414004 1.2605253.0319514 2.8212482zM221.6874592 430.8760676l1.254084 2.530902-.4639987.2299154-2.6335764-5.3148942 1.3498144-.6688448c.8858157-.4389294 1.6006312-.1626644 2.0186592.6809696.3971266.8014523.1847025 1.3270185-.1322286 1.6416762.6319677-.1029914.9884282.2983031 1.343752 1.015392l.104507.2109085c.2299154.4639987.418028.843634.6487012 1.0971031l-.4639987.2299154c-.2097718-.2112874-.4396872-.6752861-.6696026-1.1392848l-.0627042-.1265451c-.3762252-.7592706-.753966-1.097482-1.5554183-.7003554l-.7170889.3553238-.0209014-.0421817zm-.1881126-.3796353l.8014523-.3971266c.7170889-.3553238.7611651-.9025492.4476441-1.5352747-.2717182-.5483621-.7338224-.8447707-1.4087296-.5103483l-.843634.418028 1.0032672 2.0247216zM224.5683185 425.981034l.4639987-.2299154 2.4454638 4.9352589 1.9403582-.9614644.209014.421817-2.4043569 1.1913798-2.6544778-5.3570759zM228.7021251 423.9326968l1.1810876-.5852392c1.2232693-.6061406 2.2318411-.0551262 3.0678971 1.6321418.8987602 1.8138131.8942134 3.0769907-.4977827 3.7667369l-1.0545425.522535-2.6544778-5.3570759-.0421817.0209014zm2.9094625 4.7053435l.5483621-.2717182c1.0967242-.5434364 1.0161498-1.5542816.242798-3.1150045-.731549-1.4763595-1.4877884-1.9422527-2.5001492-1.4406191l-.5483621.2717182 2.2573512 4.5556236zM235.7879548 426.4635369l.4639987-.2299154.2299154.4639987-.4639987.2299154z"/>
  </g>
  <clipPath id="a">
    <path d="M0 0h375v740H0z"/>
  </clipPath>
  <g clip-path="url(#a)">
    <path fill="none" stroke="#414042" d="M-197.488 40.206c107.613 124.996 297.658 161.24 436.367 335.995m829.041 187.014C586.055 141.238 382.472 369.346 170.9 465.323m1099.17 338.78C719.377 258.779 457.74 373.114 209.33 501.679m828.83-49.109l-3.24-2.518c-105.848-84.657-254.161-171.473-419.372-184.087-165.21-12.614-320.276 71.095-474.373 170.027M42.673 777.393c-53.463-25.186-73.304-181.625-276.352-268.527m485.566 293.837c-47.293-33.392-214.882-317.765-503.283-411.97m372.22 386.66C84.246 745.411-11.862 533.488-207.669 475.555m33.875-568.977c7.027 86.65 265.676 327.937 540.931 405.454M124.698-120.887C209.5 83.1 486.647 164.842 486.823 164.899M247.73 535.952c46.544-21.303 138.538-64.637 269.783-57.066M311.948 590.418c53.677-9.742 130.715-12.996 226.554 4.103m-861.687-266.558C-35.9 314.036 273.074 758.921 382.169 777.812m129.432.122C339.894 755.325-74.541 262.949-323.185 218.596m106.035-104.333c165.141 48.172 365.939 429.438 782.793 642.173"/>
  </g>
</svg>
