<?xml version="1.0" encoding="UTF-8" standalone="no"?>
<!DOCTYPE svg PUBLIC "-//W3C//DTD SVG 1.1//EN" "http://www.w3.org/Graphics/SVG/1.1/DTD/svg11.dtd">
<svg width="100%" height="100%" viewBox="0 0 375 950" version="1.1" xmlns="http://www.w3.org/2000/svg" xmlns:xlink="http://www.w3.org/1999/xlink" xml:space="preserve" xmlns:serif="http://www.serif.com/" style="fill-rule:evenodd;clip-rule:evenodd;stroke-miterlimit:10;">
    <g transform="matrix(1,0,0,1,-4860,0)">
        <g id="Page-4" serif:id="Page 4" transform="matrix(1,0,0,1,4860,0)">
            <rect x="0" y="0" width="375" height="950" style="fill:none;"/>
            <g id="Layer-1" serif:id="Layer 1">
                <g opacity="0.37">
                    <g>
                        <clipPath id="_clip1">
                            <rect x="0" y="0" width="375" height="937.382" clip-rule="nonzero"/>
                        </clipPath>
                        <g clip-path="url(#_clip1)">
                            <g transform="matrix(1,0,0,1,1204.04,1029.46)">
                                <path d="M0,-795.8C-234.493,-620.426 -515.061,-646.986 -622.141,-665.956C-729.22,-684.927 -856.534,-726.662 -871.71,-687.877C-886.887,-649.093 -829.554,-495.641 -662.611,-393.576C-495.669,-291.512 -488.924,-204.67 -488.924,-204.67C-482.179,-21.62 -685.719,0 -685.719,0L-551.316,-15.545C-551.316,-15.545 -416.413,-72.383 -274.766,-215.718C-133.117,-359.052 11.521,-349.294 11.521,-349.294L0,-795.8Z" style="fill:none;fill-rule:nonzero;stroke:white;stroke-width:1px;"/>
                            </g>
                            <g transform="matrix(1,0,0,1,399.086,30.2723)">
                                <path d="M0,21.713C19.904,40.495 44.223,54.201 69.172,65.09C79.747,69.705 90.537,73.823 101.453,77.557C202.619,69.771 267.618,65.828 267.633,65.827C267.625,65.828 267.617,65.83 267.609,65.831C297.472,61.689 326.66,67.272 344.278,87.873C359.23,105.357 333.752,109.24 334.161,116.962C334.569,124.684 387.279,192.845 582.045,116.962C706.058,68.645 747.507,-19.602 752.994,-87.794C752.994,-87.794 608.604,84.079 386.014,61.315C386.014,61.315 270.925,55.723 122.954,-42.026C122.954,-42.026 70.718,-81.828 115.365,-12.201C157.271,53.151 -32.005,-50.175 33.989,-171.132C15.552,-161.856 -1.816,-149.853 -14.808,-133.691C-27.752,-117.589 -34.791,-97.537 -37.422,-77.209C-39.602,-60.361 -38.249,-43.127 -32.694,-27.029C-26.215,-8.249 -14.372,8.152 0,21.713Z" style="fill:none;fill-rule:nonzero;stroke:white;stroke-width:1px;"/>
                            </g>
                            <g transform="matrix(1,0,0,1,81.9189,873.18)">
                                <path d="M0,140.731C0,140.731 -112.56,0 -313.648,2.53C-514.738,5.059 -571.65,140.731 -571.65,140.731L0,140.731Z" style="fill:none;fill-rule:nonzero;stroke:white;stroke-width:1px;"/>
                            </g>
                            <g transform="matrix(1,0,0,1,102.403,382.54)">
                                <path d="M0,-180.005C-1.334,-182.097 -4.092,-182.701 -6.568,-182.866C-19.451,-183.729 -31.764,-177.807 -42.929,-171.319C-66.323,-157.726 -87.745,-141.033 -110.124,-125.825C-183.598,-75.894 -268.641,-41.803 -357.058,-33.208C-359.49,-32.972 -361.946,-32.775 -364.378,-32.941L-321.981,3.724C-200.939,-15.748 -91.649,-83.873 -3.801,-169.524C-0.907,-172.345 2.174,-176.598 0,-180.005Z" style="fill:none;fill-rule:nonzero;stroke:white;stroke-width:1px;"/>
                            </g>
                            <g transform="matrix(1,0,0,1,-254.654,249.051)">
                                <path d="M0,100.281C88.417,91.686 173.46,57.595 246.934,7.664C269.312,-7.544 290.734,-24.237 314.129,-37.83C325.294,-44.318 337.606,-50.24 350.489,-49.377C352.966,-49.212 355.724,-48.608 357.058,-46.516C359.231,-43.109 356.15,-38.856 353.257,-36.034C265.408,49.616 156.118,117.741 35.076,137.214L69.603,167.073C70.479,166.87 71.349,166.614 72.199,166.34C155.568,139.502 230.815,91.298 297.573,34.605C325.164,11.175 351.772,-14.137 370.995,-44.809C374.42,-50.273 377.52,-57.676 373.493,-62.714C370.741,-66.156 365.782,-66.792 361.379,-66.616C346.013,-66.001 331.736,-58.856 318.306,-51.364C262.75,-20.371 211.82,19.302 153.136,43.862C124.26,55.946 93.926,64.161 63.281,70.324C47.672,73.464 31.962,76.075 16.217,78.426C8.123,79.635 0.02,80.77 -8.088,81.874C-13.185,82.568 -20.975,82.398 -26.371,84.073L-7.32,100.549C-4.889,100.715 -2.433,100.517 0,100.281Z" style="fill:none;fill-rule:nonzero;stroke:white;stroke-width:1px;"/>
                            </g>
                            <g transform="matrix(1,0,0,1,-77.2393,574.841)">
                                <path d="M0,-65.729C119.746,21.245 269.149,38.205 298.277,41.04C339.31,45.034 403.951,21.928 361.463,-34.529C322.175,-86.735 231.95,-64.634 129.648,-68.426C27.354,-72.217 -52.352,-110.757 -52.362,-110.763L-19.166,-82.054C-12.718,-76.483 -6.343,-71.07 0,-65.729Z" style="fill:none;fill-rule:nonzero;stroke:white;stroke-width:1px;"/>
                            </g>
                            <g transform="matrix(0.0422732,-0.999106,-0.999106,-0.0422732,148.145,419.092)">
                                <path d="M-135.412,-153.443C-90.346,-123.322 -110.972,-31.255 -134.04,35.282C-156.248,99.331 -136.89,152.799 -135.412,156.706C-184.658,50.422 -192.202,-56.921 -193.531,-81.161C-195.489,-116.912 -176.271,-169.572 -135.412,-153.443Z" style="fill:none;fill-rule:nonzero;stroke:white;stroke-width:1px;"/>
                            </g>
                            <g transform="matrix(1,0,0,1,409.48,602.939)">
                                <path d="M0,42.525C4.911,1.432 -25.789,-53.658 -64.791,-110.136L-64.811,-110.152C-44.885,-30.19 -24.571,13.381 -118.743,38.798C-221.627,66.567 -394.442,-21.523 -395.94,-22.288C-156.497,152.677 -12.151,144.213 0,42.525Z" style="fill:none;fill-rule:nonzero;stroke:white;stroke-width:1px;"/>
                            </g>
                            <g transform="matrix(1,0,0,1,1202.54,580.68)">
                                <path d="M0,-358.764C0.483,-359.078 0.851,-359.319 1.102,-359.484C0.853,-359.32 0.482,-359.077 0,-358.764ZM1.165,-359.526C1.254,-359.584 1.331,-359.635 1.383,-359.67C1.33,-359.635 1.258,-359.587 1.165,-359.526ZM-594.501,-227.297C-909.414,-282.945 -944.827,-380.327 -987.827,-334.798C-1028.74,-299.611 -929.348,-191.411 -857.852,-87.878L-857.871,-87.893C-837.945,-7.931 -817.632,35.64 -911.804,61.057C-1013.83,88.594 -1184.6,2.211 -1188.9,0.023C-1223.62,-25.339 -1260.33,-54.527 -1298.95,-87.893L-1524.49,-282.945C-1524.49,-282.945 -1425.42,-272.827 -1317.92,-301.915C-1210.42,-331.004 -1082.68,-447.358 -973.915,-447.358C-955.87,-447.358 -935.467,-443.141 -913.687,-436.524C-913.55,-436.482 -913.412,-436.439 -913.274,-436.397L-866.147,-419.152C-894.017,-428.887 -923.641,-436.274 -927.542,-425.436C-935.13,-404.358 -834.074,-326.159 -769.874,-300.651C-765.462,-298.898 -760.937,-297.138 -756.323,-295.378C-753.866,-294.442 -731.321,-286.179 -726.522,-284.508C-725.521,-284.16 -696.95,-274.687 -696.786,-274.635C-690.709,-272.714 -684.521,-270.818 -678.231,-268.953C-678.168,-268.935 -655.362,-262.45 -653.707,-262.001C-653.158,-261.853 -638.899,-258.08 -632.18,-256.411C-632.083,-256.388 -631.987,-256.363 -631.891,-256.339C-541.017,-233.806 -433.562,-220.117 -322.252,-232.957C-322.166,-232.967 -322.081,-232.976 -321.995,-232.986C-319.211,-233.308 -316.425,-233.647 -313.636,-234.002C-141.43,-269.466 -15.214,-348.902 -0.036,-358.742C-22.633,-344.087 -293.064,-174.032 -594.501,-227.297Z" style="fill:none;fill-rule:nonzero;stroke:white;stroke-width:1px;"/>
                            </g>
                            <g transform="matrix(1,0,0,1,420.058,86.761)">
                                <path d="M0,786.737C-31.443,748.562 -82.811,734.799 -130.125,720.399C-250.563,683.747 -365.711,629.754 -470.912,560.603C-616.692,464.78 -741.762,341.301 -874.627,228.25C-1007.49,115.197 -1152.71,10.122 -1320.24,-38.534C-1389.49,-58.645 -1461.5,-68.502 -1533.55,-69.334C-1652.64,-70.71 -1771.39,-47.825 -1883.48,-8.249C-2003.44,34.11 -2215.58,170.416 -2215.58,170.416L-2193.85,181.377C-1625.52,-123.085 -1249.58,99.679 -1249.58,99.679C-1088.92,184.185 -647.572,563.11 -484.002,654.467C-295.139,764.076 -74.234,791.899 -30.392,833.214C-2.188,859.79 -10.27,884.967 -17.38,899.102C-17.336,901.848 -18.76,905.296 -22.145,909.822C25.441,896.347 31.443,824.912 0,786.737Z" style="fill:none;fill-rule:nonzero;stroke:white;stroke-width:1px;"/>
                            </g>
                            <g transform="matrix(1,0,0,1,203.332,931.728)">
                                <path d="M0,19.865C-83.951,-0.073 -240.503,-63.789 -291.383,-84.908C-272.466,-50.225 -264.325,-21.291 -264.325,-21.291L-264.324,-21.277C-171.433,19.673 -121.413,82.183 -121.413,82.183L-160.718,82.183L-128.245,104.773L143.267,80.091C132.382,71.811 87.141,40.56 0,19.865Z" style="fill:none;fill-rule:nonzero;stroke:white;stroke-width:1px;"/>
                            </g>
                            <g transform="matrix(1,0,0,1,350.807,161.529)">
                                <path d="M0,5.273C-4.649,3.5 -9.505,1.713 -14.413,0L0,5.273Z" style="fill:none;fill-rule:nonzero;stroke:white;stroke-width:1px;"/>
                            </g>
                            <g transform="matrix(1,0,0,1,288.961,144.268)">
                                <path d="M0,-0.097L-0.107,-0.112C0.03,-0.07 0.168,-0.027 0.306,0.015L0,-0.097Z" style="fill:none;fill-rule:nonzero;stroke:white;stroke-width:1px;"/>
                            </g>
                            <g transform="matrix(1,0,0,1,350.807,144.283)">
                                <path d="M0,22.519C-21.178,13.906 -41.914,5.987 -61.54,0L-14.413,17.246C-9.505,18.959 -4.649,20.746 0,22.519Z" style="fill:none;fill-rule:nonzero;stroke:white;stroke-width:1px;"/>
                            </g>
                            <g transform="matrix(1,0,0,1,454.423,-66.7592)">
                                <path d="M0,276.808C-34.601,262.885 -71.521,246.97 -103.616,233.561C-103.616,233.561 -118.027,228.287 -118.029,228.287C-130.816,223.608 -144.258,219.438 -157.752,217.425C-164.762,216.379 -176.666,213.161 -179.561,222.418C-182.341,231.308 -172.328,240.755 -167.122,246.688C-155.587,259.832 -142.05,271.278 -128.346,282.078C-111.707,295.191 -94.271,307.326 -76.243,318.449C-59.492,328.785 -42.142,338.442 -23.907,345.919C-23.191,346.213 -22.475,346.503 -21.756,346.788C-17.344,348.541 -12.818,350.301 -8.205,352.061C-5.748,352.997 16.797,361.26 21.596,362.931C22.597,363.28 51.168,372.752 51.332,372.804C57.409,374.725 63.597,376.621 69.887,378.486C69.95,378.504 92.756,384.99 94.411,385.438C94.96,385.586 109.219,389.359 115.938,391.028C116.035,391.051 116.131,391.077 116.228,391.1C207.102,413.633 314.557,427.323 425.866,414.482C425.952,414.472 426.037,414.463 426.123,414.454C428.907,414.131 431.693,413.792 434.482,413.437C618.23,375.596 749.62,287.691 749.62,287.691L773.366,295.126C773.366,295.126 749.635,-60.361 749.62,-60.45C748.895,-64.736 745.569,-69.575 743.512,-73.276C737.667,-83.786 730.437,-93.538 722.188,-102.283C710.455,-114.724 696.574,-125.073 681.318,-132.799C661.578,-142.797 637.559,-150.515 615.252,-149.091C597.897,-147.984 573.805,-142.57 567.349,-123.888C561.604,-107.264 567.613,-86.296 583.684,-78.072C587.886,-75.921 592.769,-74.361 597.532,-74.361C631.077,-75.581 622.845,-112.221 622.826,-112.302C623.527,-109.188 619.864,-102.874 618.203,-100.331C615.883,-96.778 612.48,-93.662 608.08,-93.259C598.747,-92.406 592.896,-102.984 598.516,-110.476C605.261,-119.469 648.542,-117.221 680.582,-76.751C712.621,-36.28 721.474,138.111 526.708,213.994C331.942,289.876 279.232,221.715 278.824,213.994C278.415,206.272 303.894,202.388 288.941,184.905C255.925,146.297 182.28,160.41 139.705,192.494C76.443,248.607 151.088,284.818 120.734,308.847C109.369,317.845 57.938,300.12 0,276.808" style="fill:none;fill-rule:nonzero;stroke:white;stroke-width:1px;"/>
                            </g>
                            <g transform="matrix(1,0,0,1,493.62,81.553)">
                                <path d="M0,26.778C-0.364,26.802 -0.727,26.828 -1.094,26.852C-104.706,33.878 -300.397,28.59 -331.669,-113.659C-336.852,-137.231 -307.924,-165.618 -265.807,-88.455C-265.807,-88.455 -252.316,-129.431 -260.181,-166.905C-301.819,-160.236 -350.755,-167.939 -404.112,-196.957C-405.645,-197.791 -407.148,-198.647 -408.626,-199.522C-426.057,-175.966 -540,-157.684 -527.71,-124.281C-506.363,-66.261 -626.436,-15.572 -626.436,-15.572C-676.715,18.957 -610.683,56.583 -610.683,56.583C-705.114,70.671 -758.232,49.24 -758.232,49.24C-758.232,49.24 -892.292,17.201 -866.155,-60.368C-833.462,-157.394 -613.818,-173.35 -555.338,-159.86C-555.338,-159.86 -633.447,-177.566 -698.369,-169.977C-1009.49,-134.565 -969.019,92.24 -969.019,92.24L-969.953,92.977C-889.171,154.354 -815.566,216.182 -815.566,216.182C-815.566,216.182 -716.497,226.3 -608.996,197.212C-501.496,168.123 -373.76,51.769 -264.994,51.769C-246.949,51.769 -226.546,55.986 -204.767,62.603C-204.629,62.645 -204.491,62.688 -204.354,62.73L-157.227,79.975L-142.813,85.25C-110.719,98.657 -73.798,114.574 -39.197,128.496C18.74,151.808 70.172,169.532 81.537,160.535C111.891,136.506 37.246,100.295 100.508,44.181C120.37,29.214 146.992,18.164 173.099,14.547C173.084,14.548 108.085,18.49 6.919,26.276C4.669,26.449 2.351,26.616 0,26.778Z" style="fill:none;fill-rule:nonzero;stroke:white;stroke-width:1px;"/>
                            </g>
                            <g transform="matrix(1,0,0,1,835.966,-5.0955)">
                                <path d="M0,-331.09C-41.969,-364.831 -122.685,-384.023 -232.703,-348.075C-374.633,-301.702 -519.212,-153.575 -637.252,-156.948C-669.056,-157.857 -754.007,-182.206 -727.87,-273.828C-714.171,-319.829 -664.331,-339.061 -565.183,-273.879C-467.795,-209.855 -444.613,-284.84 -444.613,-284.84C-444.613,-284.84 -439.654,-311.46 -453.045,-313.507C-453.045,-313.507 -452.623,-360.301 -485.928,-356.929C-519.231,-353.556 -516.416,-314.557 -491.307,-310.469L-491.156,-309.92C-489.926,-305.163 -490.172,-299.774 -493.937,-294.536C-500.015,-286.082 -525.134,-282.311 -558.437,-305.496C-591.742,-328.683 -708.604,-448.504 -789.881,-349.34C-831.762,-298.241 -842.577,-162.584 -746.458,-110.309C-656.14,-61.189 -578.477,-73.114 -527.46,-112.508C-524.185,-115.037 -521.019,-117.68 -517.967,-120.427C-603.572,25.606 -484.469,108.807 -483.373,109.568C-429.29,117.414 -374.739,115.95 -335.427,112.925C-346.343,109.191 -357.133,105.073 -367.708,100.458C-392.657,89.569 -416.976,75.863 -436.88,57.081C-451.252,43.52 -463.095,27.119 -469.574,8.339C-475.129,-7.759 -476.481,-24.993 -474.302,-41.841C-471.671,-62.169 -464.632,-82.221 -451.687,-98.323C-436.967,-116.638 -416.625,-129.611 -395.476,-139.327C-380.462,-146.226 -364.739,-150.84 -349.338,-156.682C-334.616,-162.266 -316.119,-163.915 -302.944,-153.666C-295.856,-148.153 -291.123,-138.957 -294.021,-129.979C-298.183,-117.095 -314.48,-112.549 -323.202,-122.113C-332.457,-132.265 -324.337,-141.131 -321.897,-144.687C-338.847,-144.778 -377.403,-117.847 -344.661,-84.402C-324.572,-63.882 -285.491,-70.393 -265.793,-92.248C-247.115,-112.972 -251.656,-149.008 -266.429,-170.453C-278.681,-188.237 -318.704,-223.853 -288.913,-259.826C-259.122,-295.801 -210.782,-292.99 -188.86,-286.245C-188.86,-286.245 -207.547,-289.833 -206.847,-271.63C-206.147,-253.428 -190.546,-246.899 -178.181,-248.023C-165.814,-249.147 -139.733,-258.581 -143.893,-290.391C-144.834,-297.591 -149.62,-303.227 -156.39,-307.636L-156.259,-307.605C-156.191,-307.644 -156.125,-307.685 -156.058,-307.724C-136.252,-319.161 -111.016,-323.031 -88.668,-319.033C-49.337,-311.996 7.071,-268.898 -19.451,-224.292C-29.36,-207.628 -41.505,-207.513 -50.279,-212.486C-60.555,-218.312 -61.166,-236.026 -48.744,-241.002C-36.322,-245.978 -26.544,-228.37 -26.544,-228.37C-26.544,-228.37 -17.059,-248.589 -35.729,-256.694C-49.732,-262.774 -79.323,-260.259 -84.436,-228.697C-89.548,-197.135 -70.014,-179.196 -45.875,-175.334C41.639,-161.33 57.939,-284.508 0,-331.09Z" style="fill:none;fill-rule:nonzero;stroke:white;stroke-width:1px;"/>
                            </g>
                        </g>
                    </g>
                </g>
            </g>
        </g>
    </g>
</svg>
