<svg viewBox="0 0 375 950" xmlns="http://www.w3.org/2000/svg" fill-rule="evenodd" clip-rule="evenodd" stroke-miterlimit="10"><path fill="none" d="M0 0h375v950H0z"/><g opacity=".37"><clipPath id="a"><path clip-rule="nonzero" d="M0 0h375v937.382H0z"/></clipPath><g clip-path="url(#a)" fill="none" stroke="#fff"><path d="M1204.04 233.656C969.55 409.03 688.982 382.471 581.902 363.5c-107.079-18.97-234.393-60.706-249.569-21.922-15.177 38.785 42.156 192.237 209.099 294.302 166.942 102.064 173.687 188.906 173.687 188.906 6.745 183.054-196.795 204.674-196.795 204.674l134.403-15.55s134.903-56.837 276.55-200.172c141.653-143.334 286.283-133.576 286.283-133.576l-11.52-446.506zM399.086 51.986c19.904 18.782 44.223 32.488 69.172 43.376 10.575 4.616 21.365 8.733 32.281 12.467 101.166-7.786 166.165-11.728 166.18-11.729l-.024.004c29.863-4.143 59.051 1.44 76.669 22.042 14.952 17.483-10.526 21.367-10.117 29.089.408 7.721 53.118 75.882 247.884 0C1105.14 98.918 1146.59 10.67 1152.08-57.521c0 0-144.39 171.873-366.98 149.108 0 0-115.089-5.591-263.06-103.34 0 0-52.236-39.803-7.589 29.824 41.906 65.353-147.37-37.973-81.376-158.93-18.437 9.275-35.805 21.278-48.797 37.44-12.944 16.103-19.983 36.154-22.614 56.483-2.18 16.847-.827 34.082 4.728 50.179 6.479 18.781 18.322 35.182 32.694 48.743zM81.919 1013.91s-112.56-140.73-313.648-138.2c-201.09 2.529-258.002 138.2-258.002 138.2h571.65zM102.403 202.535c-1.334-2.092-4.092-2.696-6.568-2.861-12.883-.863-25.196 5.059-36.361 11.546-23.394 13.594-44.816 30.286-67.195 45.495-73.474 49.932-158.517 84.022-246.934 92.617-2.432.236-4.888.433-7.32.268l42.397 36.664c121.042-19.472 230.332-87.598 318.18-173.248 2.894-2.821 5.975-7.074 3.801-10.481z"/><path d="M-254.654 349.332c88.417-8.595 173.46-42.685 246.934-92.617 22.378-15.209 43.8-31.901 67.195-45.495 11.165-6.487 23.477-12.409 36.36-11.546 2.477.165 5.235.769 6.569 2.861 2.173 3.407-.908 7.66-3.801 10.481-87.849 85.65-197.139 153.776-318.181 173.249l34.527 29.859a32.185 32.185 0 002.596-.733c83.369-26.838 158.616-75.043 225.374-131.735 27.591-23.43 54.199-48.742 73.422-79.414 3.425-5.464 6.525-12.868 2.498-17.905-2.752-3.442-7.711-4.078-12.114-3.902-15.366.614-29.643 7.76-43.073 15.252-55.556 30.993-106.486 70.666-165.17 95.226-28.876 12.084-59.21 20.299-89.855 26.462-15.609 3.139-31.319 5.75-47.064 8.102a1878.828 1878.828 0 01-24.305 3.448c-5.097.694-12.887.524-18.283 2.199l19.051 16.476c2.431.166 4.887-.032 7.32-.268zM-77.239 509.112C42.507 596.086 191.91 613.046 221.038 615.881c41.033 3.994 105.674-19.112 63.186-75.569-39.288-52.206-129.513-30.105-231.815-33.897-102.294-3.791-182-42.331-182.01-42.337l33.196 28.709a1974.364 1974.364 0 0019.166 16.325z"/><path d="M295.727 560.87c-28.189-46.299-121.046-29.584-188.498-9.349-64.931 19.48-117.533-2.121-121.374-3.762 104.107 53.694 211.036 65.77 235.198 68.122 35.636 3.468 89.061-13.507 74.674-55.011z"/><path d="M409.48 645.464c4.911-41.093-25.789-96.184-64.791-152.661l-.02-.016c19.926 79.962 40.24 123.533-53.932 148.95-102.884 27.769-275.699-60.321-277.197-61.086 239.443 174.965 383.789 166.501 395.94 64.813z"/><path d="M1202.54 221.916c.48-.314.85-.555 1.1-.72l-1.1.72zm1.17-.762c.09-.059.16-.109.21-.144l-.21.144zM608.04 353.382c-314.913-55.647-350.326-153.03-393.326-107.5-40.916 35.187 58.479 143.386 129.975 246.92l-.019-.015c19.926 79.962 40.239 123.533-53.933 148.95-102.026 27.537-272.793-58.846-277.092-61.034-34.725-25.362-71.432-54.55-110.05-87.916l-225.541-195.052s99.069 10.118 206.57-18.97c107.5-29.089 235.236-145.443 344.002-145.443 18.045 0 38.448 4.217 60.228 10.835l.413.126 47.127 17.245c-27.87-9.735-57.494-17.121-61.395-6.284-7.588 21.079 93.468 99.277 157.668 124.785 4.412 1.753 8.937 3.512 13.551 5.272 2.457.938 25.002 9.2 29.801 10.871 1.001.348 29.572 9.821 29.736 9.873a1082.885 1082.885 0 0018.555 5.682c.063.019 22.869 6.503 24.524 6.951.549.149 14.808 3.922 21.527 5.59l.289.073c90.874 22.533 198.329 36.222 309.639 23.382l.257-.029c2.784-.322 5.57-.661 8.359-1.016 172.205-35.464 298.425-114.899 313.605-124.739-22.6 14.654-293.033 184.709-594.47 131.443zM420.058 873.498c-31.443-38.175-82.811-51.938-130.125-66.338-120.438-36.652-235.586-90.645-340.787-159.796-145.78-95.823-270.85-219.302-403.715-332.354C-587.435 201.958-732.655 96.882-900.186 48.227c-69.245-20.111-141.254-29.968-213.304-30.801-119.1-1.375-237.85 21.51-349.93 61.085-119.96 42.36-332.1 178.666-332.1 178.666l21.73 10.961c568.33-304.462 944.272-81.698 944.272-81.698 160.658 84.506 602.004 463.431 765.574 554.788 188.863 109.609 409.768 137.432 453.61 178.747 28.204 26.576 20.122 51.753 13.012 65.888.044 2.746-1.38 6.194-4.765 10.72 47.586-13.475 53.588-84.91 22.145-123.085zM203.332 951.593c-83.951-19.938-240.503-83.654-291.383-104.774 18.917 34.684 27.058 63.618 27.058 63.618l.001.014c92.891 40.95 142.911 103.459 142.911 103.459H42.614l32.473 22.59 271.512-24.68c-10.885-8.28-56.126-39.532-143.267-60.227z"/><path d="M350.807 166.802a540.16 540.16 0 00-14.413-5.274l14.413 5.274zM288.961 144.171l-.107-.015.413.126-.306-.111z"/><path d="M350.807 166.802c-21.178-8.614-41.914-16.533-61.54-22.52l47.127 17.246a540.16 540.16 0 0114.413 5.274z"/><path d="M454.423 210.049c-34.601-13.923-71.521-29.838-103.616-43.247l-14.413-5.274c-12.787-4.679-26.229-8.849-39.723-10.862-7.01-1.046-18.914-4.264-21.809 4.993-2.78 8.89 7.233 18.337 12.439 24.27 11.535 13.144 25.072 24.59 38.776 35.39 16.639 13.112 34.075 25.248 52.103 36.371 16.751 10.336 34.101 19.993 52.336 27.471.716.293 1.432.583 2.151.868a1047.3 1047.3 0 0013.551 5.272c2.457.938 25.002 9.201 29.801 10.871 1.001.349 29.572 9.821 29.736 9.873a1082.885 1082.885 0 0018.555 5.682c.063.019 22.869 6.503 24.524 6.951.549.149 14.808 3.922 21.527 5.59l.29.073c90.874 22.533 198.329 36.223 309.638 23.382l.257-.028c2.784-.323 5.57-.662 8.359-1.017 183.745-37.84 315.135-125.747 315.135-125.747l23.75 7.436s-23.73-355.487-23.75-355.575c-.72-4.287-4.05-9.126-6.11-12.827-5.84-10.51-13.07-20.262-21.32-29.007-11.73-12.441-25.61-22.79-40.87-30.516-19.74-9.999-43.76-17.717-66.07-16.293-17.35 1.108-41.44 6.522-47.9 25.204-5.74 16.624.27 37.592 16.34 45.816 4.2 2.151 9.08 3.711 13.84 3.711 33.55-1.22 25.32-37.86 25.3-37.942.7 3.115-2.96 9.429-4.62 11.972-2.32 3.553-5.73 6.669-10.13 7.072-9.33.853-15.18-9.725-9.56-17.217 6.74-8.994 50.02-6.745 82.07 33.726 32.03 40.471 40.89 214.861-153.879 290.744-194.766 75.882-247.476 7.721-247.884 0-.409-7.722 25.07-11.606 10.117-29.089-33.016-38.608-106.661-24.496-149.236 7.588-63.262 56.114 11.383 92.324-18.971 116.354-11.365 8.998-62.796-8.726-120.734-32.039"/><path d="M-117.063 138.136c-94.432 14.088-147.55-7.343-147.55-7.343S-398.672 98.754-372.535 21.185c32.693-97.026 252.336-112.982 310.817-99.491 0 0-78.109-17.706-143.032-10.118-311.12 35.412-270.648 262.217-270.648 262.217l-.935.738c80.783 61.376 154.386 123.205 154.386 123.205s99.07 10.117 206.571-18.972c107.5-29.088 235.237-145.441 344.001-145.441 18.045 0 38.45 4.216 60.228 10.834.139.041.275.084.414.126l47.126 17.245 14.414 5.275c32.095 13.408 69.016 29.324 103.616 43.246 57.938 23.313 109.368 41.037 120.735 32.039 30.353-24.03-44.291-60.24 18.97-116.354 19.863-14.967 46.485-26.017 72.591-29.634-.015.001-65.013 3.943-166.18 11.729-2.25.173-4.568.34-6.918.502l-1.094.075c-103.613 7.025-299.305 1.737-330.575-140.511-5.184-23.572 23.745-51.961 65.861 25.203 0 0 13.49-40.976 5.627-78.449-41.639 6.669-90.575-1.034-143.933-30.054"/><path d="M835.966-336.186c-41.969-33.742-122.685-52.932-232.703-16.985-141.93 46.372-286.509 194.5-404.549 191.127-31.804-.909-116.755-25.259-90.618-116.88 13.699-46.001 63.539-65.233 162.687-.051 97.388 64.024 120.57-10.961 120.57-10.961s4.959-26.62-8.432-28.667c0 0 .422-46.794-32.883-43.421-33.303 3.372-30.488 42.371-5.379 46.459l.151.548c1.23 4.757.984 10.147-2.781 15.385-6.078 8.454-31.197 12.226-64.5-10.961-33.305-23.186-150.167-143.007-231.444-43.843C4.204-303.337-6.611-167.68 89.508-115.405c90.318 49.121 167.981 37.195 218.998-2.199a164.256 164.256 0 009.493-7.919c-85.605 146.033 33.498 229.234 34.594 229.997 54.083 7.844 108.634 6.381 147.946 3.355-10.916-3.734-21.706-7.852-32.281-12.467-24.949-10.888-49.268-24.595-69.172-43.377-14.372-13.561-26.215-29.962-32.694-48.742-5.555-16.097-6.907-33.332-4.728-50.18 2.631-20.329 9.67-40.38 22.615-56.483 14.72-18.314 35.062-31.287 56.211-41.004 15.014-6.898 30.737-11.512 46.138-17.354 14.722-5.584 33.219-7.233 46.394 3.016 7.088 5.513 11.821 14.708 8.923 23.687-4.162 12.885-20.459 17.43-29.181 7.865-9.255-10.15-1.135-19.018 1.305-22.573-16.95-.09-55.506 26.84-22.764 60.285 20.089 20.52 59.17 14.009 78.868-7.846 18.678-20.724 14.137-56.76-.636-78.205-12.252-17.784-52.275-53.399-22.484-89.373 29.791-35.974 78.131-33.164 100.053-26.419 0 0-18.687-3.589-17.987 14.614.7 18.204 16.301 24.733 28.666 23.608 12.367-1.124 38.448-10.559 34.288-42.368-.941-7.2-5.727-12.836-12.497-17.245l.131.031c.068-.039.134-.08.201-.118 19.806-11.438 45.042-15.308 67.39-11.31 39.331 7.036 95.739 50.135 69.217 94.74-9.909 16.665-22.054 16.78-30.828 11.806-10.276-5.825-10.887-23.539 1.535-28.515 12.422-4.976 22.2 12.631 22.2 12.631s9.485-20.219-9.185-28.324c-14.003-6.079-43.594-3.564-48.707 27.998-5.112 31.562 14.422 49.501 38.561 53.363 87.514 14.004 103.814-109.174 45.875-155.756z"/></g></g></svg>