<?xml version="1.0" encoding="UTF-8" standalone="no"?>
<!DOCTYPE svg PUBLIC "-//W3C//DTD SVG 1.1//EN" "http://www.w3.org/Graphics/SVG/1.1/DTD/svg11.dtd">
<svg width="100%" height="100%" viewBox="0 0 1440 950" version="1.1" xmlns="http://www.w3.org/2000/svg" xmlns:xlink="http://www.w3.org/1999/xlink" xml:space="preserve" xmlns:serif="http://www.serif.com/" style="fill-rule:evenodd;clip-rule:evenodd;stroke-miterlimit:10;">
    <g transform="matrix(1,0,0,1,-3240,0)">
        <g id="Page-3" serif:id="Page 3" transform="matrix(1,0,0,1,3240,0)">
            <rect x="0" y="0" width="1440" height="950" style="fill:none;"/>
            <clipPath id="_clip1">
                <rect x="0" y="0" width="1440" height="950"/>
            </clipPath>
            <g clip-path="url(#_clip1)">
                <g id="Layer-1" serif:id="Layer 1">
                    <g opacity="0.37">
                        <g>
                            <clipPath id="_clip2">
                                <rect x="0.092" y="-0" width="1439.91" height="948.078" clip-rule="nonzero"/>
                            </clipPath>
                            <g clip-path="url(#_clip2)">
                                <g transform="matrix(1,0,0,1,1986.28,1018.77)">
                                    <path d="M0,-1190.44C-350.78,-928.099 -773.248,-930.705 -933.429,-959.084C-1093.61,-987.462 -1281.3,-1087.02 -1304,-1029C-1326.7,-970.982 -925.192,-1020.21 -1042.53,-704.835C-1123.94,-486.017 -1077.9,-251.935 -1077.9,-251.935C-995.898,27.635 -883.777,-3.972 -883.777,-3.972L-824.718,-23.254C-824.718,-23.254 -622.916,-108.278 -411.023,-322.693C-199.132,-537.107 17.234,-522.51 17.234,-522.51L0,-1190.44Z" style="fill:none;fill-rule:nonzero;stroke:white;stroke-width:1px;"/>
                                </g>
                                <g transform="matrix(1,0,0,1,307.69,784.998)">
                                    <path d="M0,210.521C0,210.521 -168.379,0 -469.19,3.785C-770.001,7.569 -855.137,210.521 -855.137,210.521L0,210.521Z" style="fill:none;fill-rule:nonzero;stroke:white;stroke-width:1px;"/>
                                </g>
                                <g transform="matrix(1,0,0,1,-245.837,909.865)">
                                    <path d="M0,85.655C0,85.655 61.634,7.568 167.58,3.784C273.526,0 387.04,85.655 387.04,85.655L0,85.655Z" style="fill:none;fill-rule:nonzero;stroke:white;stroke-width:1px;"/>
                                </g>
                                <g transform="matrix(1,0,0,1,338.333,51.0494)">
                                    <path d="M0,-269.273C-1.997,-272.402 -6.123,-273.305 -9.826,-273.553C-29.099,-274.843 -47.516,-265.985 -64.218,-256.281C-99.215,-235.945 -131.259,-210.975 -164.737,-188.224C-274.646,-113.531 -401.863,-62.536 -534.126,-49.678C-537.765,-49.325 -541.439,-49.03 -545.076,-49.277L-481.656,5.57C-300.588,-23.559 -137.1,-125.469 -5.686,-253.594C-1.357,-257.814 3.252,-264.176 0,-269.273Z" style="fill:none;fill-rule:nonzero;stroke:white;stroke-width:1px;"/>
                                </g>
                                <g transform="matrix(1,0,0,1,-195.793,-148.641)">
                                    <path d="M0,150.012C132.264,137.155 259.48,86.159 369.39,11.466C402.867,-11.285 434.912,-36.255 469.909,-56.59C486.61,-66.295 505.028,-75.153 524.301,-73.863C528.004,-73.615 532.13,-72.712 534.126,-69.583C537.378,-64.486 532.769,-58.124 528.44,-53.904C397.027,74.221 233.539,176.131 52.471,205.26L104.119,249.926C105.43,249.623 106.731,249.24 108.004,248.829C232.717,208.683 345.279,136.574 445.143,51.768C486.416,16.718 526.22,-21.147 554.975,-67.029C560.098,-75.203 564.734,-86.278 558.711,-93.813C554.595,-98.963 547.177,-99.914 540.59,-99.65C517.604,-98.731 496.247,-88.042 476.157,-76.834C393.05,-30.472 316.864,28.875 229.077,65.615C185.881,83.692 140.505,95.98 94.663,105.199C71.313,109.896 47.813,113.802 24.259,117.319C12.152,119.127 0.03,120.826 -12.099,122.477C-19.723,123.515 -31.376,123.261 -39.449,125.767L-10.95,150.413C-7.312,150.66 -3.639,150.366 0,150.012Z" style="fill:none;fill-rule:nonzero;stroke:white;stroke-width:1px;"/>
                                </g>
                                <g transform="matrix(1,0,0,1,1161.57,481.666)">
                                    <path d="M0,513.854C0,513.854 201.802,428.83 413.694,214.415C625.586,0 841.952,14.597 841.952,14.597L841.952,221.24C841.952,221.24 580.181,248.225 292.613,431.861C292.613,431.861 161.441,513.854 123.604,513.854L0,513.854Z" style="fill:none;fill-rule:nonzero;stroke:white;stroke-width:1px;"/>
                                </g>
                                <g transform="matrix(1,0,0,1,1019.06,544.731)">
                                    <path d="M100.061,-365.823C30.485,-350.602 93.158,-199.195 256.475,-96.536C406.625,-2.151 353.042,49.55 417.405,69.277C481.766,89.005 556.4,23.098 622.638,-15.173C688.876,-53.444 896.422,-168.383 1023.01,-146.24C1149.6,-124.098 977.684,-387.164 977.684,-387.164C977.684,-387.164 703.718,-231.164 442.384,-285.454C181.051,-339.744 199.966,-387.678 100.061,-365.823Z" style="fill:none;fill-rule:nonzero;stroke:white;stroke-width:1px;"/>
                                </g>
                                <g transform="matrix(1,0,0,1,69.6035,338.712)">
                                    <path d="M0,-98.323C179.128,31.781 382.823,49.698 431.819,41.4C492.624,31.102 604.273,32.804 540.715,-51.651C481.943,-129.746 375.566,-109.476 219.621,-157.134C73.179,-201.887 -78.313,-165.682 -78.329,-165.69L-28.671,-122.746C-19.024,-114.411 -9.487,-106.313 0,-98.323Z" style="fill:none;fill-rule:nonzero;stroke:white;stroke-width:1px;"/>
                                </g>
                                <g transform="matrix(0.0422734,-0.999106,-0.999106,-0.0422734,406.756,105.725)">
                                    <path d="M-202.565,-229.539C-135.151,-184.48 -249.001,-56.968 -221.787,44.8C-198.511,131.84 -204.776,228.571 -202.565,234.417C-276.232,75.426 -325.693,-86.912 -327.681,-123.174C-330.611,-176.652 -263.686,-253.664 -202.565,-229.539Z" style="fill:none;fill-rule:nonzero;stroke:white;stroke-width:1px;"/>
                                </g>
                                <g transform="matrix(1,0,0,1,797.691,380.744)">
                                    <path d="M54.509,127.858C61.855,66.387 -38.579,-80.269 -96.921,-164.755L-96.951,-164.779C-67.144,-45.161 2.991,76.346 -137.882,114.368C-291.787,155.908 -590.049,-32.198 -592.29,-33.342C-234.106,228.391 36.331,279.974 54.509,127.858Z" style="fill:none;fill-rule:nonzero;stroke:white;stroke-width:1px;"/>
                                </g>
                                <g transform="matrix(1,0,0,1,1984.04,347.448)">
                                    <path d="M0,-536.679C0.724,-537.149 1.273,-537.509 1.648,-537.756C1.275,-537.51 0.722,-537.148 0,-536.679ZM1.744,-537.819C1.876,-537.907 1.991,-537.982 2.069,-538.034C1.99,-537.982 1.882,-537.909 1.744,-537.819ZM-889.318,-340.017C-1360.4,-423.26 -1413.37,-568.936 -1477.7,-500.828C-1538.9,-448.191 -1390.22,-286.335 -1283.27,-131.458L-1283.3,-131.482C-1253.49,-11.865 -1183.86,109.518 -1324.74,147.54C-1477.36,188.733 -1772.05,3.306 -1778.48,0.034C-1830.42,-37.907 -1885.33,-81.568 -1943.1,-131.482L-2280.49,-423.26C-2280.49,-423.26 -2132.29,-408.125 -1971.48,-451.639C-1810.67,-495.153 -1619.59,-669.207 -1456.89,-669.207C-1429.89,-669.207 -1399.37,-662.9 -1366.79,-653C-1366.59,-652.937 -1366.38,-652.873 -1366.17,-652.811L-1295.68,-627.014C-1337.37,-641.575 -1381.68,-652.626 -1387.52,-636.414C-1398.87,-604.882 -1247.7,-487.905 -1151.66,-449.747C-1145.06,-447.124 -1138.29,-444.492 -1131.39,-441.861C-1127.71,-440.458 -1093.99,-428.098 -1086.81,-425.599C-1085.31,-425.077 -1042.57,-410.908 -1042.33,-410.83C-1033.24,-407.956 -1023.98,-405.12 -1014.57,-402.33C-1014.48,-402.302 -980.361,-392.602 -977.886,-391.931C-977.064,-391.709 -955.735,-386.065 -945.681,-383.57C-945.537,-383.534 -945.395,-383.496 -945.25,-383.461C-809.311,-349.754 -648.567,-329.275 -482.06,-348.484C-481.931,-348.498 -481.803,-348.511 -481.675,-348.526C-477.51,-349.008 -473.342,-349.515 -469.17,-350.047C-211.565,-403.097 -22.758,-521.925 -0.054,-536.645C-33.856,-514.723 -438.397,-260.336 -889.318,-340.017Z" style="fill:none;fill-rule:nonzero;stroke:white;stroke-width:1px;"/>
                                </g>
                                <g transform="matrix(1,0,0,1,813.514,-391.409)">
                                    <path d="M0,1176.88C-47.037,1119.78 -139.899,1134.46 -210.678,1112.92C-390.843,1058.09 -521.261,900.795 -678.632,797.353C-896.706,654.01 -1109.61,510.554 -1308.36,341.439C-1507.12,172.324 -1724.35,15.139 -1974.96,-57.645C-2078.55,-87.728 -2186.26,-102.474 -2294.05,-103.72C-2472.2,-105.777 -2649.84,-71.543 -2817.5,-12.343C-2996.96,51.025 -3314.3,254.925 -3314.3,254.925L-3281.79,271.322C-2431.62,-184.125 -1869.25,149.11 -1869.25,149.11C-1628.92,275.523 -946.154,802.365 -701.468,939.026C-418.946,1102.99 -175.6,1198.31 -45.463,1246.41C5.847,1265.37 -11.901,1335.37 -22.538,1356.51C-22.472,1360.62 -24.602,1365.78 -29.665,1372.55C41.519,1352.39 47.037,1233.99 0,1176.88Z" style="fill:none;fill-rule:nonzero;stroke:white;stroke-width:1px;"/>
                                </g>
                                <g transform="matrix(1,0,0,1,-470.781,636.175)">
                                    <path d="M0,7.617C-0.111,7.653 -0.223,7.691 -0.334,7.728L-0.33,7.685C-0.223,7.663 -0.107,7.639 0,7.617ZM84.355,80.927C84.355,80.927 91.082,20.366 40.631,4.82C36.434,3.526 31.905,2.943 27.167,2.881C63.219,-1.817 119.767,-2.449 208.8,22.067C305.722,48.756 381.206,131.877 403.449,158.542C464.166,167.073 518.032,184.012 564.688,204.579L564.687,204.556C564.687,204.556 515.497,29.635 384.957,-38.473C299.821,-123.609 237.33,-217.072 8.469,-229.555C-188.078,-240.276 -223.076,-88.454 -183.346,-73.32C-183.346,-73.32 -274.685,-19.554 -274.685,84.29C-274.685,185.707 -169.604,247.893 -76.666,238.164C75.947,222.188 84.355,80.927 84.355,80.927Z" style="fill:none;fill-rule:nonzero;stroke:white;stroke-width:1px;"/>
                                </g>
                                <g transform="matrix(1,0,0,1,489.311,872.582)">
                                    <path d="M-40.165,-35.169C-165.747,-64.994 -359.77,-95.423 -435.881,-127.016C-407.583,-75.133 -395.406,-31.85 -395.406,-31.85L-395.404,-31.828C-256.446,29.428 -181.622,122.938 -181.622,122.938L-240.418,122.938L-191.841,156.731L214.314,119.808C198.031,107.423 90.189,-4.21 -40.165,-35.169Z" style="fill:none;fill-rule:nonzero;stroke:white;stroke-width:1px;"/>
                                </g>
                                <g transform="matrix(1,0,0,1,1575.26,781.105)">
                                    <path d="M0,-85.025C211.892,-299.439 428.258,-284.842 428.258,-284.842L428.258,-78.2C428.258,-78.2 166.486,-51.214 -121.081,132.421C-121.081,132.421 -252.253,214.414 -290.091,214.414L-413.694,214.414" style="fill:none;fill-rule:nonzero;stroke:white;stroke-width:1px;"/>
                                </g>
                                <g transform="matrix(1,0,0,1,864.92,-621.063)">
                                    <path d="M0,414.08C-51.759,393.253 -106.989,369.444 -154.999,349.387C-154.999,349.387 -176.558,341.498 -176.561,341.497C-195.689,334.498 -215.796,328.26 -235.982,325.248C-246.468,323.684 -264.276,318.87 -268.606,332.718C-272.764,346.017 -257.787,360.148 -249.999,369.022C-232.744,388.685 -212.493,405.808 -191.993,421.963C-167.103,441.578 -141.021,459.731 -114.052,476.371C-88.995,491.832 -63.039,506.278 -35.762,517.465C-34.692,517.903 -33.62,518.337 -32.545,518.764C-25.944,521.387 -19.175,524.018 -12.274,526.65C-8.599,528.053 25.126,540.413 32.305,542.912C33.803,543.434 76.543,557.603 76.788,557.681C85.879,560.555 95.135,563.39 104.544,566.181C104.639,566.209 138.754,575.909 141.23,576.58C142.052,576.802 163.381,582.446 173.435,584.941C173.579,584.977 173.721,585.015 173.866,585.05C309.805,618.757 470.548,639.236 637.056,620.027C637.185,620.013 637.313,620 637.441,619.985C641.606,619.503 645.774,618.996 649.946,618.464C924.817,561.858 1121.36,430.359 1121.36,430.359L1156.88,441.482C1156.88,441.482 1121.38,-90.294 1121.36,-90.426C1120.28,-96.838 1115.3,-104.077 1112.23,-109.613C1103.48,-125.336 1092.67,-139.923 1080.33,-153.005C1062.78,-171.616 1042.01,-187.097 1019.19,-198.655C989.66,-213.611 953.729,-225.156 920.361,-223.026C894.4,-221.369 858.36,-213.272 848.702,-185.324C840.108,-160.456 849.096,-129.091 873.136,-116.788C879.422,-113.57 886.727,-111.237 893.853,-111.237C944.034,-113.061 931.718,-167.871 931.691,-167.994C932.741,-163.334 927.26,-153.889 924.776,-150.085C921.304,-144.771 916.214,-140.108 909.632,-139.507C895.671,-138.23 886.919,-154.055 895.325,-165.261C905.415,-178.715 970.16,-175.352 1018.09,-114.811C1066.02,-54.271 1079.26,206.601 787.907,320.115C496.555,433.629 417.707,331.666 417.095,320.115C416.484,308.564 454.597,302.755 432.23,276.601C382.84,218.849 272.674,239.958 208.987,287.953C114.352,371.893 226.014,426.061 180.608,462.007C163.606,475.467 86.67,448.954 0,414.08" style="fill:none;fill-rule:nonzero;stroke:white;stroke-width:1px;"/>
                                </g>
                            </g>
                        </g>
                    </g>
                </g>
            </g>
        </g>
    </g>
</svg>
