<svg viewBox="0 0 375 950" xmlns="http://www.w3.org/2000/svg" fill-rule="evenodd" clip-rule="evenodd" stroke-miterlimit="10"><path fill="none" d="M0 0h375v950H0z"/><g opacity=".37"><clipPath id="a"><path clip-rule="nonzero" d="M0 0h375v937.382H0z"/></clipPath><g clip-path="url(#a)"><path d="M1204.04 233.66C969.547 409.034 688.979 382.474 581.899 363.504c-107.079-18.971-234.393-60.706-249.569-21.921-15.177 38.784 42.156 192.236 209.099 294.301C708.371 737.948 715.116 824.79 715.116 824.79c6.745 183.05-196.795 204.67-196.795 204.67l134.403-15.545s134.903-56.838 276.55-200.173c141.649-143.334 286.287-133.576 286.287-133.576L1204.04 233.66zM399.086 51.9853c19.904 18.782 44.223 32.488 69.172 43.377 10.575 4.615 21.365 8.733 32.281 12.467 101.166-7.786 166.165-11.729 166.18-11.73-.008.001-.016.003-.024.004 29.863-4.142 59.051 1.441 76.669 22.042 14.952 17.484-10.526 21.367-10.117 29.089.408 7.722 53.118 75.883 247.884 0 124.013-48.317 165.462-136.564 170.949-204.756 0 0-144.39 171.873-366.98 149.109 0 0-115.089-5.592-263.06-103.341 0 0-52.236-39.802-7.589 29.825 41.906 65.352-147.37-37.974-81.376-158.931-18.437 9.276-35.805 21.279-48.797 37.441-12.944 16.102-19.983 36.154-22.614 56.482-2.18 16.848-.827 34.082 4.728 50.18 6.479 18.78 18.322 35.181 32.694 48.742zM81.9189 1013.911s-112.56-140.731-313.648-138.201c-201.09 2.529-258.002 138.201-258.002 138.201h571.65zM102.403 202.535c-1.334-2.092-4.092-2.696-6.568-2.861-12.883-.863-25.196 5.059-36.361 11.547-23.394 13.593-44.816 30.286-67.195 45.494-73.474 49.931-158.517 84.022-246.934 92.617-2.432.236-4.888.433-7.32.267l42.397 36.665c121.042-19.472 230.332-87.597 318.18-173.248 2.894-2.821 5.975-7.074 3.801-10.481z" fill="none" stroke="#fff"/><path d="M-254.654 349.332c88.417-8.595 173.46-42.686 246.934-92.617 22.378-15.208 43.8-31.901 67.195-45.494 11.165-6.488 23.477-12.41 36.36-11.547 2.477.165 5.235.769 6.569 2.861 2.173 3.407-.908 7.66-3.801 10.482-87.849 85.65-197.139 153.775-318.181 173.248l34.527 29.859c.876-.203 1.746-.459 2.596-.733 83.369-26.838 158.616-75.042 225.374-131.735 27.591-23.43 54.199-48.742 73.422-79.414 3.425-5.464 6.525-12.867 2.498-17.905-2.752-3.442-7.711-4.078-12.114-3.902-15.366.615-29.643 7.76-43.073 15.252-55.556 30.993-106.486 70.666-165.17 95.226-28.876 12.084-59.21 20.299-89.855 26.462-15.609 3.14-31.319 5.751-47.064 8.102-8.094 1.209-16.197 2.344-24.305 3.448-5.097.694-12.887.524-18.283 2.199l19.051 16.476c2.431.166 4.887-.032 7.32-.268zM-77.2393 509.112c119.746 86.974 269.149 103.934 298.277 106.769 41.033 3.994 105.674-19.112 63.186-75.569-39.288-52.206-129.513-30.105-231.815-33.897-102.294-3.791-182-42.331-182.01-42.337l33.196 28.709c6.448 5.571 12.823 10.984 19.166 16.325z" fill="none" stroke="#fff"/><path d="M295.7265234 560.8694683c-28.1889878-46.29902205-121.04560692-29.5834284-188.49828102-9.3487831-64.93054342 19.48058986-117.53241842-2.12036755-121.37344577-3.7622076 104.1071961 53.69493886 211.03532243 65.76992663 235.19747079 68.12244087 35.63626768 3.46755872 89.061596-13.50715367 74.674256-55.01145017z" fill="none" stroke="#fff"/><path d="M409.48 645.464c4.911-41.093-25.789-96.183-64.791-152.661l-.02-.016c19.926 79.962 40.24 123.533-53.932 148.95-102.884 27.769-275.699-60.321-277.197-61.086 239.443 174.965 383.789 166.501 395.94 64.813z" fill="none" stroke="#fff"/><path d="M1202.54 221.916c.483-.314.851-.555 1.102-.72-.249.164-.62.407-1.102.72zm1.165-.762c.089-.058.166-.109.218-.144-.053.035-.125.083-.218.144zM608.039 353.383c-314.913-55.648-350.326-153.03-393.326-107.501-40.913 35.187 58.479 143.387 129.975 246.92l-.019-.015c19.926 79.962 40.239 123.533-53.933 148.95C188.71 669.274 17.94 582.891 13.64 580.703c-34.72-25.362-71.43-54.55-110.05-87.916l-225.54-195.052s99.07 10.118 206.57-18.97c107.5-29.089 235.24-145.443 344.005-145.443 18.045 0 38.448 4.217 60.228 10.834.137.042.275.085.413.127l47.127 17.245c-27.87-9.735-57.494-17.122-61.395-6.284-7.588 21.078 93.468 99.277 157.668 124.785 4.412 1.753 8.937 3.513 13.551 5.273 2.457.936 25.002 9.199 29.801 10.87 1.001.348 29.572 9.821 29.736 9.873 6.077 1.921 12.265 3.817 18.555 5.682.063.018 22.869 6.503 24.524 6.952.549.148 14.808 3.921 21.527 5.59.097.023.193.048.289.072 90.874 22.533 198.329 36.222 309.639 23.382.086-.01.171-.019.257-.029 2.784-.322 5.57-.661 8.359-1.016 172.206-35.464 298.422-114.9 313.6-124.74-22.597 14.655-293.028 184.71-594.465 131.445zM420.058 873.498c-31.443-38.175-82.811-51.938-130.125-66.338-120.438-36.652-235.586-90.645-340.787-159.796-145.78-95.823-270.85-219.302-403.715-332.353C-587.432 201.958-732.652 96.883-900.182 48.227c-69.25-20.111-141.26-29.968-213.31-30.8-119.09-1.376-237.84 21.509-349.93 61.085-119.96 42.359-332.1 178.665-332.1 178.665l21.73 10.961c568.33-304.462 944.27-81.698 944.27-81.698 160.66 84.506 602.008 463.431 765.578 554.788 188.863 109.609 409.768 137.432 453.61 178.747 28.204 26.576 20.122 51.753 13.012 65.888.044 2.746-1.38 6.194-4.765 10.72 47.586-13.475 53.588-84.91 22.145-123.085zM203.332 951.593C119.381 931.655-37.171 867.939-88.051 846.82c18.917 34.683 27.058 63.617 27.058 63.617l.001.014c92.891 40.95 142.911 103.46 142.911 103.46H42.614l32.473 22.59 271.512-24.682c-10.885-8.28-56.126-39.531-143.267-60.226z" fill="none" stroke="#fff"/><path d="M350.807 166.802c-4.649-1.773-9.505-3.56-14.413-5.273l14.413 5.273zM288.961 144.171l-.107-.015c.137.042.275.085.413.127l-.306-.112z" fill="none" stroke="#fff"/><path d="M350.807 166.802c-21.178-8.613-41.914-16.532-61.54-22.519l47.127 17.246c4.908 1.713 9.764 3.5 14.413 5.273z" fill="none" stroke="#fff"/><path d="M454.423 210.0488c-34.601-13.923-71.521-29.838-103.616-43.247 0 0-14.411-5.274-14.413-5.274-12.787-4.679-26.229-8.849-39.723-10.862-7.01-1.046-18.914-4.264-21.809 4.993-2.78 8.89 7.233 18.337 12.439 24.27 11.535 13.144 25.072 24.59 38.776 35.39 16.639 13.113 34.075 25.248 52.103 36.371 16.751 10.336 34.101 19.993 52.336 27.47.716.294 1.432.584 2.151.869 4.412 1.753 8.938 3.513 13.551 5.273 2.457.936 25.002 9.199 29.801 10.87 1.001.349 29.572 9.821 29.736 9.873 6.077 1.921 12.265 3.817 18.555 5.682.063.018 22.869 6.504 24.524 6.952.549.148 14.808 3.921 21.527 5.59.097.023.193.049.29.072 90.874 22.533 198.329 36.223 309.638 23.382.086-.01.171-.019.257-.028 2.784-.323 5.57-.662 8.359-1.017 183.748-37.841 315.138-125.746 315.138-125.746l23.746 7.435s-23.731-355.487-23.746-355.576c-.725-4.286-4.051-9.125-6.108-12.826-5.845-10.51-13.075-20.262-21.324-29.007-11.733-12.441-25.614-22.79-40.87-30.516-19.74-9.998-43.759-17.716-66.066-16.292-17.355 1.107-41.447 6.521-47.903 25.203-5.745 16.624.264 37.592 16.335 45.816 4.202 2.151 9.085 3.711 13.848 3.711 33.545-1.22 25.313-37.86 25.294-37.941.701 3.114-2.962 9.428-4.623 11.971-2.32 3.553-5.723 6.669-10.123 7.072-9.333.853-15.184-9.725-9.564-17.217 6.745-8.993 50.026-6.745 82.066 33.725 32.039 40.471 40.892 214.862-153.874 290.745-194.766 75.882-247.476 7.721-247.884 0-.409-7.722 25.07-11.606 10.117-29.089-33.016-38.608-106.661-24.495-149.236 7.589-63.262 56.113 11.383 92.324-18.971 116.353-11.365 8.998-62.796-8.727-120.734-32.039" fill="none" stroke="#fff"/><path d="M493.62 108.331c-.364.024-.727.05-1.094.074-103.612 7.026-299.303 1.738-330.575-140.511-5.183-23.572 23.745-51.959 65.862 25.204 0 0 13.491-40.976 5.626-78.45-41.638 6.669-90.574-1.034-143.931-30.052-1.533-.834-3.036-1.69-4.514-2.565C67.563-94.413-46.38-76.131-34.09-42.728c21.347 58.02-98.726 108.709-98.726 108.709-50.279 34.529 15.753 72.155 15.753 72.155-94.431 14.088-147.549-7.343-147.549-7.343s-134.06-32.039-107.923-109.608c32.693-97.026 252.337-112.982 310.817-99.492 0 0-78.109-17.706-143.031-10.117-311.121 35.412-270.65 262.217-270.65 262.217l-.934.737c80.782 61.377 154.387 123.205 154.387 123.205s99.069 10.118 206.57-18.97c107.5-29.089 235.236-145.443 344.002-145.443 18.045 0 38.448 4.217 60.227 10.834.138.042.276.085.413.127l47.127 17.245 14.414 5.275c32.094 13.407 69.015 29.324 103.616 43.246 57.937 23.312 109.369 41.036 120.734 32.039 30.354-24.029-44.291-60.24 18.971-116.354 19.862-14.967 46.484-26.017 72.591-29.634-.015.001-65.014 3.943-166.18 11.729-2.25.173-4.568.34-6.919.502z" fill="none" stroke="#fff"/><path d="M835.966-336.1855c-41.969-33.741-122.685-52.933-232.703-16.985-141.93 46.373-286.509 194.5-404.549 191.127-31.804-.909-116.755-25.258-90.618-116.88 13.699-46.001 63.539-65.233 162.687-.051 97.388 64.024 120.57-10.961 120.57-10.961s4.959-26.62-8.432-28.667c0 0 .422-46.794-32.883-43.422-33.303 3.373-30.488 42.372-5.379 46.46l.151.549c1.23 4.757.984 10.146-2.781 15.384-6.078 8.454-31.197 12.225-64.5-10.96-33.305-23.187-150.167-143.008-231.444-43.844-41.881 51.099-52.696 186.756 43.423 239.031 90.318 49.12 167.981 37.195 218.998-2.199 3.275-2.529 6.441-5.172 9.493-7.919-85.605 146.033 33.498 229.234 34.594 229.995 54.083 7.846 108.634 6.382 147.946 3.357-10.916-3.734-21.706-7.852-32.281-12.467-24.949-10.889-49.268-24.595-69.172-43.377-14.372-13.561-26.215-29.962-32.694-48.742-5.555-16.098-6.907-33.332-4.728-50.18 2.631-20.328 9.67-40.38 22.615-56.482 14.72-18.315 35.062-31.288 56.211-41.004 15.014-6.899 30.737-11.513 46.138-17.355 14.722-5.584 33.219-7.233 46.394 3.016 7.088 5.513 11.821 14.709 8.923 23.687-4.162 12.884-20.459 17.43-29.181 7.866-9.255-10.152-1.135-19.018 1.305-22.574-16.95-.091-55.506 26.84-22.764 60.285 20.089 20.52 59.17 14.009 78.868-7.846 18.678-20.724 14.137-56.76-.636-78.205-12.252-17.784-52.275-53.4-22.484-89.373 29.791-35.975 78.131-33.164 100.053-26.419 0 0-18.687-3.588-17.987 14.615.7 18.202 16.301 24.731 28.666 23.607 12.367-1.124 38.448-10.558 34.288-42.368-.941-7.2-5.727-12.836-12.497-17.245l.131.031c.068-.039.134-.08.201-.119 19.806-11.437 45.042-15.307 67.39-11.309 39.331 7.037 95.739 50.135 69.217 94.741-9.909 16.664-22.054 16.779-30.828 11.806-10.276-5.826-10.887-23.54 1.535-28.516 12.422-4.976 22.2 12.632 22.2 12.632s9.485-20.219-9.185-28.324c-14.003-6.08-43.594-3.565-48.707 27.997-5.112 31.562 14.422 49.501 38.561 53.363 87.514 14.004 103.814-109.174 45.875-155.756z" fill="none" stroke="#fff"/></g></g></svg>