<svg xmlns="http://www.w3.org/2000/svg" fill-rule="evenodd" stroke-miterlimit="10" clip-rule="evenodd" viewBox="0 0 375 740">
  <path fill="none" d="M0 0h375v740H0z"/>
  <path fill="#fff" fill-rule="nonzero" d="M40.08491451 444.79939682l-1.83387255 1.00115155-.35320883-.37880901 5.36680928-2.9407515.44968403.48190857-3.28427774 5.24586286-.38491763-.41258104 1.1631932-1.79084404-1.12340976-1.20593739zm1.369108.8479846c.88175663-1.40081679 1.41077183-2.2152608 1.6566529-2.57223044-.40882024.25198968-1.42809869.81482552-2.65169584 1.50414778l.99504293 1.06808267zm2.34508949 6.17838974l4.34104069-4.04278902.48059251.51684657c-1.95453465 4.39440176-2.1722849 4.91905453-2.31488359 5.18053212.5880545-.61182287 1.24257298-1.22176535 1.93086348-1.86341662l1.8606387-1.73236909.35320883.37880901-4.37481272 4.07449783-.44968403-.48190857c2.03066936-4.65775976 2.28111156-5.14882333 2.3891379-5.37742615-.51872698.54705648-1.2427558 1.2207822-2.03512901 1.9590915l-1.85947273 1.7331694-.32150003-.34503698zm7.87943181 4.17683834l-1.44374382-1.55017406-1.82588352 1.70047746 1.54021901 1.65327362-.34405384.3213172-1.89342785-2.03208263 4.3746299-4.07548096 1.89342785 2.03208263-.34405384.32131721-1.54021902-1.65327362-1.55017406 1.44374382 1.44374382 1.55017407-.31046463.28862526zm-.01789547 4.26312278l3.50607338-4.93924492.38510046.41356419c-1.4360391 1.98093088-2.73135993 3.76684813-3.18442325 4.31695099.58143014-.41224813 3.33622553-2.0128711 4.62816707-2.76677693l.35320883.37880901c-.8403771 1.16935043-2.66945708 3.90282246-3.08490168 4.3543869.81952088-.57044335 3.33505957-2.01367143 4.56152027-2.76964049l.38510046.4135642-5.3060724 3.0759255-.38510046-.41356419c.84136024-1.16953325 2.59636875-3.70512811 3.05131247-4.32169495-.75117649.50585978-3.33505956 2.01367143-4.52694792 2.73676571l-.41680926-.44733622.03377203-.0317088zm7.09133543 7.61283275l3.47418175-4.9740001.38510046.41356419c-1.4360391 1.98093088-2.73135993 3.76684813-3.18442325 4.31695099.58143014-.41224813 3.33622553-2.0128711 4.62816707-2.76677693l.35320883.37880901c-.84136024 1.16953325-2.66945708 3.90282246-3.08588482 4.35456972.81952087-.57044335 3.33604271-2.01385425 4.56152027-2.76964048l.38510046.41356419-5.30508926 3.07574268-.38510046-.41356419c.84136024-1.16953325 2.59636875-3.70512811 3.05131247-4.32169495-.75099367.50684292-3.3360427 2.01385426-4.52676509 2.73774886l-.38510046-.41356419.03377203-.0317088zm8.94361944 5.17917147c-1.44689168 1.34825177-2.59453695 1.77323288-3.49292186.80923291-.86667612-.93022793-.39562012-2.01259107 1.08602673-3.39273446 1.44707451-1.34726863 2.589793-1.64012211 3.42359434-.74446652.86667612.93022793.46414733 1.94899064-1.0166992 3.32796807zm-2.02179467-2.16993736c-1.30903695 1.21988495-1.67511298 2.13930891-1.12895376 2.72431704.57725053.62092927 1.45374747.31858788 2.76296725-.90031393 1.37756415-1.28348537 1.60560263-2.07552566 1.06042655-2.66071661-.5453589-.5861741-1.41997544-.35029668-2.69444004.8367135zm3.77656747 4.33155278l-2.06702063 1.92433633-.35222569-.37899184 4.34005755-4.0426062 1.02675173 1.1018547c.67372573.72402882.61337037 1.4879383-.07590328 2.1297724-.65451847.60994247-1.2188532.55621148-1.61057802.34222204.27913736.57668618-.00319646 1.03299457-.58937056 1.57835348l-.17162676.16007562c-.37880901.35320883-.68927365.6418341-.86564436.93502049l-.35320884-.37880901c.14259869-.2614776.52159053-.61370329.90039954-.96691212l.10309956-.0964752c.61994612-.5770677.83661629-1.03642247.22667381-1.69094094l-.54517608-.58519095.03377203-.0317088zm.31028181-.28960841l.60994248.65451847c.5453589.5861741 1.08254596.47203914 1.5992097-.00953651.44733622-.41680926.59942282-.94450841.08595554-1.49592733l-.6418341-.68927365-1.65327362 1.54021902zm5.20443473 1.65031285l.35320883.37880902-4.03057605 3.75416375 1.47563544 1.58492924-.34423666.32033406-1.82866146-1.9627551 4.3746299-4.07548097zm3.14422128 3.37605758l.89838491.96399997c.93045937.99973828.69086975 2.12348095-.6866944 3.40696633-1.48182969 1.37916025-2.69289256 1.7365973-3.75171874.59900428l-.80289287-.86071758 4.37481272-4.07449782-.03189162-.03475518zm-3.67736722 4.13297277l.41699209.44831937c.83478448.89547276 1.78060895.52836497 3.05507355-.65864521 1.20513707-1.12224378 1.4360391-1.98093087.66602101-2.80707611l-.41797523-.44813654-3.72011142 3.46553849zm3.2783152 3.38061871l.35222569.37899184-.37880902.35320884-.35240851-.37997499.37899184-.35222569z"/>
  <clipPath id="a">
    <path d="M0 0h375v740H0z"/>
  </clipPath>
  <g clip-path="url(#a)">
    <path fill="none" stroke="#414042" d="M-197.488 40.206C10.117 95.8 27.97 310.769 238.879 376.201M947.932 506.3C466.07 84.323 382.472 369.346 170.9 465.323m784.092 175.313C404.291 95.312 486.296 413.975 209.33 501.679m828.83-49.109l-3.24-2.518c-105.848-84.657-254.161-171.473-419.372-184.087-165.21-12.614-320.276 71.095-474.373 170.027M40.381 800.485c26.189-70.48-71.012-204.717-274.06-291.619m485.566 293.837c39.808-109.579-302.71-167.471-503.283-411.97m372.22 386.66c36.545-91.782-192.006-136.129-328.493-301.838m-61.987-563.304c123.963 221.654 614.977 274.088 636.793 399.781M124.698-120.887c58.663 308.522 361.949 285.729 362.125 285.786M247.73 535.952c46.544-21.303 70.918-97.072 202.163-89.501M311.948 590.418c53.677-9.742 40.704-124.803 136.543-107.704m-564.113-31.869c237.146-17.843 255.688 311.228 473.097 297.889m154.126 29.2c-304.848-11.56-361.739-421.088-610.383-465.441m-118.368-198.23c165.141 48.172 365.939 429.438 782.793 642.173"/>
  </g>
</svg>
