<svg xmlns="http://www.w3.org/2000/svg" fill-rule="evenodd" stroke-miterlimit="10" clip-rule="evenodd" viewBox="0 0 375 740">
  <g>
    <path fill="none" d="M0 0h375v740H0z"/>
    <clipPath id="a">
      <path d="M0 0h375v740H0z"/>
    </clipPath>
    <g clip-path="url(#a)">
      <path fill="none" stroke="#414042" d="M351.336 808.5744c-2.526-183.34-116.257-173.407-142.498-163.75l-.002-.006s-5.062 2.072-8.497 5.079c-7.867 6.884-8.194 19.287-1.246 27.134 5.558 6.276 15.016 6.735 21.126 1.024 4.676-4.371 5.205-11.675 1.349-16.697l-.237-.241c6.92 6.982 11.193 16.592 11.193 27.199 0 21.343-19.653 38.695-40.995 38.695-19.564 0-36.501-11.631-44.258-28.265-2.916-6.251-4.544-13.224-4.544-20.576 0-18.506 10.313-34.603 25.506-42.856m-10.654-57.305c-8.033 1.663-15.993 4.806-23.448 9.51-30.714 19.378-41.231 57.882-23.49 85.999 8.493 13.462 21.631 22.109 36.694 25.332m229.083 101.853s18.499-105.38-51.273-172.813c-28.02-56.533-81.221-74.133-94.419-78.485-13.2-4.352-101.797-25.385-129.98 40.743-10.632 22.259 3.424 37.261 3.424 37.261m207.481 179.667c17.423-33.755 20.251-84.451 19.423-104.117m-182.681 102.91c49.779-6.66 94.1-20.647 113.127-47.859 42.161-60.302 22.002-97.622 10.168-111.813m-39.703 174.086c84.131-61.341 78.553-127.987 71.675-155.105m153.542-42.6c-13.94-310.094-470.706-114.153-665.345-59.728m704.818 189.225c-182.786-422.258-476.881-196.904-704.818-189.225m761.117.045l-2.801-2.177c-91.523-73.193-219.75-148.254-362.59-159.161-142.841-10.906-276.91 61.468-410.141 147.005m360.602-343.593c-12.585-11.333-19.781-27.587-18.122-44.882 3.626-37.796 42.28-61.333 80.609-61.333 77.134 0 168.041 116.696-76.214 211.016-15.791 6.103-56.641 27.239-74.825 46.42m257.389 69.193c27.027-14.413 62.545-53.861 44.629-63.317-35.458-18.714-135.122 42.569-135.122 42.569m-17.889-217.203c-1.719 17.919-17.639 31.052-35.558 29.333-22.399-2.149-38.815-22.048-36.666-44.448 2.686-27.998 29.811-51.001 55.56-45.832 25.749 5.169 77.225 66.202-53.346 156.613 0 0-79.566 49.909-81.197 82.118-3.447 68.103 155.336-59.295 214.61-95.886 50.425-31.128 131.002-57.615 185.68-42.246 111.806 31.429 53.638 159.427-.482 211.511 0 0-22.451 20.406-35.221 31.064m-719.788-541.227c32.1 90.09 103.766 167.457 108.245 159.246 4.479-8.212-73.858-134.672 14.93-32.101 113.383 130.984 349.942 198.82 349.942 198.82m-540.692-325.965c6.075 74.917 179.317 334.096 417.301 401.117m105.776-60.455c-115.461-12.94-322.265-114.976-322.265-114.976s14.931 29.611 74.652 81.37c59.676 51.719 164.697 84.122 164.849 84.172m266.917 114.278c133.455-58.315 120.717-134.882 80.344-150.674-123.032-48.12-277.235 104.214-293.155 119.241m-249.367 232.482c40.242-18.418 106.979-170.309 233.254-49.339m248.514 75.949c62.107 31.93 130.084 75.908 204.073 135.465m-630.318-114.984c46.41-8.423 113.016-11.236 195.878 3.548m102.789 26.122c16.032 5.193 37.224 11.799 53.907 18.327m100.615 46.449c41.503 22.123 84.285 48.663 127.868 80.349m-559.926-403.87c-3.251-35.201 37.208-100.112 95.595-123.454 25.643-10.252 53.243-23.736 77.847-40.553"/>
    </g>
  </g>
</svg>
