<svg xmlns="http://www.w3.org/2000/svg" fill-rule="evenodd" stroke-miterlimit="10" clip-rule="evenodd" viewBox="0 0 375 740">
  <g>
    <path fill="none" d="M0 0h375v740H0z"/>
    <clipPath id="a">
      <path d="M0 0h375v740H0z"/>
    </clipPath>
    <g clip-path="url(#a)">
      <path fill="none" stroke="#414042" d="M-197.488 40.206c42.389 198.467 320.031 146.244 436.367 335.995m776.343 180.731c-481.859-421.977-604.114-95.78-844.322-91.609m561.639 279.544C292.011 182.719 468.517 474.033 209.33 501.679m828.832-49.109l-3.24-2.518c-105.85-84.657-254.163-171.473-419.374-184.087-165.21-12.614-320.276 71.095-474.373 170.027M42.673 777.393c-136.333 5.919-73.304-181.625-276.352-268.527m408.024 284.095c-84.763.698 54.57-215.044-233.831-309.249m180.31 293.681C14.956 788.907 59.94 472.215-207.669 475.555M-70.114 55.839c40.377 157.968 278.972 75.143 437.251 256.193M80.148-36.164c270.924 15.271 291.613 273.222 406.675 201.063M247.73 535.952c128.073-57.747 81.748 38.935 216.179 11.265m-151.961 43.201c53.677-9.742 130.715-12.996 226.554 4.103m-567.843-194.21c-4.368 93.52 360.207 283.036 314.343 364.249m81.172 24.154c31.21-101.243-349.34-490.121-510.67-451.136m-72.654-223.315c165.141 48.172 365.939 429.438 782.793 642.173"/>
    </g>
  </g>
</svg>
