<svg xmlns="http://www.w3.org/2000/svg" fill-rule="evenodd" stroke-miterlimit="10" clip-rule="evenodd" viewBox="0 0 1440 950">
  <path fill="none" d="M0 0h1440v950H0z"/>
  <path fill="#fff" fill-rule="nonzero" d="M125.12636833 581.85639554l-2.19369616 1.79919912-.56676498-.41686882 6.41511437-5.27877985.72141325.53018218-3.05423238 7.82682528-.61776054-.45380733 1.09821248-2.6822671-1.80228604-1.32448348zm2.03968115.78582899c.82304624-2.09206318 1.32210801-3.31162862 1.55950313-3.8502831-.48136395.43911942-1.69827518 1.44801376-3.15559146 2.6768841l1.59608833 1.173399zm4.69067626 7.64707163l4.76664401-6.4893961.77296268.5679533c-1.49599458 6.35426484-1.65511625 7.10988542-1.77864413 7.49472423.62888464-.96482822 1.3484763-1.94315601 2.1044526-2.97331197l2.04352128-2.78144643.5662111.4160362-4.80441512 6.54094553-.7208594-.52934957c1.53020192-6.72532534 1.74031915-7.4440074 1.82662977-7.77646419-.55334239.86172937-1.3484763 1.94315602-2.21915244 3.12768152l-2.0421348 2.78172517-.51521555-.3790977zm11.56498336 3.5785523l-2.31778032-1.7021947-2.00575015 2.729897 2.47298247 1.81634067-.37826509.51466168-3.03919357-2.23237688 4.804969-6.54011293 3.0386397 2.23154428-.37826509.51466168-2.4724286-1.81550807-1.7021947 2.31778032 2.31778031 1.7021947-.34049396.46311225zm1.05351672 5.69117046l3.42747021-7.47338561.61859314.45325346c-1.41415976 3.00534197-2.69101333 5.71516569-3.15586778 6.56367061.67021955-.69686657 3.93995697-3.52895283 5.47336936-4.86008944l.5670437.41548235c-.82661003 1.7725521-2.57496877 5.88058234-3.0149978 6.58766343.94839572-.96839202 3.93995698-3.52895284 5.38349495-4.84714374l.61776053.45380733-6.29768333 5.44447525-.6183144-.45463994c.82577743-1.77199823 2.52615054-5.59828852 2.97778055-6.5352814-.87423995.86501443-3.94051085 3.52812024-5.3471103 4.79531558l-.66930996-.49157845.03777113-.05154943zm11.38242513 8.36127549l3.3767534-7.5117106.61776053.45380733c-1.41415976 3.00534197-2.69101333 5.71516568-3.15586778 6.56367061.67105216-.69742044 3.93995697-3.52895284 5.47420196-4.8606433l.5662111.4160362c-.82577743 1.77199824-2.57469003 5.87919588-3.01555166 6.58683083.94978219-.96811328 3.94051084-3.52812023 5.38488141-4.846865l.61776053.45380733-6.29851593 5.44502912-.6183144-.45463994c.82661004-1.7725521 2.52615054-5.59828852 2.97722668-6.536114-.87285347.86529316-3.93995698 3.52895284-5.34572382 4.79559431l-.61859314-.45325346.03777112-.05154943zm13.23744653 4.64829856c-1.58888134 2.16313204-3.01199028 3.02094188-4.45426293 1.96141012-1.39072321-1.02176063-1.03554135-2.58399736.59194372-4.79923269 1.58888133-2.16313203 3.03871428-2.8417469 4.3781668-1.85914387 1.39072323 1.02176064 1.11080487 2.48228498-.51584759 4.69696644zm-3.24455868-2.38401524c-1.43779685 1.95693433-1.69288979 3.27603482-.81766085 3.92008424.9270571.68043406 2.02044046.05637854 3.4582373-1.90055578 1.51278523-2.06086578 1.61679368-3.17376856.741286-3.8164315-.87606154-.64349555-1.98183673-.10848185-3.38186245 1.79690304zm6.1321139 4.82175723l-2.270148 3.090743-.56621111-.4160362 4.766644-6.4893961 1.6479165 1.20978364c1.08225924.79458003 1.19466302 1.82837678.4378541 2.8590866-.71903779.9791604-1.48487288 1.05022925-2.06268497.86410483.51822547.69777617.25739142 1.37813324-.38610413 2.25419478l-.18940948.25691454c-.41603621.5662111-.7559763 1.03015596-.91866178 1.46626546l-.5662111-.4160362c.12436048-.38539269.54039669-.9516038.9564329-1.5178149l.11331336-.15464828c.68126667-.92761097.85333405-1.59335714-.12443987-2.3121162l-.87606155-.64349554.03777113-.05154943zm.34049396-.46311224l.97860653.71820518c.87606154.64349555 1.5627906.35601447 2.1307439-.41694821.49157845-.66930996.56082571-1.41198484-.26313253-2.01687666l-1.03070983-.75680892-1.81550807 2.4724286zm7.35832764.88571736l.56704371.41548235-4.42615004 6.02628385 2.36849715 1.74051969-.3782651.51466167-2.93554084-2.15600203 4.80441512-6.54094553zm5.04712346 3.70711225l1.44227264 1.05953176c1.49382208 1.09730288 1.45870516 2.65680841-.05463394 4.71684159-1.62665245 2.21468146-3.15286025 2.99694906-4.85288004 1.7485617l-1.28762436-.9462184 4.80441513-6.54094553-.05154943-.03777112zm-3.85910633 6.4417662l.66930996.49157845c1.33917379.98398951 2.50809939.25683514 3.90757125-1.64938236 1.32448348-1.80228604 1.41471362-3.00450937.17780608-3.91240277l-.66930996-.49157846-4.08537733 5.56178513zm5.22548582 3.6809421l.5670437.41548234-.4168688.56676498-.56621111-.41603621.4160362-.5662111z"/>
  <clipPath id="a">
    <path d="M0 0h1440v950H0z"/>
  </clipPath>
  <g clip-path="url(#a)">
    <path fill="none" stroke="#414042" d="M1157.25 966.366c-3.59-260.706-165.317-246.582-202.632-232.85l-.003-.007s-7.197 2.947-12.082 7.222c-11.187 9.789-11.653 27.426-1.773 38.584 7.904 8.926 21.354 9.578 30.042 1.457 6.649-6.215 7.402-16.603 1.918-23.744l-.337-.343c9.84 9.93 15.918 23.594 15.918 38.678 0 30.353-27.948 55.023-58.297 55.023-27.82 0-51.903-16.54-62.935-40.19-4.146-8.891-6.461-18.806-6.461-29.262 0-26.315 14.665-49.204 36.27-60.94m-15.149-81.489c-11.425 2.365-22.744 6.837-33.345 13.525-43.675 27.556-58.63 82.307-33.403 122.291 12.078 19.143 30.759 31.435 52.18 36.025m325.759 144.83s26.3-149.85-72.91-245.738c-39.85-80.391-115.5-105.419-134.268-111.607-18.769-6.189-144.755-36.097-184.831 57.937-15.119 31.653 4.869 52.985 4.869 52.985m295.04 255.483c24.77-48 28.8-120.09 27.62-148.05m-259.776 146.34c70.786-9.47 133.816-29.36 160.866-68.06 59.95-85.75 31.29-138.816 14.46-158.995m-56.457 247.545c119.637-87.22 111.707-181.995 101.927-220.555M-75.2 110.032c132.31 153.676 365.959 198.237 536.494 413.09M1480.56 753.047C888.132 234.246 621.788 498.951 361.67 616.951M1729.1 1049.21C1052.05 378.758 689.158 480.44 383.75 638.505m1060.23-21.49l-3.98-3.096C1309.85 509.838 1127.51 403.1 924.393 387.593 721.274 372.084 530.627 475 341.172 596.633M220.068 1016.37C154.34 985.406 129.94 793.069-119.69 686.228m596.978 361.262C419.144 1006.44 213.1 656.809-141.48 540.989m457.631 475.381C271.18 977.046 153.02 716.5-87.72 645.273m941.669-537.231c-17.897-16.116-28.13-39.229-25.77-63.821 5.156-53.748 60.123-87.216 114.628-87.216 109.683 0 238.953 165.942-108.377 300.065-22.455 8.679-80.545 38.734-106.402 66.01m366.012 98.392c38.43-20.496 88.94-76.59 63.46-90.037-50.42-26.612-192.146 60.533-192.146 60.533m-76.001-267.151c-31.852-3.055-55.195-31.353-52.139-63.205 3.819-39.814 42.39-72.524 79.006-65.174 36.615 7.351 109.81 94.141-75.858 222.704 0 0-113.144 70.97-115.463 116.772-4.902 96.844 220.889-84.317 305.181-136.35 71.7-44.264 186.28-81.929 264.03-60.073 158.99 44.691 76.27 226.705-.68 300.768 0 0-31.93 29.018-50.09 44.173m168.16-42.178c-48.81 60.138-40.09 120.472-40.09 120.472M367.457-175.169c28.238 79.25 91.28 147.308 95.22 140.084 3.94-7.224-9.356-149.081 43.419-42.046 77.242 156.657 386.48 255.46 386.48 255.46M110.96-278.594c8.64 106.533 254.627 474.311 593.041 569.615m149.217-81.012S491.438 125.51 415.216-42.995m-94.302-45.03c104.261 250.792 445 351.29 445.217 351.361m363.259 170.303c189.78-82.926 171.66-191.804 114.25-214.259-174.95-68.428-394.226 148.192-416.865 169.558M472.176 719.529c57.224-26.19 170.326-79.469 331.687-70.16M1157.25 757.37c88.32 45.403 184.98 107.936 290.19 192.626M551.129 786.493c65.995-11.978 160.71-15.978 278.539 5.045m146.166 37.148c22.798 7.38 52.936 16.77 76.656 26.06m143.08 66.05c59.01 31.46 119.85 69.2 181.82 114.264M-229.74 463.816c353.21-17.123 733.077 529.84 867.204 553.074m159.13.15C585.488 989.236 75.96 383.885-229.74 329.353m130.37-128.272c203.03 59.226 449.904 527.976 962.406 789.525M1337.8 486.163c-7.34 19.158-9.94 32.6-11.23 46.483M1403 411.555c18.96-16.495 28.49-34.893 23.23-48.76-5.33-14.083-36.54-24.655-61.97-26.02m-76.03 172.49s141.93-57.935 174.49-119.147c29.02-54.556-8.9-115.876-77.9-136.677 23.85 8.572 87.12 38.208 81.16 85.883-10.94 87.54-171.99 100.889-172.55 100.935m-712.253 20.489c-4.623-50.057 52.91-142.358 135.938-175.553 36.464-14.577 75.71-33.751 110.698-57.666"/>
  </g>
</svg>
