<svg xmlns="http://www.w3.org/2000/svg" fill-rule="evenodd" stroke-miterlimit="10" clip-rule="evenodd" viewBox="0 0 375 740">
  <path fill="none" d="M0 0h375v740H0z"/>
  <g fill="#fff" fill-rule="nonzero">
    <path d="M186.9210244 451.1470268l.6486528 1.9862236-.4370542.277739-1.9099436-5.8142252.5562508-.353486 4.5575178 4.1875234-.4767864.302988-1.5480102-1.4704778-1.390627.883715zm1.0839216-1.1908068c-1.2160558-1.1236538-1.9196968-1.7920528-2.2264022-2.0991446.1730256.44782.5406084 1.5528868.994704 2.8818636l1.2316982-.782719zM194.508329 448.7796566l-3.181374-5.0062572.595983-.378735c3.962694 2.7248668 4.439094 3.035676 4.6700524 3.2235712-.4942142-.6899306-.9739452-1.4448424-1.4789252-2.2394864l-1.363446-2.1455388.4370542-.277739 3.206623 5.0459894-.5562508.353486c-4.2081356-2.8477808-4.6448034-3.183839-4.8505128-3.332002.4437162.6104662.9739452 1.4448424 1.5546722 2.358683l1.363446 2.1455388-.397322.25249zM200.0549548 441.7966892l-1.787949 1.136205 1.338197 2.1058066 1.9071456-1.211952.25249.397322-2.3441998 1.489691-3.206623-5.0459894 2.3441998-1.489691.25249.397322-1.9071456 1.211952 1.136205 1.787949 1.787949-1.136205.227241.3575898zM204.242718 442.5936516l-4.2144112-4.3497832.4767864-.302988c1.685021 1.7738522 3.2040648 3.3742924 3.6622642 3.9197774-.2992706-.646481-1.3697216-3.6475412-1.8743152-5.0559824l.4370542-.277739c.9958632 1.040472 3.3485104 3.3382776 3.7164796 3.8295472-.4110324-.9101232-1.3697216-3.6475412-1.8887984-4.9910012l.4767864-.302988 2.0543892 5.7782104-.4767864.302988c-.9958632-1.040472-3.16805-3.2298468-3.6912306-3.789815.3605344.8306588 1.3697216 3.6475412 1.8635494 4.951269l-.5165186.328237-.025249-.0397322zM213.0235342 437.0136226l-4.2541434-4.3245342.4767864-.302988c1.685021 1.7738522 3.2040648 3.3742924 3.6622642 3.9197774-.2992706-.646481-1.3697216-3.6475412-1.8743152-5.0559824l.4370542-.277739c.9958632 1.040472 3.3485104 3.3382776 3.7164796 3.8295472-.4110324-.9101232-1.3697216-3.6475412-1.8887984-4.9910012l.4767864-.302988 2.0543892 5.7782104-.4767864.302988c-.9958632-1.040472-3.16805-3.2298468-3.6912306-3.789815.3605344.8306588 1.3697216 3.6475412 1.8635494 4.951269l-.4767864.302988-.025249-.0397322zM219.7513602 429.1684718c1.060458 1.6687524 1.269112 2.8748152.1566104 3.5817872-1.0727694.681723-2.0508184.0203724-3.1365254-1.6881122-1.060458-1.6687524-1.1391496-2.8458488-.1061124-3.5023228 1.0727694-.681723 2.0003204-.0998368 3.0860274 1.6086478zm-2.5031286 1.590687c.959462 1.5098236 1.7967828 2.0374944 2.4722302 1.6082614.7151796-.454482.5785552-1.3716536-.3809068-2.8814772-1.00996-1.589288-1.7462848-1.95803-2.4217322-1.528797-.6754474.429233-.6038042 1.3319214.3304088 2.8020128zM222.196556 427.8377096l1.51494 2.383932-.4370542.277739-3.181374-5.0062572 1.2714304-.807968c.8343762-.530229 1.5744184-.3311816 2.0793984.4634624.479731.7549118.3241332 1.3000104.0422904 1.646448.6175146-.1693082 1.0144502.191999 1.4436832.8674464l.126245.198661c.277739.4370542.50498.794644.7611874 1.0222714l-.4370542.277739c-.2309584-.1878952-.5086974-.6249494-.7864364-1.0620036l-.075747-.1191966c-.454482-.7151796-.8659008-1.0115056-1.6208126-.5317746l-.6754474.429233-.025249-.0397322zm-.227241-.3575898l.7549118-.479731c.6754474-.429233.6613506-.978049.2826156-1.574032-.328237-.5165186-.8191202-.7623466-1.4548354-.3583626l-.794644.50498 1.211952 1.9071456zM224.5430742 422.6652354l.4370542-.277739 2.954133 4.6486674 1.8276812-1.161454.25249.397322-2.2647354 1.439193-3.206623-5.0459894zM228.4368298 420.1908334l1.1125016-.706972c1.1522338-.732221 2.2134646-.291063 3.2234246 1.298225 1.085707 1.7084846 1.2148966 2.9650454-.096266 3.7982624l-.993305.631225-3.206623-5.0459894-.0397322.025249zm3.3911872 4.3709284l.5165186-.328237c1.0330372-.656474.8459148-1.65311-.0882982-3.1232014-.883715-1.390627-1.685021-1.7738522-2.6385938-1.1678762l-.5165186.328237 2.726892 4.2910776zM235.750739 421.9573974l.4370542-.277739.277739.4370542-.4370542.277739z"/>
  </g>
  <clipPath id="a">
    <path d="M0 0h375v740H0z"/>
  </clipPath>
  <g clip-path="url(#a)">
    <path fill="none" stroke="#414042" d="M-197.488 40.206C10.117 95.8 27.97 310.769 238.879 376.201M947.932 506.3C466.07 84.323 382.472 369.346 170.9 465.323m784.092 175.313C404.291 95.312 486.296 413.975 209.33 501.679m828.83-49.109l-3.24-2.518c-105.848-84.657-254.161-171.473-419.372-184.087-165.21-12.614-320.276 71.095-474.373 170.027M40.381 800.485c26.189-70.48-71.012-204.717-274.06-291.619m485.566 293.837c39.808-109.579-302.71-167.471-503.283-411.97m372.22 386.66c36.545-91.782-192.006-136.129-328.493-301.838m-61.987-563.304c123.963 221.654 614.977 274.088 636.793 399.781M124.698-120.887c58.663 308.522 361.949 285.729 362.125 285.786M247.73 535.952c46.544-21.303 70.918-97.072 202.163-89.501M311.948 590.418c53.677-9.742 40.704-124.803 136.543-107.704m-564.113-31.869c237.146-17.843 255.688 311.228 473.097 297.889m154.126 29.2c-304.848-11.56-361.739-421.088-610.383-465.441m-118.368-198.23c165.141 48.172 365.939 429.438 782.793 642.173"/>
  </g>
</svg>
