<?xml version="1.0" encoding="UTF-8" standalone="no"?>
<!DOCTYPE svg PUBLIC "-//W3C//DTD SVG 1.1//EN" "http://www.w3.org/Graphics/SVG/1.1/DTD/svg11.dtd">
<svg width="100%" height="100%" viewBox="0 0 1440 950" version="1.1" xmlns="http://www.w3.org/2000/svg" xmlns:xlink="http://www.w3.org/1999/xlink" xml:space="preserve" xmlns:serif="http://www.serif.com/" style="fill-rule:evenodd;clip-rule:evenodd;stroke-miterlimit:10;">
    <rect id="Page-1" serif:id="Page 1" x="0" y="0" width="1440" height="950" style="fill:none;"/>
    <clipPath id="_clip1">
        <rect id="Page-11" serif:id="Page 1" x="0" y="0" width="1440" height="950"/>
    </clipPath>
    <g clip-path="url(#_clip1)">
        <g id="BG">
            <g opacity="0.37">
                <g transform="matrix(1,0,0,1,-419.399,-1016.12)">
                    <clipPath id="_clip2">
                        <rect x="419.491" y="1016.12" width="1439.91" height="948.078" clip-rule="nonzero"/>
                    </clipPath>
                    <g clip-path="url(#_clip2)">
                        <path d="M0,1767.71C-129.359,1706.93 -128.468,1654.37 -116.259,1642.31C-95.49,1621.79 49.943,1702.33 86.046,1716.07M93.26,1711.03C-20.734,1665.85 -200.353,1531.68 -239.899,1514.98C-270.723,1499.2 -366.608,1446.04 -396.235,1498.43C-445.094,1603.65 -260.964,1801.42 -186.068,1851.2M-48.905,1654.48L-100.977,1629.17C-183.502,1578.43 -213.993,1565.76 -243.41,1585.77C-280.101,1610.08 -242.586,1735.53 -99.132,1815.59M881.405,1520C886.082,1522.38 1078.53,1642.6 1188.43,1608.99C1281.06,1580.65 1284.33,1510.91 1241.41,1424.39L1241.43,1424.4C1163.68,1311.81 1055.58,1194.14 1100.08,1155.87C1146.84,1106.35 1434.76,1338.09 1771.41,1307.69C1968.75,1289.87 2149.76,1145.77 2174.34,1129.83M1926.33,1270.14C1665.67,1324.01 1104.85,1153.42 1165.64,1057.3C1172.34,1046.71 1202.1,1053.54 1232.41,1064.13M-330.504,473.818C-353.693,452.937 -366.951,422.989 -363.895,391.126C-357.213,321.487 -284.717,264.756 -215.373,278.122C-146.029,291.487 -6.419,444.401 -355.795,666.91C-355.795,666.91 -434.52,712.982 -497.119,767.054M-17.825,878.904L-17.509,878.453C32.287,851.899 68.965,819.806 35.955,802.383C-29.376,767.904 -183.655,841.075 -183.655,841.075M395.858,1562.99C395.858,1562.99 350.469,1398.4 203.757,1348.89C124.697,1286.53 35.955,1297.54 13.948,1300.29C-8.059,1303.04 -150.187,1333.3 -145.602,1447.92C-145.71,1487.28 -118.093,1498.43 -118.093,1498.43C-118.093,1498.43 -116.259,1581.79 -3.474,1572.62C24.951,1595.22 56.512,1595.42 83.636,1580.01C166.853,1532.71 102.142,1463.62 72.05,1473.87C72.05,1473.87 98.45,1520.46 67.691,1522.9C26.005,1526.21 50.831,1474.42 52.801,1470.53C66.586,1443.3 121.881,1368.49 229.126,1415.82C279.918,1438.24 348.022,1495.24 356.276,1562.6M-26.398,1470.84C-26.398,1470.84 -42.445,1543.74 -3.474,1572.62M-40.28,1366.31C-144.941,1426.83 -112.022,1523.26 -112.022,1523.26M450.978,1789.37C450.999,1789.12 451.011,1788.96 451.019,1788.85C451.011,1788.96 450.999,1789.12 450.978,1789.37ZM503.479,1737.62C515.104,1767.02 523.475,1805.22 519.182,1852.6M598.393,1841.34C600.117,1812.49 591.882,1784.98 579.765,1760.85M453.313,699.415C585.391,669.895 562.487,583.016 559.033,575.204C555.995,576.768 552.895,578.527 549.778,580.387C532.453,653.197 486.969,646.901 457.745,645.989C428.521,645.079 341.396,586.709 379.516,486.632C417.636,386.555 515.198,403.766 515.198,403.766C515.198,403.766 577.12,408.318 544.337,381C511.555,353.682 478.854,346.223 450.729,362.889C250.208,304.061 200.615,444.691 186.285,505.861M-260.009,415.896C-253.264,419.543 -248.999,426.979 -249.777,435.092C-251.075,448.615 -263.089,458.526 -276.612,457.229C-293.516,455.607 -305.904,440.589 -304.283,423.686C-302.255,402.556 -283.483,387.069 -262.354,389.097C-235.941,391.631 -216.584,415.096 -219.118,441.509C-222.285,474.524 -251.617,498.72 -284.632,495.553C-325.901,491.594 -356.147,454.929 -352.188,413.659C-347.239,362.073 -297.263,319.692 -249.821,329.215C-202.379,338.739 -107.537,451.191 -348.109,617.769C-348.109,617.769 -492.651,709.862 -497.711,769.068C-501.799,816.891 -477.538,834.477 -391.956,789.24C-391.956,789.24 -186.608,661.776 -102.3,592.401C-17.993,523.026 139.065,486.247 239.807,514.566C445.805,572.472 338.633,808.303 238.918,904.265C238.918,904.265 198.858,941.379 175.332,961.016M-683.94,927.892C-599.978,883.413 -485.743,838.03 -363.906,833.835C-347.321,833.264 -329.039,832.922 -309.217,833.124C-272.985,833.495 -231.578,835.703 -185.842,841.73C-164.884,844.491 -143.019,848.052 -120.322,852.61C-87.78,859.143 -53.532,867.725 -17.825,878.904C42.744,897.867 107.517,924.319 175.332,961.016C191.375,969.194 210.304,980.596 230.866,994.041L244.036,1002.94C268.979,1019.96 320.978,1056.06 346.151,1076.3C434.004,1143.05 516.437,1212.26 516.437,1212.26L761.722,1424.39C803.721,1460.67 843.642,1492.42 881.405,1520L881.292,1519.94C1141.7,1710.23 1254.01,1684.67 1299.58,1641.68C1357.33,1587.19 1283.85,1485.83 1241.43,1424.4L1241.41,1424.39M516.437,1212.26C516.437,1212.26 624.179,1223.26 741.09,1191.63C858.001,1159.99 996.92,1033.45 1115.21,1033.45C1134.83,1033.45 1157.02,1038.04 1180.71,1045.24C1180.86,1045.28 1181.01,1045.33 1181.15,1045.38L1232.41,1064.13L1248.08,1069.87C1282.99,1084.45 1323.14,1101.76 1360.77,1116.9C1423.78,1142.25 1479.71,1161.53 1492.07,1151.74C1525.08,1125.61 1443.9,1086.23 1512.7,1025.2C1534.31,1008.93 1563.26,996.907 1591.65,992.974M1591.65,992.974C1591.63,992.975 1521.25,1003.62 1410.92,1005.73C1205.87,1009.66 1270.63,848.533 1077.29,866.91C950.19,878.991 958.51,1008.57 739.256,1038.69C607.63,1056.52 432.995,995.86 461.42,911.5C496.976,805.982 735.847,788.629 799.446,803.3C799.446,803.3 714.499,784.044 643.894,792.297C555.9,802.313 490.995,827.284 446.345,856.926M391.296,907.125C328.057,985.045 340.78,1072.19 340.78,1072.19M462.494,773.487C470.215,711.714 432.084,685.432 401.176,674.326C390.106,669.864 371.57,666.583 371.57,666.583M343.247,938.012C317.908,986.121 315.015,1035.65 315.284,1053.35M1829.18,723.281C1820.68,719.348 1795.18,707.246 1763.87,689.618C1752.99,693.395 1740.31,694.556 1725.82,692.237C1700.58,688.197 1679.98,669.995 1683.38,638.082C1665.23,624.626 1648.04,610.162 1633.57,595.119C1611.42,614.23 1594.66,638.859 1591.65,665.757C1590.03,679.007 1590.1,692.705 1591.77,706.474C1640.05,754.119 1729.71,827.289 1845.54,853.351M1845.54,853.351C1849.94,841.323 1853.44,826.431 1853.77,809.208C1824.05,803.612 1771.62,788.928 1725.67,751.242C1786.8,774.394 1811.32,778.981 1850.79,777.416M1986.14,668.532C1997.35,658.179 2015.68,654.621 2029.88,653.715C2039.31,653.113 2049.02,654.027 2058.63,655.991C2058.63,655.991 2058.63,655.99 2058.63,655.99M2208.94,596.31C1904.73,605.054 1877.69,553.181 1763.22,452.775C1958.55,620.61 2150.77,565.854 2194.82,549.975M2174.34,482.763C1742.9,558.682 1725.62,235.578 1730.53,173.49C1733.5,135.861 1765.84,62.688 1782.88,65.123C1799.93,67.558 1809.67,87.04 1801.15,87.04C1792.62,87.04 1757.31,104.086 1770.71,139.397C1790.19,186.884 1838.64,167.621 1838.64,167.621C1877.12,152.817 1891.48,81.779 1851.18,52.764C1765.81,-5.621 1700.56,78.934 1689.16,106.558C1663.26,115.281 1636.55,171.983 1627.83,201.061C1608.92,195.245 1556.59,203.968 1549.32,273.755C1541,375.433 1558.69,438.243 1592.43,487.495C1676.65,474.59 1739.48,493.713 1775.71,522.847C1820.1,558.536 1824.42,635.564 1789.82,672.65C1885.39,771.417 1850.2,851.397 1833.65,877.903M2055.61,727.147L2035.16,721.703C2031.34,728.754 2024.08,734.498 2010.61,734.987C2005.43,734.987 2000.12,733.29 1995.55,730.952C1982.15,724.093 1975.21,709.087 1975.5,694.31M1975.5,694.31C1901.28,651.799 1833.68,586.191 1833.68,586.191C1833.68,586.191 1898.18,636.017 1986.14,668.532M1671.91,569.965C1684.34,580.467 1697.39,591.111 1710.89,602.279C1720.36,599.77 1730.22,600.873 1736.86,603.754C1754.11,611.246 1749.26,628.245 1747.41,633.183C1749.72,635.199 1752.03,637.24 1754.36,639.306C1754.42,639.195 1754.49,639.104 1754.56,638.992C1773.57,607.016 1753.4,575.754 1725.18,555.967M1451,802.896C1432.75,807.045 1413.41,803.933 1400.88,791.129C1365.27,754.757 1395.11,723.071 1425.64,725.568C1422.98,729.434 1414.15,739.077 1424.22,750.116C1433.7,760.519 1451.43,755.575 1455.95,741.563C1459.11,731.798 1453.96,721.798 1446.25,715.802C1431.92,704.655 1408.74,699.438 1392.73,705.51C1375.98,711.863 1298.61,758.412 1284.49,775.988C1270.41,793.501 1262.75,815.308 1259.89,837.416C1257.52,855.738 1258.99,874.483 1265.03,891.988C1272.08,912.413 1284.96,930.25 1300.59,944.998C1322.24,965.424 1348.68,980.33 1375.82,992.172C1387.32,997.192 1399.05,1001.67 1410.92,1005.73M1591.65,992.974C1591.64,992.975 1591.63,992.977 1591.62,992.978C1624.1,988.473 1655.85,994.544 1675.01,1016.95C1691.27,1035.96 1663.56,1040.19 1664,1048.59C1664.45,1056.98 1721.77,1131.11 1933.59,1048.59C2068.45,996.038 2113.53,900.066 2119.5,825.904C2119.5,825.904 1962.47,1012.82 1720.39,988.066C1720.39,988.066 1595.23,981.985 1434.31,875.679C1434.31,875.679 1377.5,832.392 1426.05,908.114C1471.63,979.189 1273.85,862.941 1345.62,731.396M1617.1,560.352C1618.15,562.455 1618.91,564.692 1619.23,567.109C1623.75,601.702 1595.38,611.963 1581.93,613.186C1575.98,613.727 1569.35,612.629 1563.73,609.53C1552.71,622.705 1542.7,637.407 1534.64,653.708C1488.85,746.343 1528.1,853.205 1594.89,899.373C1660.16,944.494 1888.04,1046.74 2118.61,783.077C2115.67,760.493 2108.98,742.553 2100.93,732.389C2088.51,716.707 2074.55,706.324 2061.38,699.869C2056.69,744.386 2026.69,813.553 1898.23,860.969C1694.91,936.022 1577.31,783.257 1591.65,665.757C1598.39,605.575 1673.91,556.714 1724.81,555.707C1710.31,545.614 1693.74,538.545 1679.28,535.959C1672.55,534.755 1665.58,534.231 1658.56,534.332M1638.65,1193.54C1867.45,1244.71 2083.51,1101.67 2083.51,1071.97C2083.51,1063.71 2082.13,1038.96 2017.49,1063.71C1952.84,1088.47 1888.2,1100.85 1918.46,1066.46C1918.46,1066.46 1814.15,1103.49 1731.18,1098.22C1648.21,1092.94 1620.39,1047.86 1568.12,1066.57C1515.84,1085.27 1538.7,1171.18 1638.65,1193.54ZM2187.53,656.343C2187.53,656.343 2131.51,584.559 2058.63,655.99C2073.74,659.079 2088.61,664.786 2101.73,671.434C2118.32,679.836 2133.42,691.091 2146.18,704.621C2152.64,711.467 2158.51,718.888 2163.67,726.768M974.813,294.196C1052.51,161.686 1131.92,210.54 1146.51,225.765C1163.59,243.578 1160.35,270.452 1147.63,280.318C1132.78,291.831 1111.54,282.472 1109.7,267.8C1107.87,253.129 1131.71,246.711 1131.71,246.711C1131.71,246.711 1078.97,232.073 1077.86,278.833C1077.32,301.612 1093.46,315.891 1109.43,320.971C1136.1,329.454 1166.5,309.894 1177.66,285.957C1198.79,240.661 1163.11,192.394 1127.35,166.994C1100.75,148.105 1068.54,138.556 1036.07,137.792C1024.78,137.526 1013.52,138.298 1002.42,140.345C927.494,154.161 866.519,209.179 844.636,282.08C830.153,330.331 829.795,380.342 832.063,430.182C832.074,430.424 832.084,430.667 832.095,430.91M-427.536,1734.86C-461.721,1685.71 -539.108,1564.72 -534.855,1482.23C-532.652,1439.49 -498.206,1424.9 -457.953,1422.69C-601.793,1400.3 -730.678,1438.14 -763.345,1448.95M301.029,1580.01C294.687,1492.03 246.275,1424.39 246.272,1424.39M89.8,1984.8C136.171,1949.78 190.423,1891.03 217.464,1860.52M333.964,1903.03C266.396,1910.1 190.002,1864.89 190.002,1791.16C190.002,1715.67 256.406,1676.58 256.406,1676.58C227.522,1665.58 253.25,1551.1 395.858,1562.99C749.607,1592.51 800.234,1878.6 800.234,1878.6L800.235,1878.61C766.316,1863.66 727.155,1851.35 683.013,1845.14C666.841,1825.76 611.964,1765.33 541.5,1745.93C476.772,1728.1 416.188,1732.45 419.24,1733.39C455.918,1744.69 451.028,1788.72 451.028,1788.72C451.028,1788.72 444.915,1891.42 333.964,1903.03ZM-228.195,1866.52C-228.195,1866.52 175.556,1730.64 200.997,1580.01C226.437,1429.38 124.697,1406.81 124.697,1406.81L124.703,1406.8M-127.583,1921.72C-114.438,1928.28 98.307,1878.88 200.997,1689.99C303.686,1501.1 183.718,1402.12 183.718,1402.12L183.705,1402.11M1995.99,-35.69C1996.82,-20.279 2001.76,97.956 2080.81,125.133C2159.87,152.309 2176.01,102.074 2176.01,102.074L2176.01,29.486C2176.01,29.486 2146.7,102.074 2089.87,94.662C2033.05,87.25 2009.99,-35.69 2009.99,-35.69L1995.99,-35.69ZM2009.99,-35.69C2009.99,-35.69 2033.05,87.25 2089.87,94.662C2146.7,102.074 2176.01,29.486 2176.01,29.486L2176.01,-35.69L2009.99,-35.69ZM2001.94,-35.69L2009.99,-35.69L2001.93,-35.711C2001.93,-35.704 2001.93,-35.696 2001.94,-35.69ZM2062.04,493.557C2037.86,470.173 1939.43,362.427 2007.95,215.987C1997.29,224.525 1986.49,235.763 1975.82,250.378C1919.19,327.96 1968.98,443.716 1993.88,490.852M2061.53,329.127C2051,320.727 2008.25,282.315 2036.52,233.776C2053.64,204.381 2093.61,215.206 2114.51,224.867M2114.51,224.867C2125.25,212.91 2136.14,202.884 2145.7,194.925M2145.7,194.925L2146.35,194.185C2146.35,194.185 2073.23,159.297 2007.12,216.733M1874,454.16C1874.39,377.721 1929.17,345.056 1949.68,336.565C1949.74,322.209 1951.37,307.904 1955.1,294.058C1898.99,229.239 1864.05,138.679 1914.33,-35.69L1862.06,-35.69C1862.06,-35.69 1843.38,-6.969 1827.39,39.816C1835.12,42.955 1843.06,47.208 1851.18,52.764C1891.48,81.779 1877.12,152.817 1838.64,167.621C1838.64,167.621 1822.42,174.048 1804.97,170.284C1804.9,234.546 1820.04,372.557 1872.04,453.32M2176.01,381.248C2176.01,381.248 2120.39,373.902 2121.6,311.281C2122.81,248.661 2176.01,219.014 2176.01,219.014L2176.01,172.897M2176.01,172.897C2176.01,172.897 1963.55,297.508 2112.27,491.091C2131.94,489.322 2152.6,486.589 2174.34,482.763M2009.99,-35.69C2009.99,-35.69 2033.05,87.25 2089.87,94.662C2146.7,102.074 2176.01,29.486 2176.01,29.486M1968.36,261.847C1953.01,249.344 1859.95,163.719 1914.33,-35.69C1864.05,138.679 1898.99,229.239 1955.1,294.058C1958.08,282.953 1962.41,272.145 1968.36,261.847ZM1955.31,387.501C1926.89,404.3 1925.54,457.149 1926.38,476.007M413.759,353.437C510.677,270.324 502.285,193.193 459.685,175.416C436.625,165.794 387.722,162.858 376.633,202.208C363.302,249.515 405.058,255.391 416.979,253.557C408.726,281.983 192.345,312.886 -7.885,458.274C-7.885,458.274 -96.623,517.869 -131.182,561.485M145.471,368.094C72.444,138.36 -113.921,180.774 -150.229,187.135M-131.182,561.485C-43.069,348.062 -131.101,211.098 -150.229,187.135C-204.463,119.193 -282.228,125.673 -282.228,125.673C-302.4,127.507 -385.508,143.299 -397.137,200.965C-495.073,260.004 -477.538,372.333 -477.538,372.333C-474.249,396.343 -424.355,478.699 -443.611,511.709C-455.703,532.44 -472.037,564.893 -439.026,566.727C-406.016,568.561 -409.684,544.72 -406.933,521.796C-404.182,498.872 -395.013,491.536 -365.67,496.121C-336.328,500.706 -329.288,475.61 -329.288,475.61M-581.37,-152.135L-582.289,-221.973C-582.588,-197.497 -582.253,-174.247 -581.37,-152.135ZM-442.513,240.721C-487.876,203.77 -571.224,101.858 -581.37,-152.135L-578.492,66.565C-555.714,205.861 -505.005,283.724 -475.949,318.462M-477.421,374.767C-477.421,374.767 -612.901,255.964 -577.713,72.556M-580.577,-38.785L-606.333,-39.739C-606.333,-39.739 -721.403,141.938 -587.259,370.995M-652.047,157.146L-654.423,155.15C-849.872,-9.17 -922.461,105.112 -938.863,140.05C-915.646,165.654 -891.852,188.745 -867.889,209.549C-852.371,203.361 -822.388,185.26 -847.987,143.181L-850.292,138.346C-815.732,144.557 -787.149,171.705 -775.898,183.776C-698.313,172.423 -647.419,226.655 -642.223,232.462C-648.18,205.946 -651.194,180.74 -652.047,157.146ZM-642.223,232.462C-649.075,224.805 -735.394,132.887 -857.618,218.314C-845.181,228.759 -832.717,238.604 -820.28,247.878M-693.506,326.202C-568.186,389.075 -467.585,400.31 -467.585,400.31M-693.506,326.202C-813.805,265.848 -958.281,157.434 -1062.5,-35.69L-1130.87,-35.69C-1130.87,-35.69 -1020.83,270.093 -590.323,465.403C-590.323,465.403 -826.897,376.001 -1002.95,198.57C-1179.01,21.141 -1022.21,242.584 -1030.46,257.714C-1038.71,272.844 -1170.75,130.299 -1229.9,-35.69L-1276.66,-35.69C-1276.66,-35.69 -1203.76,270.093 -836.525,534.175C-606.828,685.472 -507.798,703.353 -507.798,703.353M-358.402,624.57C-571.134,600.73 -903.004,370.499 -906.671,380.127C-910.339,389.755 -879.163,434.686 -769.129,530.049C-659.177,625.34 -465.682,685.04 -465.4,685.132M-785.586,272.376C-758.732,274.44 -711.698,284.162 -693.297,325.786M-646.83,347.866C-699.512,245.728 -793.263,245.082 -820.28,247.878M-590.091,754.401C-670.407,713.677 -1001.77,602.557 -1267.84,223.728C-1425.62,-24.533 -1416.19,160.978 -1413.34,199.029C-1409.97,244.035 -1371.05,484.659 -1096.91,736.362C-961.803,859.308 -759.187,934.184 -719.994,947.937C-708.722,941.373 -696.687,934.645 -683.94,927.892C-682.607,927.186 -1015.7,816.637 -1139.49,626.828C-1263.28,437.02 -1281.16,380.627 -1260.53,370.999C-1230.27,353.587 -1047.34,559.433 -944.181,617.2C-843.026,673.847 -735.949,742.326 -608.627,772.199M-1457.37,451.191C-1457.37,451.191 -1274.27,820.099 -867.05,1039.6C-851.704,1031.44 -836.329,1023.5 -821.207,1015.98C-821.575,1016.16 -821.941,1016.34 -822.31,1016.53C-822.31,1016.53 -789.573,989.864 -735.09,956.895C-820.903,930.271 -1068.82,841.048 -1260.16,649.711C-1388.07,525.922 -1457.37,380.127 -1457.37,380.127M1319.87,2000.07C1344.57,1970.09 1398.38,1905.94 1337.51,1836.02C1302.2,1795.45 1233.34,1781.94 1181.88,1766.28C1050.9,1726.42 925.671,1667.7 811.261,1592.5C652.719,1488.28 516.701,1354 372.204,1231.05C227.707,1108.1 69.774,993.825 -112.422,940.91C-187.729,919.039 -266.04,908.319 -344.402,907.413C-473.92,905.917 -603.066,930.806 -724.958,973.846C-849.413,1017.79 -1065.08,1154.7 -1084.69,1167.23M1281.06,1993.02C1288.8,1977.65 1321.02,1917.87 1290.34,1888.97C1242.66,1844.04 1008.81,1812.48 803.417,1693.27C625.529,1593.92 139.154,1183.13 -35.567,1091.22C-35.567,1091.22 -444.419,848.958 -1062.5,1180.07M-380.492,168.673L-381.072,168.438C-381.072,168.438 -532.823,125.507 -494.968,-240.322C-584.78,-18.868 -482.205,164.118 -434.808,231.605M419.021,-77.776C419.021,-77.776 592.133,207.565 526.23,368.605M513.125,403.658C446.363,488.043 521.037,530.716 545.771,532.417M638.893,415.546C625.642,411.214 583.054,400.367 551.936,427.405C514.646,459.804 541.814,493.753 541.814,493.753C541.814,493.753 528.896,460.878 553.77,448.019C572.286,438.246 588.125,444.863 596.787,450.523M725.433,389.736C697.153,345.608 593.882,322.7 536.712,375.026M513.917,361.841C543.449,144.998 385.807,-75.39 385.807,-75.39M852.174,534.557C852.298,615.564 787.855,689.598 787.855,689.598C845.622,621.745 818.936,493.759 818.935,493.754L818.935,493.753C793.886,474.226 761.558,463.509 724.585,483.284C722.493,484.403 714.006,489.455 712.211,490.63C712.21,490.63 712.209,490.631 712.208,490.632C729.449,491.036 829.266,499.122 750.365,634.762C750.365,634.762 696.19,697.642 769.712,642.501C842.511,587.902 777.78,700.211 687.284,708.062C698.896,726.083 715.225,745.362 737.068,758.444C749.6,765.948 763.949,771.406 780.259,773.422C780.26,773.423 780.261,773.423 780.262,773.423C781.345,773.557 860.438,783.55 914.395,724.443C914.395,724.443 878.704,642.41 884.645,588.847C890.586,535.282 910.551,510.397 916.687,502.998C959.892,450.901 1011.61,454.418 1057.93,475.037C1055.87,458.329 1052.16,391.936 1122.46,385.784C1111.81,388.222 1101.23,395.652 1095.04,413.458C1078.99,459.613 1119.12,479.013 1133.84,482.358C1148.55,485.702 1212.4,485.6 1204.07,416.803C1198.2,367.231 1155.67,336.823 1128.33,322.547M687.284,708.062C671.09,682.934 620.971,550.3 712.208,490.632C712.209,490.631 712.21,490.63 712.211,490.63C714.007,489.455 722.493,484.403 724.585,483.284C761.558,463.509 793.886,474.226 818.935,493.753C830.316,502.626 841.98,514.832 852.075,529.3C862.429,543.732 884.555,588.633 884.645,588.847M904.46,521.619C895.77,503.641 831.009,383.324 711.718,389.763C711.718,389.763 606.774,392.957 556.149,516.987C547.711,538.081 528.152,547.64 492.024,543.987C464.208,541.175 452.985,563.42 463.337,582.8C473.689,602.179 494.556,607.268 515.649,599.675C536.743,592.081 569.649,560.862 586.524,570.987C603.399,581.112 608.461,636.799 545.181,688.268C500.904,724.279 481.015,728.891 473.052,728.417C487.208,759.696 479.738,798.948 458.275,839.298C558.685,795.159 595.99,692.761 603.131,670.213C597.894,688.884 581.128,761.515 626.472,794.131L627.683,794.343C632.988,793.608 638.388,792.923 643.894,792.297C714.499,784.044 799.446,803.3 799.446,803.3C863.045,817.972 950.672,872.717 924.129,961.999M1455.22,532.556C1449.64,524.786 1443.32,514.973 1438.26,507.066C1407.73,459.385 1385.8,405.398 1379.67,348.843C1376.64,320.86 1377.56,292.574 1382.27,264.912C1382.27,264.859 1382.28,264.818 1382.28,264.818L1382.3,264.783C1385.31,247.152 1389.85,229.774 1395.93,212.897C1408.82,177.139 1428.27,143.454 1453.51,114.983C1470.54,95.776 1491.62,76.003 1516.37,67.446C1521.65,65.621 1526.68,64.124 1531.5,62.865L1531.5,61.486C1454.48,22.975 1362.78,127.048 1362.78,127.048C1191.71,333.934 1345.13,572.207 1356.33,589.004C1389.01,568.75 1422.08,549.026 1455.23,532.553L1455.22,532.556ZM1307.77,216.451L1308.15,216.478C1320.7,186.518 1338.46,156.466 1362.78,127.048C1362.78,127.048 1378.88,108.783 1403.25,90.388C1407.09,70.727 1408.1,40.737 1390.29,11.054C1360.03,-39.379 1274.89,-27.066 1277.39,30.411C1278.47,55.276 1292.2,67.685 1309.79,69.925C1329.85,72.48 1338.99,64.835 1342.61,54.746L1342.52,57.11C1339.73,75.222 1330.58,105.106 1291.05,104.845C1211.48,104.319 1232.44,-80.268 1348,-176.922L1289.06,-159.235C1289.21,-155.112 1288.22,-149.812 1285.84,-143.127L1246.33,-35.711C1193.24,125.881 1307.77,216.451 1307.77,216.451ZM1282.89,328.143C1284.78,292.046 1292.3,254.336 1308.15,216.478L1307.77,216.451C1307.77,216.451 1193.24,125.881 1246.33,-35.711L1285.84,-143.127C1303.33,-192.205 1246.47,-167.182 1202.16,-142.066L1204.88,-141.41C1204.88,-141.41 1139.23,48.36 1206.2,212.984C1211.57,225.29 1217.15,236.994 1222.77,247.994C1237.76,275.522 1257.08,301.849 1281.79,325.874L1282.89,328.133L1282.89,328.143ZM1277.16,638.237C1303.17,622.457 1329.62,605.554 1356.33,588.997C1348.71,577.572 1275.74,464.345 1282.89,328.133L1281.79,325.874C1103.29,152.265 1204.88,-141.41 1204.88,-141.41L1130.84,-159.291M1161.32,481.454C1179.31,516.836 1198.3,546.165 1215.71,569.612C1227.28,570.296 1235.34,567.051 1238.54,562.601C1242.63,556.903 1242.9,551.042 1241.56,545.869L1241.4,545.273C1214.09,540.827 1211.03,498.414 1247.25,494.746C1283.47,491.078 1283.01,541.969 1283.01,541.969C1297.57,544.194 1292.18,573.146 1292.18,573.146C1292.18,573.146 1283.26,604.869 1250.82,612.195L1250.82,612.195C1230.9,616.696 1200.3,614.584 1161.05,585.066C1105.98,543.637 1057.52,540.235 1057.52,540.235C1016.54,535.277 993.143,554.842 984.125,585.121C957.441,678.658 1037.22,707.724 1075.71,711.751L1075.71,711.751C1078.22,712.014 1080.56,712.172 1082.68,712.233C1096.2,712.619 1110.04,711.158 1124.17,708.21M1725.67,951.425C1725.66,951.424 1725.66,951.424 1725.66,951.424C1725.66,951.424 1725.66,951.424 1725.67,951.425ZM1560.7,917.192L1565.39,919.915C1565.39,919.915 1602.76,943.849 1610.06,928.215C1614.48,918.745 1577.47,885.387 1577.47,885.387C1521.69,833.962 1493,737.954 1534.64,653.708C1542.7,637.407 1552.71,622.705 1563.73,609.53C1556.65,605.628 1551.18,598.547 1550.76,587.511C1550,567.714 1570.32,571.617 1570.32,571.617C1546.48,564.281 1493.91,561.225 1461.51,600.348C1429.11,639.472 1472.64,678.204 1485.96,697.545C1502.03,720.867 1506.96,760.059 1486.65,782.596C1478.4,791.756 1463.12,799.42 1451,802.896C1464.43,829.817 1496.01,878.836 1560.7,917.192ZM1617.1,560.353C1617.1,560.353 1617.1,560.352 1617.1,560.352C1632.17,549.404 1646.61,540.771 1658.56,534.332C1640.23,534.597 1621.57,539.264 1605.99,548.258C1605.92,548.301 1605.85,548.345 1605.78,548.388L1605.63,548.354C1610.72,551.669 1614.74,555.641 1617.1,560.353ZM1100.53,550.901C1074.7,643.833 1175.77,671.223 1208.55,676.778M1208.55,676.778C1242.46,659.795 1289.04,631.03 1277.16,638.237M1088.16,692.349L1106.86,711.079C1138.89,707.268 1173.79,694.083 1208.55,676.778L1201.9,675.549C1187.43,672.654 1165.7,666.894 1145.69,656.014L1145.67,656.006C1145.64,655.989 1145.61,655.972 1145.58,655.955C1141.14,653.533 1136.79,650.861 1132.62,647.91C1099.32,625.597 1084.16,602.129 1070.28,602.946C1054.69,603.863 1047.81,643.292 1088.16,692.349M1087.18,306.285C1013.8,281.671 952.955,288.408 896.098,327.151C857.659,353.345 839.573,400.318 832.095,430.91M1551.95,495.837C1519.4,417.873 1541.66,352.289 1547.58,337.445C1546.9,318.022 1547.42,296.911 1549.32,273.755C1550.03,266.878 1551.2,260.614 1552.72,254.879C1540.81,260.064 1498.99,280.153 1481.07,313.648C1422.24,393.871 1462.84,520.701 1465.15,527.716C1484.32,518.585 1503.5,510.627 1522.64,504.374C1532.64,501.106 1542.4,498.293 1551.95,495.837ZM1516.37,67.446C1491.62,76.003 1470.54,95.776 1453.51,114.983C1428.27,143.454 1408.82,177.139 1395.93,212.897C1380.29,256.293 1374.71,302.981 1379.67,348.843C1385.8,405.398 1407.73,459.385 1438.26,507.066C1443.32,514.973 1449.64,524.786 1455.22,532.556L1465.15,527.716C1462.84,520.701 1422.24,393.871 1481.07,313.648M1481.07,313.648C1415.26,189.246 1492,115.988 1549.07,94.238C1549.06,94.268 1516.33,147.818 1579,156.086C1636.83,163.713 1632.81,104.634 1626.55,90.963C1619.18,74.854 1590.65,41.772 1516.37,67.446M146.39,824.542C217.878,739.799 158.826,692.431 158.826,692.431C158.826,692.431 117.606,652.644 -27.315,671.259C-192.396,692.464 -321.025,821.172 -332.669,833.136L-309.219,833.125C-154.27,700.61 70.85,701.562 116.646,740.317C154.248,772.136 108.049,843.295 94.721,860.629M28.592,894.659C269.102,789.18 248.761,636.623 174.415,618.076C-64.487,558.476 -331.903,806.067 -361.236,833.751M-1457.37,810.636C-1457.37,810.636 -1344.37,1023.21 -1279.57,1081.97M-1457.37,781.293C-1397.4,907.787 -1226.46,1101.68 -1226.33,1101.82M-901.17,1305.79C-901.17,1305.79 -446.362,1016.95 13.948,1300.29C60.29,1297.92 77.553,1299.03 77.553,1299.03C77.553,1299.03 -196.619,1092.45 -456.406,1114.46C-716.192,1136.46 -841.542,1222.75 -928.436,1278.02M1057.52,540.235C1032.28,550.852 992.076,578.215 1012.55,641.208C1025.44,680.873 1051.16,701.292 1075.71,711.751M1078.37,544.5C1057.85,558.863 1026.95,587.622 1037.31,625.61C1045.62,656.087 1065.55,679.182 1089.58,693.746M2204.23,546.304C2204.23,546.304 1985.72,643.959 1763.22,452.775C1877.69,553.181 1904.73,605.054 2208.94,596.31M419.24,1733.39C405.755,1729.23 333.714,1746.53 309.206,1807.06C297.591,1835.74 338.484,1883.25 376.449,1852.9M1106.95,1558.26C1151.76,1559.83 1221.88,1537.47 1175.67,1476.07C1132.94,1419.3 1034.82,1443.33 923.564,1439.21C812.314,1435.09 725.632,1393.17 725.62,1393.16C725.62,1393.16 956.746,1552.98 1106.95,1558.26ZM2183.62,1381.93C2183.62,1381.93 1984.44,1495.34 1794.45,1455.87C1604.45,1416.4 1500.54,1367.06 1482.1,1430.28C1470.66,1469.51 1513.75,1496.21 1632.48,1570.85C1741.64,1639.47 1729.5,1699.43 1776.29,1713.77C1823.08,1728.11 1877.34,1680.19 1925.49,1652.37C1973.65,1624.55 2124.54,1540.99 2216.57,1557.08M2179.65,1352.96C2061.91,1402.02 1934.51,1438.34 1807.87,1423.15C1749.85,1416.19 1693.72,1398.61 1636.74,1385.64C1588.5,1374.66 1445.89,1342.26 1430.22,1413.95C1428.86,1420.16 1428.46,1427.17 1429.15,1435.03C1431.28,1459.06 1445.39,1480.4 1461.51,1498.35C1523.65,1567.54 1618.78,1601.05 1678.24,1672.55C1692.02,1689.11 1703.65,1707.49 1718.72,1722.88C1733.78,1738.28 1753.34,1750.84 1774.87,1751.56C1791.75,1752.12 1807.96,1745.41 1823.27,1738.27C1885.13,1709.41 1942.38,1671.56 2003.31,1640.78C2064.24,1610 2130.74,1586.02 2198.97,1588.09C2207.17,1588.34 2216.33,1588.41 2224.69,1587.02M1430.84,2007.97L1430.27,2008.04C1430.27,2008.04 1430.47,2008.01 1430.84,2007.97ZM2188.54,1628.16C2188.54,1628.16 2031.24,1617.55 1877.19,1773.43C1723.15,1929.32 1576.43,1991.13 1576.43,1991.13M2188.54,1778.4C2188.54,1778.4 1998.23,1798.02 1789.17,1931.52C1789.17,1931.52 1693.8,1991.13 1666.3,1991.13M806.35,985.474C806.35,985.474 840.159,961.875 817.197,947.579C805.649,940.389 779.152,944.134 770.448,945.936M846.272,968.251C846.272,968.251 866.381,917.072 805.583,909.055C761.976,903.305 712.096,924.455 712.096,924.455M782.055,991.216C782.055,991.216 870.38,977.72 878.939,924.338C884.4,890.274 836.148,848.536 760.346,854.038C684.545,859.54 617.302,887.048 595.907,925.561C574.511,964.072 605.182,991.399 620.227,1005.98M977.935,1108.73C976.483,1106.45 973.484,1105.8 970.792,1105.61C956.78,1104.68 943.39,1111.12 931.248,1118.17C905.805,1132.96 882.508,1151.11 858.17,1167.65C778.265,1221.95 685.777,1259.03 589.62,1268.37C586.974,1268.63 584.303,1268.85 581.659,1268.66L627.767,1308.54C759.405,1287.36 878.262,1213.27 973.801,1120.12C976.948,1117.06 980.299,1112.43 977.935,1108.73ZM1359.4,1116.34C1401.21,1135.6 1538.72,1196.63 1555.21,1177.51C1564.57,1166.66 1519.89,1145.81 1497.77,1123.67M1689.16,983.907C1901.36,1032.78 2057.86,925.32 2106.4,885.961M-1125.17,1991.13C-1125.17,1991.13 -1213.29,1772.81 -1457.37,1668.35M-327.796,1991.13C-505.378,1948.31 -766.529,1724.14 -947.593,1614.1C-1116.81,1511.27 -1457.37,1460.89 -1457.37,1460.89M-510.602,1991.13C-510.602,1991.13 -665.551,1941.68 -761.306,1845.93C-857.061,1750.17 -1121.02,1518.62 -1457.37,1487.28M-973.708,1991.13C-973.708,1991.13 -1180.21,1685.76 -1457.37,1595.22M-1062.5,1991.13C-1062.5,1991.13 -1222,1697.94 -1457.37,1628.3M428.869,1991.13C514.145,1840.21 563.825,1844.27 563.825,1844.27C448.289,1856.65 366.974,1991.13 366.974,1991.13L428.869,1991.13ZM-188.295,1991.13C-188.295,1991.13 -415.185,1895.61 -494.042,1835.64C-572.9,1775.67 -791.718,1546.03 -892.583,1480.01C-993.447,1413.99 -1253.39,1270.81 -1457.37,1261.78M-848.651,1362.31C-848.651,1362.31 -533.931,1179.25 -121.594,1371.27L-102.47,1351.16C-504.518,1136.95 -868.149,1341.63 -868.149,1341.63M834.62,1991.13C834.62,1991.13 752.094,1928.86 675.07,1931.61C598.046,1934.36 553.237,1991.13 553.237,1991.13L834.62,1991.13ZM-1457.37,1204.92C-1357.03,1212.26 -1161.58,1269.11 -973.708,1388.32C-785.832,1507.52 -605.912,1678.07 -495.877,1773.43C-385.843,1868.8 -110.757,1991.13 -110.757,1991.13M35.955,1991.13C-20.118,1972.31 -75.281,1948.14 -127.568,1921.72C-285.625,1841.86 -417.381,1741.41 -468.369,1705.58C-536.223,1657.9 -721.447,1503.85 -901.17,1305.79C-1080.89,1107.73 -1457.37,1030.7 -1457.37,1030.7M955.657,1991.13C955.657,1991.13 833.244,1838.08 614.551,1840.83C395.858,1843.58 333.964,1991.13 333.964,1991.13L955.657,1991.13ZM2176.01,1161.34C1920.99,1352.07 1696.23,1363.26 1498.45,1309.32C1459.06,1298.58 1185.64,1195.74 1174.81,1229.23C1152.33,1298.76 1339.34,1460.87 1434.9,1556.43C1722.33,1843.86 1430.27,2008.04 1430.27,2008.04M-1457.37,550.222C-1457.37,550.222 -1306.97,885.391 -1008.86,1120.38C-981.215,1103.76 -948.263,1084.39 -913.55,1064.99C-978.518,1018.17 -1284.72,785.988 -1457.37,451.191M2035.54,197.886C1922.49,134.332 1977.87,-35.69 1977.87,-35.69L1914.33,-35.69C1859.95,163.719 1953.01,249.344 1968.36,261.847M2090.8,666.323C2091.3,666.536 2091.79,666.749 2092.28,666.965C2091.79,666.749 2091.3,666.535 2090.8,666.323ZM2095.75,668.543C2096.21,668.755 2096.66,668.962 2097.12,669.176C2096.66,668.962 2096.21,668.755 2095.75,668.543ZM2146.18,704.621C2150.77,709.49 2155.05,714.661 2159.01,720.069C2155.05,714.661 2150.77,709.49 2146.18,704.621ZM2159.66,720.94C2160.59,722.223 2161.46,723.539 2162.35,724.85C2161.46,723.539 2160.59,722.223 2159.66,720.94ZM2087.08,664.765C2086.69,664.604 2086.3,664.442 2085.9,664.283C2086.3,664.442 2086.69,664.604 2087.08,664.765ZM2064.02,657.21C2064.22,657.258 2064.41,657.307 2064.6,657.355C2064.41,657.307 2064.22,657.258 2064.02,657.21ZM2070.09,658.831C2069.92,658.782 2069.74,658.735 2069.57,658.687C2069.74,658.735 2069.92,658.782 2070.09,658.831ZM296.773,962.24C287.264,987.063 283.163,1010.79 281.488,1028.78M299.021,1041.41C299.868,1020.74 303.946,985.898 319.901,950.308M380.894,867.074C405.453,845.703 417.799,821.863 410.992,803.896C404.08,785.65 364.535,771.334 331.577,769.566M230.866,994.041C230.866,994.041 416.087,918.611 458.275,839.298C495.874,768.612 490.577,701.277 401.176,674.326C432.084,685.432 470.215,711.714 462.494,773.487C448.315,886.91 239.647,904.205 238.918,904.265M-683.94,927.892C-689.931,863.034 -615.375,746.361 -507.798,703.353C-460.552,684.464 -409.701,659.621 -364.369,628.636M727.314,997.491C738.937,968.433 688.353,963.536 685.156,981.189C681.618,1000.73 759.374,1002.6 785.41,989.747C804.997,980.074 796.238,950.859 734.061,929.84C668.813,907.783 537.232,952.614 633.196,1015.49C661.119,1033.78 710.976,1038.85 739.256,1038.69M737.068,758.444C755.629,750.6 810.42,722.993 845.623,661.173C842.207,714.981 780.261,773.423 780.262,773.423" style="fill:none;fill-rule:nonzero;stroke:white;stroke-width:1px;"/>
                    </g>
                </g>
            </g>
        </g>
    </g>
</svg>
