<svg xmlns="http://www.w3.org/2000/svg" fill-rule="evenodd" stroke-miterlimit="10" clip-rule="evenodd" viewBox="0 0 1440 950">
  <path fill="none" d="M0 0h1440v950H0z"/>
  <path fill="#fff" fill-rule="nonzero" d="M100.68207721 591.29886614l-2.51919256 1.3032666-.46776701-.52450282 7.37184796-3.8318608.59541909.66872819-4.61317244 7.0217268-.51061611-.5724294 1.6315851-2.39512132-1.48810403-1.66980725zm1.83284592 1.19099397c1.23936619-1.87479981 1.98050926-2.96426463 2.3248016-3.44173705-.56182878.32995997-1.96244127 1.06408229-3.64285011 1.96318655l1.3180485 1.4785505zm2.47949655 7.62172117l6.02210731-5.34490202.63603213.71665087c-2.79597414 5.89925364-3.10935885 6.60485922-3.31121622 6.95557088.81802716-.81161078 1.72593479-1.61769843 2.68221464-2.46573996l2.5803927-2.29105651.46731747.52584368-6.07047954 5.3868559-.59407824-.66827864c2.90795104-6.25548843 3.26418485-6.91316743 3.41811564-7.22103-.72172836.7268078-1.72593479 1.61769843-2.82554482 2.59294639l-2.5803927 2.29105651-.42446837-.4779171zm11.11372381 6.16184818l-1.92959298-2.13254871-2.51148918 2.27239353 2.05769461 2.27543323-.47345276.42894829-2.5303872-2.79636691 6.01870566-5.44597839 2.529492 2.79681257-.47389842.42805308-2.05814416-2.27409237-2.13254871 1.92959298 1.92959298 2.13254871-.42597184.38520399zm.21572888 6.06326082l4.2353203-7.04698177.56347995.51930297c-1.73878055 2.83052138-3.30847414 5.38138111-3.86395143 6.17287737.74345249-.61809687 4.30710292-3.07022667 5.97856199-4.22291705l.51704613.47539507c-1.01719176 1.67036264-3.21039498 5.55820163-3.72672637 6.21291848 1.05021017-.8568222 4.30710293-3.07022667 5.88822029-4.22039113l.5639256.52019817-6.86311022 4.71241762-.5639256-.52019817c1.01763742-1.66946743 3.13165362-5.28330196 3.68326414-6.16558946-.96373525.76350503-4.30710293 3.07022666-5.84475806 4.17306211l-.61080896-.5627652.04346224-.04732901zm10.42450946 9.53219667l4.15001714-7.11287086.5666151.51662514c-1.72314366 2.8394929-3.27943644 5.39932027-3.82999985 6.19395558.73988336-.62302244 4.2897029-3.09395933 5.9549189-4.25694652l.51973176.4740581c-1.0082553 1.67485035-3.1804621 5.57569514-3.69232525 6.23265584 1.04530017-.86219733 4.2897029-3.09395933 5.86457331-4.25218454l.56661511.51662514-6.83678931 4.74958226-.56661511-.51662514c1.00780964-1.67574555 3.10172073-5.30079546 3.64886301-6.18532682-.9592709.76798496-4.29014856 3.09306413-5.82111107 4.20485553l-.56751032-.51617949.04301658-.04822422zm13.24750303 5.32301316c-1.64139893 2.12409233-3.08509811 2.94668804-4.50041301 1.85167803-1.36529637-1.0551208-.97217318-2.6080587.7086693-4.78306476 1.64184459-2.12319713 3.10759282-2.76686868 4.42242112-1.75029623 1.36529637 1.05512081 1.04971552 2.50801776-.63067741 4.68168296zm-3.18524329-2.46254405c-1.48496948 1.92222393-1.77257696 3.23384987-.91329441 3.89856554.91019629.70415923 2.01764667.10592663 3.5030618-1.8154021 1.5638527-2.02181531 1.69458508-3.13246805.83530252-3.79718373-.85928255-.66471567-1.97909832-.1563947-3.42506991 1.71402029zm6.01218873 4.97052706l-2.34466295 3.03384296-.55692755-.42984868 4.9250881-6.37048658 1.61807851 1.2509938c1.06160051.81980426 1.14879018 1.85659902.36663906 2.8681771-.74181237.96021871-1.50977135 1.01299394-2.08185733.81298704.5000895.71060028.2220907 1.38406808-.44217932 2.24424583l-.1949778.25233649c-.43029433.55603234-.78215111 1.01157808-.9546342 1.44373392l-.55603234-.43029434c.13393474-.38168776.56333387-.93727445.99318255-1.494202l.1178811-.15140033c.70326402-.90975063.89180074-1.57219389-.06886362-2.31490146l-.86017776-.66427002.03944355-.05091373zm.35230244-.45465054l.96066436.74270757c.85928256.66471568 1.5529379.3931232 2.13966168-.36477755.50828623-.65741415.59544115-1.39784931-.21292768-2.02312144l-1.01157809-.78215112-1.87582027 2.42734254zm7.33424907 1.0650709l.55603234.43029434-4.57278566 5.91583604 2.32596074 1.79782838-.39085079.50511861-2.88154742-2.2272275 4.96319079-6.42184986zm4.95517168 3.8300781l1.4153149 1.09501c1.46667818 1.1331127 1.39240928 2.69152537-.17099775 4.7142359-1.68039293 2.1736652-3.22547392 2.91826901-4.8940205 1.62872687l-1.26391457-.97712891 4.96363644-6.42095466-.05001852-.0398892zm-4.01675332 6.34613037l.65741415.50828623c1.31438265 1.01567726 2.50071623.31785326 3.94624217-1.55345693 1.3688749-1.76947884 1.48768755-2.969148.27424105-3.90772857l-.6569685-.50739102-4.22092887 5.46029029zm5.13454538 3.80668818l.55603235.43029434-.43029434.55603234-.55558669-.42939913.42984868-.55692755z"/>
  <clipPath id="a">
    <path d="M0 0h1440v950H0z"/>
  </clipPath>
  <g clip-path="url(#a)">
    <path fill="none" stroke="#414042" d="M1157.25 966.366c-3.59-260.706-165.317-246.582-202.632-232.85l-.003-.007s-7.197 2.947-12.082 7.222c-11.187 9.789-11.653 27.426-1.773 38.584 7.904 8.926 21.354 9.578 30.042 1.457 6.649-6.215 7.402-16.603 1.918-23.744l-.337-.343c9.84 9.93 15.918 23.594 15.918 38.678 0 30.353-27.948 55.023-58.297 55.023-27.82 0-51.903-16.54-62.935-40.19-4.146-8.891-6.461-18.806-6.461-29.262 0-26.315 14.665-49.204 36.27-60.94m-15.149-81.489c-11.425 2.365-22.744 6.837-33.345 13.525-43.675 27.556-58.63 82.307-33.403 122.291 12.078 19.143 30.759 31.435 52.18 36.025m325.759 144.83s26.3-149.85-72.91-245.738c-39.85-80.391-115.5-105.419-134.268-111.607-18.769-6.189-144.755-36.097-184.831 57.937-15.119 31.653 4.869 52.985 4.869 52.985m295.04 255.483c24.77-48 28.8-120.09 27.62-148.05m-259.776 146.34c70.786-9.47 133.816-29.36 160.866-68.06 59.95-85.75 31.29-138.816 14.46-158.995m-56.457 247.545c119.637-87.22 111.707-181.995 101.927-220.555M-49.38-53.169c-51.857 232.535 669.792 433.752 510.674 576.291M1502.62 935.356C1275.9 263.366 847.401 439.32 361.67 616.951m1255.04 435.669C806.191 554.744 1318.76 347.157 383.75 638.505m1060.23-21.49l-3.98-3.096C1309.85 509.838 1127.51 403.1 924.393 387.593 721.274 372.084 530.627 475 341.172 596.633M220.068 1016.37c8.986-110.554-251.158-90.304-339.758-330.142m596.978 361.262c-200.84-20.44-163.724-362.372-518.298-478.192m357.161 447.072C337.453 907.496 31.17 887.446-87.72 645.273m941.669-537.231c-17.897-16.116-28.13-39.229-25.77-63.821 5.156-53.748 60.123-87.216 114.628-87.216 109.683 0 238.953 165.942-108.377 300.065-22.455 8.679-80.545 38.734-106.402 66.01m366.012 98.392c38.43-20.496 88.94-76.59 63.46-90.037-50.42-26.612-192.146 60.533-192.146 60.533m-76.001-267.151c-31.852-3.055-55.195-31.353-52.139-63.205 3.819-39.814 42.39-72.524 79.006-65.174 36.615 7.351 109.81 94.141-75.858 222.704 0 0-113.144 70.97-115.463 116.772-4.902 96.844 220.889-84.317 305.181-136.35 71.7-44.264 186.28-81.929 264.03-60.073 158.99 44.691 76.27 226.705-.68 300.768 0 0-31.93 29.018-50.09 44.173m168.16-42.178c-48.81 60.138-40.09 120.472-40.09 120.472M367.457-175.169c28.238 79.25 91.28 147.308 95.22 140.084 3.94-7.224-21.146 11.824 98.083 16.933 89.028 3.815 331.816 196.481 331.816 196.481M175.996-55.649c164.828 43.471 193.02 340.244 528.005 346.67m149.217-81.012S542.504-27.106 306.792-30.008M47.63-86.689c339.827 69.561 718.284 349.954 718.501 350.025m363.259 170.303c189.78-82.926 171.66-191.804 114.25-214.259-174.95-68.428-394.226 148.192-416.865 169.558M472.176 719.529c77.807 36.012 204.877-137.221 331.687-70.16M1157.25 757.37c88.32 45.403 184.98 107.936 290.19 192.626M551.129 786.493c65.995-11.978 160.71-15.978 278.539 5.045m146.166 37.148c22.798 7.38 52.936 16.77 76.656 26.06m143.08 66.05c59.01 31.46 119.85 69.2 181.82 114.264M-99.05 407.698C76.28 586.95 416.203 969.016 657.717 981.626m-77.309 25.534C528.876 798.787-3.57 474.851-46.46 269.665m-52.91-68.584c203.03 59.226 449.904 527.976 962.406 789.525M1337.8 486.163c-7.34 19.158-9.94 32.6-11.23 46.483M1403 411.555c18.96-16.495 28.49-34.893 23.23-48.76-5.33-14.083-36.54-24.655-61.97-26.02m-76.03 172.49s141.93-57.935 174.49-119.147c29.02-54.556-8.9-115.876-77.9-136.677 23.85 8.572 87.12 38.208 81.16 85.883-10.94 87.54-171.99 100.889-172.55 100.935m-712.253 20.489c-4.623-50.057 52.91-142.358 135.938-175.553 36.464-14.577 75.71-33.751 110.698-57.666"/>
  </g>
</svg>
