<svg xmlns="http://www.w3.org/2000/svg" fill-rule="evenodd" stroke-miterlimit="10" clip-rule="evenodd" viewBox="0 0 375 740">
  <g>
    <path fill="none" d="M0 0h375v740H0z"/>
    <clipPath id="a">
      <path d="M0 0h375v740H0z"/>
    </clipPath>
    <g clip-path="url(#a)">
      <path fill="none" stroke="#414042" d="M-197.488 40.206C10.117 95.8 27.97 310.769 238.879 376.201M947.932 506.3C466.07 84.323 382.472 369.346 170.9 465.323m784.092 175.313C404.291 95.312 486.296 413.975 209.33 501.679m828.832-49.109l-3.24-2.518c-105.85-84.657-254.163-171.473-419.374-184.087-165.21-12.614-320.276 71.095-474.373 170.027M40.381 800.485c26.189-70.48-71.012-204.717-274.06-291.619m485.566 293.837c39.808-109.579-302.71-167.471-503.283-411.97m372.22 386.66c36.545-91.782-192.006-136.129-328.493-301.838m69.319-652.553c254.507 8.697 122.823 530.341 505.487 489.03M124.698-120.887c58.663 308.522 361.949 285.729 362.125 285.786M247.73 535.952c46.544-21.303 70.918-97.072 202.163-89.501M311.948 590.418c53.677-9.742 40.704-124.803 136.543-107.704m-564.113-31.869c237.146-17.843 255.688 311.228 473.097 297.889m154.126 29.2c-304.848-11.56-361.739-421.088-610.383-465.441m-118.368-198.23c165.141 48.172 365.939 429.438 782.793 642.173"/>
    </g>
  </g>
</svg>
