<?xml version="1.0" encoding="UTF-8" standalone="no"?>
<!DOCTYPE svg PUBLIC "-//W3C//DTD SVG 1.1//EN" "http://www.w3.org/Graphics/SVG/1.1/DTD/svg11.dtd">
<svg width="100%" height="100%" viewBox="0 0 313 48" version="1.1" xmlns="http://www.w3.org/2000/svg" xmlns:xlink="http://www.w3.org/1999/xlink" xml:space="preserve" xmlns:serif="http://www.serif.com/" style="fill-rule:evenodd;clip-rule:evenodd;stroke-linejoin:round;stroke-miterlimit:2;">
    <g transform="matrix(1,0,0,1,-515,0)">
        <g id="Artboard1" transform="matrix(0.934207,0,0,0.407204,33.6104,65.2591)">
            <rect x="515.292" y="-160.262" width="335.044" height="117.877" style="fill:none;"/>
            <clipPath id="_clip1">
                <rect x="515.292" y="-160.262" width="335.044" height="117.877"/>
            </clipPath>
            <g clip-path="url(#_clip1)">
                <g transform="matrix(1.07043,0,0,2.45577,451.067,-307.609)">
                    <g opacity="0.45">
                        <g transform="matrix(1,0,0,1,337.71,103.749)">
                            <path d="M0,-1.282C0,-2.895 -0.371,-4.011 -1.616,-4.011C-3.243,-4.011 -3.32,-1.823 -3.347,-1.282L0,-1.282ZM-3.366,-0.532C-3.366,1.255 -3.041,2.726 -1.67,2.726C-0.279,2.726 -0.1,1.374 -0.054,1.14L0.842,1.14C0.824,1.331 0.581,3.525 -1.675,3.525C-3.958,3.525 -4.274,1.359 -4.274,-0.634C-4.274,-3.18 -3.438,-4.807 -1.603,-4.807C0.433,-4.807 0.906,-3.065 0.906,-1.089C0.906,-0.983 0.904,-0.755 0.888,-0.532L-3.366,-0.532Z" style="fill:white;fill-rule:nonzero;"/>
                        </g>
                        <g transform="matrix(1,0,0,1,342.58,104.51)">
                            <path d="M0,-2.953C0,-4.598 -0.013,-5.084 -0.016,-5.437L0.856,-5.437C0.875,-5.244 0.893,-4.932 0.893,-4.299C1.173,-4.998 1.75,-5.57 2.85,-5.57C3.96,-5.57 4.925,-4.971 4.925,-3.119L4.925,2.617L4.013,2.617L4.013,-2.963C4.013,-4.015 3.63,-4.748 2.652,-4.748C1.42,-4.748 0.912,-3.916 0.912,-2.101L0.912,2.617L0,2.617L0,-2.953Z" style="fill:white;fill-rule:nonzero;"/>
                        </g>
                        <g transform="matrix(1,0,0,1,350.867,105.041)">
                            <path d="M0,-5.969L1.167,-5.969L1.167,-8.166L2.051,-8.166L2.051,-5.969L3.515,-5.969L3.515,-5.174L2.051,-5.174L2.051,0.443C2.051,1.029 2.185,1.406 2.804,1.406C2.996,1.406 3.267,1.392 3.414,1.361L3.414,2.074C3.167,2.168 2.797,2.197 2.533,2.197C1.716,2.197 1.167,1.845 1.167,0.646L1.167,-5.174L0,-5.174L0,-5.969Z" style="fill:white;fill-rule:nonzero;"/>
                        </g>
                        <g transform="matrix(1,0,0,1,357.927,104.581)">
                            <path d="M0,-3.092C0,-4.463 0,-5.115 -0.016,-5.508L0.854,-5.508C0.886,-5.244 0.891,-4.815 0.891,-4.399C1.194,-5.131 1.751,-5.639 2.702,-5.639C3.534,-5.639 4.14,-5.289 4.383,-4.401C4.654,-5.082 5.284,-5.639 6.324,-5.639C7.272,-5.639 8.238,-5.19 8.238,-3.328L8.238,2.547L7.345,2.547L7.345,-3.158C7.345,-4.037 7.097,-4.819 6.099,-4.819C4.975,-4.819 4.576,-3.783 4.576,-2.666L4.576,2.547L3.681,2.547L3.681,-3.125C3.681,-4.219 3.319,-4.817 2.461,-4.817C1.418,-4.817 0.896,-3.803 0.896,-2.528L0.896,2.547L0,2.547L0,-3.092Z" style="fill:white;fill-rule:nonzero;"/>
                        </g>
                        <g transform="matrix(1,0,0,1,369.522,105.041)">
                            <path d="M0,-5.969L1.167,-5.969L1.167,-8.166L2.051,-8.166L2.051,-5.969L3.515,-5.969L3.515,-5.174L2.051,-5.174L2.051,0.443C2.051,1.029 2.185,1.406 2.804,1.406C2.996,1.406 3.267,1.392 3.414,1.361L3.414,2.074C3.167,2.168 2.797,2.197 2.533,2.197C1.716,2.197 1.167,1.845 1.167,0.646L1.167,-5.174L0,-5.174L0,-5.969Z" style="fill:white;fill-rule:nonzero;"/>
                        </g>
                    </g>
                    <g transform="matrix(1,0,0,1,313.229,107.13)">
                        <path d="M0,-11.739L-5.671,0L5.671,0L0,-11.739Z" style="fill:white;fill-rule:nonzero;"/>
                    </g>
                    <g transform="matrix(1,0,0,1,275.335,107.127)">
                        <path d="M0,-45.598L-10.422,-45.598L-10.422,-6.124C-10.422,-2.997 -11.595,-1.108 -14.005,-0.131L-14.005,0L0,0L0,-45.598Z" style="fill:white;fill-rule:nonzero;"/>
                    </g>
                    <g transform="matrix(1,0,0,1,128.574,107.946)">
                        <path d="M0,-47.291C3.187,-47.097 6.895,-46.511 10.993,-45.471L10.993,-33.37L10.863,-33.37C8.196,-40.916 4.488,-45.274 0,-47.161L0,-47.291ZM-4.134,-47.074C-7.612,-45.718 -10.539,-42.459 -10.539,-38.64C-10.539,-36.493 -9.888,-34.736 -8.522,-33.436C-7.156,-32.135 -4.75,-30.834 -1.302,-29.468L1.886,-28.232C10.472,-24.914 14.05,-21.335 14.05,-14.831C14.05,-6.96 7.74,-0.91 0,0L0,-0.13C1.756,-0.649 3.382,-1.691 4.749,-3.253C6.18,-4.878 6.895,-6.766 6.895,-9.041C6.569,-14.376 3.837,-15.871 -4.099,-19.255L-7.091,-20.49C-14.702,-23.613 -17.759,-27.256 -17.759,-33.436C-17.759,-40.652 -12.017,-46.399 -4.134,-47.268L-4.134,-47.074Z" style="fill:white;fill-rule:nonzero;"/>
                    </g>
                    <g transform="matrix(1,0,0,1,210.999,80.0722)">
                        <path d="M0,7.178L4.72,19.199C5.307,20.57 5.667,21.778 5.667,22.821C5.667,24.907 4.494,26.145 1.951,26.928L1.951,27.058L21.122,27.058L21.122,26.928C19.296,26.472 17.193,23.407 15.107,18.388L10.57,7.178L0,7.178ZM-0.327,-18.539L1.583,-18.539C6.079,-18.539 9.791,-17.562 12.722,-15.608C15.444,-13.794 17.063,-11.239 17.063,-7.058C17.063,-2.878 15.304,-0.229 12.722,1.492C9.791,3.447 6.079,4.423 1.583,4.423L-0.327,4.423L-0.321,3.845C4.342,1.97 7.025,-1.405 7.025,-7.058C7.025,-12.713 4.34,-16.078 -0.325,-17.953L-0.327,-18.539ZM-0.877,27.058L-18.464,27.058L-18.464,26.928C-16.054,25.95 -14.882,24.061 -14.882,20.934L-14.882,-18.539L-4.46,-18.539L-4.46,20.934C-4.46,23.996 -3.222,26.079 -0.877,26.928L-0.877,27.058ZM-33.722,-17.949C-29.188,-15.456 -26.924,-11.203 -24.783,-5.511L-24.66,-5.511L-24.66,-18.539L-33.722,-18.539L-33.722,-17.949ZM-52.41,-17.949C-56.944,-15.456 -59.208,-11.203 -61.35,-5.511L-61.472,-5.511L-61.472,-18.539L-52.41,-18.539L-52.41,-17.949ZM-37.855,20.934L-37.855,-18.539L-48.277,-18.539L-48.277,20.934C-48.277,24.061 -49.449,25.951 -51.86,26.928L-51.86,27.058L-34.272,27.058L-34.272,26.928C-36.618,26.08 -37.855,23.996 -37.855,20.934M-139.656,27.058L-150.999,27.058L-145.327,15.319L-139.656,27.058ZM-113.451,18.387L-129.031,-20.072L-129.161,-20.072L-134.311,-7.231L-123.946,19.17C-123.359,20.539 -123.099,21.778 -123.099,22.821C-123.099,24.907 -124.272,26.145 -126.814,26.928L-126.814,27.058L-107.324,27.058L-107.324,26.928C-109.149,26.471 -111.365,23.407 -113.451,18.387M68.462,26.464C75.743,25.216 81.145,18.612 81.145,5.558C81.145,-7.252 75.967,-15.652 68.462,-17.949L68.462,-18.543L69.947,-18.543C83.105,-18.543 91.638,-9.88 91.638,4.125C91.833,17.934 81.803,27.25 69.947,27.055L68.462,27.055L68.462,26.464ZM64.336,-18.543L53.915,-18.543L53.915,20.931C53.915,24.058 52.742,25.948 50.332,26.924L50.332,27.055L64.336,27.055L64.336,-18.543ZM42.455,27.055L28.45,27.055L28.45,26.924C30.86,25.948 32.033,24.058 32.033,20.931L32.033,-18.543L42.455,-18.543L42.455,27.055Z" style="fill:white;fill-rule:nonzero;"/>
                    </g>
                    <g transform="matrix(1,0,0,1,124.44,92.0728)">
                        <path d="M0,15.734C-2.479,14.815 -8.945,7.206 -10.736,-0.193L-10.94,-0.193L-14.753,9.324C-11.72,12.366 -6.377,15.338 0,15.927L0,15.734Z" style="fill:white;fill-rule:nonzero;"/>
                    </g>
                </g>
            </g>
        </g>
    </g>
</svg>
