<svg xmlns="http://www.w3.org/2000/svg" fill-rule="evenodd" stroke-linejoin="round" stroke-miterlimit="2" clip-rule="evenodd" viewBox="0 0 210 32">
  <g fill="#fff">
    <path d="M7.547 31.358l-3.773-7.724L0 31.357l7.547.001zM141.015 1.115c5.33 1.257 7.929 7.106 7.929 15.944 0 9.012-2.772 13.648-7.929 14.212v.087h1.127c7.897 0 14.558-6.066 14.428-15.252 0-9.315-5.676-15.077-14.428-15.077h-1.127v.086zm-2.599-.086h-9.315v.086c1.603.65 2.383 1.906 2.383 3.986v22.184c0 2.08-.78 3.337-2.383 3.986v.087h9.315V1.029zm-14.183 0h-9.316v.086c1.603.65 2.383 1.906 2.383 3.986v22.184c0 2.08-.78 3.337-2.383 3.986v.087h9.316V1.029zm-12.382 30.242c-1.429-.693-3.119-2.903-6.022-7.973l-4.246-7.539c4.116-.996 6.586-3.249 6.586-7.018 0-2.557-.954-4.463-2.904-5.763-1.949-1.3-4.419-1.949-7.408-1.949h-1.863v.086c3.682 1.257 5.502 4.03 5.502 8.275 0 4.81-1.906 6.803-6.196 6.803h-.476v.087l4.419 8.579c1.603 3.075 2.86 5.242 3.856 6.499h8.752v-.087zm-16.074 0c-1.56-.564-2.383-1.95-2.383-3.986V1.029h-9.315v.086c1.603.65 2.383 1.906 2.383 3.986v22.184c0 2.08-.78 3.337-2.383 3.986v.087h11.698v-.087zM81.116 1.133h-6.629v.087c3.292 1.603 5.416 4.549 6.976 8.579h.086l-.433-8.666zM74.27 31.377c-1.559-.565-2.383-1.951-2.383-3.987V1.133h-6.932V27.39c0 2.079-.78 3.337-2.383 3.987v.085H74.27v-.085zM55.293 9.799h.087c1.516-4.03 3.552-6.976 6.976-8.579v-.087h-6.63l-.433 8.666zM14.529.001l-3.425 8.544L18 26.11c.39.911.564 1.734.564 2.429 0 1.387-.781 2.212-2.473 2.732v.087h12.968v-.087c-1.214-.304-2.689-2.342-4.076-5.682L14.529.001zM44.2.548c2.978 1.252 5.438 4.144 7.208 9.151h.086V1.671C48.775.98 46.315.591 44.2.462v.086zm-2.59 31.248c-1.899-.561-3.947-2.029-5.543-4.316-1.598-2.287-2.862-3.786-3.812-6.418h-.086v9.224c3.021.949 6.377 1.467 9.441 1.596v-.086zm2.59.043c5.136-.604 9.322-4.618 9.322-9.84 0-4.316-2.374-6.69-8.07-8.892l-2.116-.819c-2.287-.907-3.884-1.77-4.79-2.633-.906-.863-1.338-2.028-1.338-3.453 0-2.589 2.028-4.79 4.402-5.654V.462c-5.309.518-9.193 4.359-9.193 9.193 0 4.1 2.028 6.517 7.078 8.59l1.986.819c5.265 2.245 7.078 3.236 7.294 6.776 0 1.51-.475 2.763-1.424 3.841-.907 1.036-1.986 1.727-3.151 2.072v.086zm115.217-.482l3.773-7.723 3.774 7.724-7.547-.001z"/>
    <path fill-opacity=".5" d="M176.561 27.016c.024-.504.097-2.54 1.61-2.54 1.16 0 1.505 1.039 1.505 2.54h-3.115zm3.957.181c0-1.841-.441-3.462-2.333-3.462-1.709 0-2.487 1.514-2.487 3.885 0 1.854.295 3.869 2.419 3.869 2.099 0 2.325-2.041 2.341-2.22h-.833c-.042.219-.209 1.476-1.503 1.476-1.277 0-1.579-1.368-1.579-3.032h3.959c.015-.207.016-.419.016-.516zM183.569 31.353h.849v-4.392c0-1.687.472-2.462 1.619-2.462.91 0 1.267.681 1.267 1.662v5.192h.848v-5.339c0-1.723-.898-2.281-1.931-2.281-1.023 0-1.56.534-1.821 1.183 0-.587-.018-.878-.035-1.059h-.811c.002.329.015.781.015 2.312v5.184zM190.643 24.598h1.085v5.415c0 1.117.512 1.443 1.272 1.443.246 0 .59-.027.819-.113v-.665c-.136.03-.387.043-.567.043-.576 0-.7-.352-.7-.896v-5.227h1.362v-.741h-1.362v-2.045h-.824v2.045h-1.085v.741zM196.575 31.353h.833v-4.722c0-1.188.486-2.131 1.457-2.131.799 0 1.135.556 1.135 1.574v5.279h.833v-4.852c0-1.039.371-2.002 1.417-2.002.929 0 1.16.727 1.16 1.545v5.309h.831v-5.467c0-1.732-.899-2.151-1.781-2.151-.968 0-1.554.519-1.807 1.153-.226-.828-.79-1.153-1.564-1.153-.885 0-1.403.473-1.685 1.154 0-.386-.006-.786-.035-1.032h-.809c.015.365.015.973.015 2.248v5.248zM206.729 24.598h1.085v5.415c0 1.117.512 1.443 1.272 1.443.246 0 .59-.027.82-.113v-.665c-.136.03-.388.043-.568.043-.576 0-.7-.352-.7-.896v-5.227H210v-.741h-1.362v-2.045h-.824v2.045h-1.085v.741z"/>
  </g>
</svg>
