<?xml version="1.0" encoding="utf-8"?>
<!-- Generator: Adobe Illustrator 25.0.1, SVG Export Plug-In . SVG Version: 6.00 Build 0)  -->
<svg version="1.1" id="Layer_1" xmlns="http://www.w3.org/2000/svg" xmlns:xlink="http://www.w3.org/1999/xlink" x="0px" y="0px"
     viewBox="0 0 239.14 38" style="enable-background:new 0 0 239.14 38;" xml:space="preserve">
<style type="text/css">
    .st0{fill:#FFFFFF;}
    .st1{opacity:0.47;}
</style>
<g>
    <path class="st0" d="M52.49,37.85c1.39-0.41,2.68-1.24,3.76-2.47c1.13-1.29,1.7-2.78,1.7-4.58c-0.26-4.23-2.42-5.41-8.71-8.09
        l-2.37-0.98c-6.03-2.47-8.45-5.36-8.45-10.25c0-5.77,4.64-10.36,10.97-10.97v0.1c-2.83,1.03-5.25,3.66-5.25,6.75
        c0,1.7,0.52,3.09,1.6,4.12c1.08,1.03,2.99,2.06,5.72,3.14l2.53,0.98c6.8,2.63,9.63,5.46,9.63,10.61c0,6.23-5,11.03-11.13,11.75
        V37.85z M49.4,38c-3.66-0.15-7.26-0.77-10.87-1.91V25.08h0.1c1.13,3.14,2.24,4.93,4.15,7.66c1.91,2.73,4.35,4.48,6.62,5.15V38z
         M52.49,0.49c2.52,0.15,5.46,0.62,8.71,1.44v9.58h-0.1c-2.11-5.98-5.05-9.43-8.6-10.92V0.49z M66.43,1.21h7.88v0.1
        c-4.07,1.91-6.49,5.41-8.3,10.2h-0.1L66.43,1.21z M88.49,37.28H74.57v-0.1c1.91-0.77,2.83-2.27,2.83-4.74V1.21h8.24v31.22
        c0,2.42,0.98,4.07,2.83,4.74V37.28z M97.14,11.52h-0.1c-1.86-4.79-4.38-8.3-8.29-10.2v-0.1h7.88L97.14,11.52z M114.13,37.28h-13.91
        v-0.1c1.91-0.77,2.83-2.27,2.83-4.74V6.06c0-2.47-0.93-3.97-2.83-4.74v-0.1h11.08v31.22c0,2.42,0.98,4.07,2.83,4.74V37.28z
         M133.25,37.28h-10.41c-1.19-1.49-2.68-4.07-4.59-7.73L113,19.35v-0.1h0.57c5.1,0,7.37-2.37,7.37-8.09c0-5.05-2.16-8.35-6.54-9.84
        v-0.1h2.22c3.56,0,6.49,0.77,8.81,2.32c2.32,1.55,3.45,3.81,3.45,6.85c0,4.48-2.94,7.16-7.83,8.35l5.05,8.96
        c3.45,6.03,5.46,8.66,7.16,9.48V37.28z M164.95,37.28h-11.08v-0.1c1.91-0.77,2.83-2.27,2.83-4.74V6.06c0-2.47-0.93-3.97-2.83-4.74
        v-0.1h11.08V37.28z M168.04,1.32v-0.1h1.34c10.41,0,17.16,6.85,17.16,17.93c0.15,10.92-7.78,18.29-17.16,18.14h-1.34v-0.1
        c6.13-0.67,9.43-6.18,9.43-16.9C177.47,9.77,174.37,2.81,168.04,1.32 M148.02,1.21h-11.08v0.1c1.91,0.77,2.83,2.27,2.83,4.74v26.38
        c0,2.47-0.93,3.97-2.83,4.74v0.1h11.08V1.21z M199.25,37.27l-4.49-9.18l-4.49,9.18H199.25z M17.27,0L13.2,10.16l8.2,20.88
        c0.46,1.08,0.67,2.06,0.67,2.89c0,1.65-0.93,2.63-2.94,3.25v0.1h15.42v-0.1c-1.44-0.36-3.2-2.78-4.85-6.76L17.27,0z M8.97,37.28
        L4.49,28.1L0,37.28H8.97z"/>
    <g class="st1">
        <path class="st0" d="M209.33,34.05c0,1.44,0.26,2.62,1.36,2.62c1.12,0,1.26-1.09,1.3-1.27h0.72c-0.01,0.15-0.21,1.92-2.02,1.92
            c-1.83,0-2.09-1.74-2.09-3.34c0-2.05,0.67-3.36,2.15-3.36c1.64,0,2.02,1.4,2.02,2.99c0,0.08,0,0.27-0.01,0.45H209.33z
             M212.03,33.45c0-1.3-0.3-2.19-1.3-2.19c-1.31,0-1.37,1.76-1.39,2.19H212.03z"/>
        <path class="st0" d="M215.62,32.72c0-1.32-0.01-1.71-0.01-2h0.7c0.01,0.16,0.03,0.41,0.03,0.92c0.23-0.56,0.69-1.02,1.57-1.02
            c0.89,0,1.67,0.48,1.67,1.97v4.61h-0.73v-4.48c0-0.85-0.31-1.44-1.09-1.44c-0.99,0-1.4,0.67-1.4,2.13v3.79h-0.73V32.72z"/>
        <path class="st0" d="M221.96,30.72h0.94v-1.77h0.71v1.77h1.18v0.64h-1.18v4.51c0,0.47,0.11,0.77,0.61,0.77
            c0.15,0,0.37-0.01,0.49-0.04v0.57c-0.2,0.08-0.5,0.1-0.71,0.1c-0.66,0-1.1-0.28-1.1-1.25v-4.68h-0.94V30.72z"/>
        <path class="st0" d="M227.32,32.66c0-1.1,0-1.63-0.01-1.94h0.7c0.03,0.21,0.03,0.56,0.03,0.89c0.24-0.59,0.69-1,1.46-1
            c0.67,0,1.16,0.28,1.35,1c0.22-0.55,0.72-1,1.56-1c0.76,0,1.54,0.36,1.54,1.86v4.72h-0.72v-4.58c0-0.71-0.2-1.34-1-1.34
            c-0.9,0-1.22,0.83-1.22,1.73v4.19h-0.72v-4.56c0-0.88-0.29-1.36-0.98-1.36c-0.84,0-1.26,0.81-1.26,1.84v4.08h-0.72V32.66z"/>
        <path class="st0" d="M236.31,30.72h0.94v-1.77h0.71v1.77h1.18v0.64h-1.18v4.51c0,0.47,0.11,0.77,0.61,0.77
            c0.15,0,0.37-0.01,0.49-0.04v0.57c-0.2,0.08-0.5,0.1-0.71,0.1c-0.66,0-1.1-0.28-1.1-1.25v-4.68h-0.94V30.72z"/>
    </g>
</g>
</svg>
