<?xml version="1.0" encoding="utf-8"?>
<!-- Generator: Adobe Illustrator 25.0.1, SVG Export Plug-In . SVG Version: 6.00 Build 0)  -->
<svg version="1.1" id="Layer_1" xmlns="http://www.w3.org/2000/svg" xmlns:xlink="http://www.w3.org/1999/xlink" x="0px" y="0px"
     viewBox="0 0 243.2 38" style="enable-background:new 0 0 243.2 38;" xml:space="preserve">
<style type="text/css">
    .st0{fill:#FFFFFF;}
    .st1{opacity:0.47;}
</style>
<g>
    <path class="st0" d="M52.5,37.8c1.4-0.4,2.7-1.2,3.8-2.5c1.1-1.3,1.7-2.8,1.7-4.6c-0.3-4.2-2.4-5.4-8.7-8.1l-2.4-1
        c-6-2.5-8.5-5.4-8.5-10.2c0-5.8,4.6-10.4,11-11v0.1c-2.8,1-5.2,3.7-5.2,6.8c0,1.7,0.5,3.1,1.6,4.1c1.1,1,3,2.1,5.7,3.1l2.5,1
        c6.8,2.6,9.6,5.5,9.6,10.6c0,6.2-5,11-11.1,11.8V37.8z M49.4,38c-3.7-0.2-7.3-0.8-10.9-1.9v-11h0.1c1.1,3.1,2.2,4.9,4.2,7.7
        s4.3,4.5,6.6,5.2V38z M52.5,0.5C55,0.6,58,1.1,61.2,1.9v9.6h-0.1c-2.1-6-5-9.4-8.6-10.9L52.5,0.5L52.5,0.5z M66.4,1.2h7.9v0.1
        c-4.1,1.9-6.5,5.4-8.3,10.2h-0.1L66.4,1.2z M88.5,37.3H74.6v-0.1c1.9-0.8,2.8-2.3,2.8-4.7V1.2h8.2v31.2c0,2.4,1,4.1,2.8,4.7
        L88.5,37.3L88.5,37.3z M97.1,11.5L97.1,11.5c-2-4.8-4.5-8.3-8.4-10.2V1.2h7.9L97.1,11.5z M114.1,37.3h-13.9v-0.1
        c1.9-0.8,2.8-2.3,2.8-4.7V6.1c0-2.5-0.9-4-2.8-4.7V1.2h11.1v31.2C111.3,34.9,112.3,36.5,114.1,37.3
        C114.1,37.2,114.1,37.3,114.1,37.3z M133.2,37.3h-10.4c-1.2-1.5-2.7-4.1-4.6-7.7L113,19.4v-0.1h0.6c5.1,0,7.4-2.4,7.4-8.1
        c0-5.1-2.2-8.4-6.5-9.8V1.2h2.2c3.6,0,6.5,0.8,8.8,2.3s3.5,3.8,3.5,6.8c0,4.5-2.9,7.2-7.8,8.4l5.1,9
        C129.6,33.7,131.6,36.4,133.2,37.3L133.2,37.3L133.2,37.3z M164.9,37.3h-11.1v-0.1c1.9-0.8,2.8-2.3,2.8-4.7V6.1
        c0-2.5-0.9-4-2.8-4.7V1.2h11.1V37.3z M168,1.3V1.2h1.3c10.4,0,17.2,6.8,17.2,17.9c0.1,10.9-7.8,18.3-17.2,18.1H168v-0.1
        c6.1-0.7,9.4-6.2,9.4-16.9C177.5,9.8,174.4,2.8,168,1.3 M148,1.2h-11.1v0.1c1.9,0.8,2.8,2.3,2.8,4.7v26.4c0,2.5-0.9,4-2.8,4.7v0.1
        H148V1.2z M199.2,37.3l-4.5-9.2l-4.5,9.2H199.2z M17.3,0l-4.1,10.2L21.4,31c0.5,1.1,0.7,2.1,0.7,2.9c0,1.7-0.9,2.6-2.9,3.2v0.1
        h15.4v-0.1c-1.4-0.4-3.2-2.8-4.9-6.8L17.3,0z M9,37.3l-4.5-9.2L0,37.3H9z"/>
    <g class="st1">
        <path class="st0" d="M209.4,33.6c0,1.6,0.3,3,1.5,3c1.3,0,1.4-1.2,1.5-1.4h0.8c0,0.2-0.2,2.2-2.3,2.2c-2.1,0-2.4-2-2.4-3.8
            c0-2.3,0.8-3.8,2.4-3.8c1.9,0,2.3,1.6,2.3,3.4c0,0.1,0,0.3,0,0.5L209.4,33.6L209.4,33.6z M212.5,32.9c0-1.5-0.3-2.5-1.5-2.5
            c-1.5,0-1.6,2-1.6,2.5H212.5z"/>
        <path class="st0" d="M216.5,32.1c0-1.5,0-1.9,0-2.3h0.8c0,0.2,0,0.5,0,1c0.3-0.6,0.8-1.2,1.8-1.2c1,0,1.9,0.5,1.9,2.2v5.2h-0.8
            v-5.1c0-1-0.4-1.6-1.2-1.6c-1.1,0-1.6,0.8-1.6,2.4v4.3h-0.8L216.5,32.1L216.5,32.1z"/>
        <path class="st0" d="M223.7,29.8h1.1v-2h0.8v2h1.3v0.7h-1.3v5.1c0,0.5,0.1,0.9,0.7,0.9c0.2,0,0.4,0,0.6,0v0.6
            c-0.2,0.1-0.6,0.1-0.8,0.1c-0.7,0-1.2-0.3-1.2-1.4v-5.3h-1.1V29.8z"/>
        <path class="st0" d="M229.8,32c0-1.2,0-1.8,0-2.2h0.8c0,0.2,0,0.6,0,1c0.3-0.7,0.8-1.1,1.7-1.1c0.8,0,1.3,0.3,1.5,1.1
            c0.2-0.6,0.8-1.1,1.8-1.1c0.9,0,1.7,0.4,1.7,2.1v5.3h-0.8V32c0-0.8-0.2-1.5-1.1-1.5c-1,0-1.4,0.9-1.4,2v4.7h-0.8V32
            c0-1-0.3-1.5-1.1-1.5c-1,0-1.4,0.9-1.4,2.1v4.6h-0.8L229.8,32L229.8,32z"/>
        <path class="st0" d="M240,29.8h1.1v-2h0.8v2h1.3v0.7h-1.3v5.1c0,0.5,0.1,0.9,0.7,0.9c0.2,0,0.4,0,0.6,0v0.6
            c-0.2,0.1-0.6,0.1-0.8,0.1c-0.7,0-1.2-0.3-1.2-1.4v-5.3H240V29.8z"/>
    </g>
</g>
</svg>
