<?xml version="1.0" encoding="utf-8"?>
<!-- Generator: Adobe Illustrator 25.0.1, SVG Export Plug-In . SVG Version: 6.00 Build 0)  -->
<svg version="1.1" id="Layer_1" xmlns="http://www.w3.org/2000/svg" xmlns:xlink="http://www.w3.org/1999/xlink" x="0px" y="0px"
     viewBox="0 0 308.95 48" style="enable-background:new 0 0 308.95 48;" xml:space="preserve">
<style type="text/css">
    .st0{opacity:0.37;}
    .st1{fill:#FFFFFF;}
</style>
<g class="st0">
    <g>
        <path class="st1" d="M271.86,43.21c0,1.79,0.32,3.26,1.7,3.26c1.39,0,1.57-1.35,1.62-1.59h0.9c-0.02,0.19-0.26,2.38-2.52,2.38
            c-2.28,0-2.6-2.17-2.6-4.16c0-2.55,0.84-4.17,2.67-4.17c2.04,0,2.51,1.74,2.51,3.72c0,0.11,0,0.33-0.02,0.56H271.86z
             M275.23,42.46c0-1.61-0.37-2.73-1.62-2.73c-1.63,0-1.7,2.19-1.73,2.73H275.23z"/>
        <path class="st1" d="M279.7,41.55c0-1.65-0.01-2.13-0.02-2.49h0.87c0.02,0.19,0.04,0.51,0.04,1.14c0.28-0.7,0.86-1.27,1.96-1.27
            c1.11,0,2.08,0.6,2.08,2.45v5.74h-0.91v-5.58c0-1.05-0.38-1.79-1.36-1.79c-1.23,0-1.74,0.83-1.74,2.65v4.72h-0.91V41.55z"/>
        <path class="st1" d="M287.58,39.06h1.17v-2.2h0.88v2.2h1.46v0.8h-1.46v5.62c0,0.59,0.13,0.96,0.75,0.96
            c0.19,0,0.46-0.01,0.61-0.05v0.71c-0.25,0.09-0.62,0.12-0.88,0.12c-0.82,0-1.37-0.35-1.37-1.55v-5.82h-1.17V39.06z"/>
        <path class="st1" d="M294.24,41.48c0-1.37,0-2.02-0.02-2.42h0.87c0.03,0.26,0.04,0.69,0.04,1.11c0.3-0.73,0.86-1.24,1.81-1.24
            c0.83,0,1.44,0.35,1.68,1.24c0.27-0.68,0.9-1.24,1.94-1.24c0.95,0,1.91,0.45,1.91,2.31v5.87h-0.89v-5.7
            c0-0.88-0.25-1.66-1.25-1.66c-1.12,0-1.52,1.04-1.52,2.15v5.21h-0.9v-5.67c0-1.09-0.36-1.69-1.22-1.69
            c-1.04,0-1.56,1.01-1.56,2.29v5.07h-0.9V41.48z"/>
        <path class="st1" d="M305.44,39.06h1.17v-2.2h0.88v2.2h1.46v0.8h-1.46v5.62c0,0.59,0.13,0.96,0.75,0.96
            c0.19,0,0.46-0.01,0.61-0.05v0.71c-0.25,0.09-0.62,0.12-0.88,0.12c-0.82,0-1.37-0.35-1.37-1.55v-5.82h-1.17V39.06z"/>
    </g>
</g>
<g>
    <path class="st1" d="M193.41,47.12h-14v-0.13c2.41-0.98,3.58-2.87,3.58-5.99V1.53h10.42V47.12z M215.29,1.53h-10.42v39.46
        c0,3.13-1.17,5.02-3.58,5.99v0.13h14V1.53z M219.41,46.53c7.28-1.25,12.68-7.85,12.68-20.9c0-12.81-5.18-21.21-12.68-23.5V1.53
        h1.48c13.16,0,21.69,8.66,21.69,22.66c0.19,13.81-9.83,23.12-21.69,22.92h-1.48V46.53z M48.65,43.95c4.99,2.08,10.6,3.83,15.9,4.05
        v-0.62c-2.38-0.7-10.36-8.61-10.86-15.51h-0.2L48.65,43.95z M64.55,0.99c-0.81,0.17-1.47,0.59-1.79,0.79
        c-2.63,1.64-4.61,4.4-4.61,7.54c0,2.15,0.65,3.91,2.02,5.21c1.37,1.3,3.78,2.61,7.23,3.97l3.19,1.24
        c8.6,3.32,12.18,6.9,12.18,13.42c0,7.88-6.35,13.94-14.1,14.85v-0.61c1.76-0.52,3.42-1.08,4.79-2.65c1.43-1.63,2.15-3.52,2.15-5.79
        c-0.33-5.34-3.06-6.84-11.01-10.23l-3-1.24c-7.62-3.13-10.68-6.77-10.68-12.96c0-8.23,4.97-12.66,12.08-13.75
        c0.24-0.04,1.08-0.15,1.55-0.13L64.55,0.99z M68.66,0.82V0.65c3.19,0.2,6.94,0.78,11.04,1.82v12.11h-0.13
        C76.9,7.04,73.16,2.71,68.66,0.82z M37.54,38.45L21.96,0h-0.13l-5.15,12.84l10.36,26.39c0.59,1.37,0.85,2.61,0.85,3.65
        c0,2.09-1.17,3.32-3.72,4.11v0.13h19.49v-0.13C41.84,46.53,39.62,43.47,37.54,38.45 M11.34,47.12H0l5.67-11.74L11.34,47.12z
         M113.12,41V1.53H102.7V41c0,3.13-1.17,5.02-3.58,5.99v0.13h17.58v-0.13C114.36,46.14,113.12,44.06,113.12,41z M98.57,2.12
        c-4.53,2.49-6.8,6.74-8.94,12.43h-0.12V1.53h9.06V2.12z M117.25,2.12c4.53,2.49,6.8,6.74,8.94,12.43h0.12V1.53h-9.06V2.12z
         M253.12,35.38l-5.67,11.74h11.34L253.12,35.38z M150.09,47.12H132.5v-0.13c2.41-0.98,3.58-2.87,3.58-5.99V1.53h10.42V41
        c0,3.06,1.24,5.14,3.58,5.99V47.12z M150.64,1.53h1.91c4.49,0,8.21,0.98,11.14,2.93c2.72,1.81,4.34,4.37,4.34,8.55
        s-1.76,6.83-4.34,8.55c-2.93,1.95-6.64,2.93-11.14,2.93h-1.91l0.01-0.58c4.66-1.87,7.34-5.25,7.34-10.9
        c0-5.65-2.68-9.02-7.35-10.89L150.64,1.53z M150.96,27.24l4.72,12.02c0.59,1.37,0.95,2.58,0.95,3.62c0,2.09-1.17,3.32-3.72,4.11
        v0.13h19.17v-0.13c-1.82-0.46-3.93-3.52-6.01-8.54l-4.54-11.21H150.96z"/>
</g>
</svg>
