<?xml version="1.0" encoding="utf-8"?>
<!-- Generator: Adobe Illustrator 25.0.1, SVG Export Plug-In . SVG Version: 6.00 Build 0)  -->
<svg version="1.1" id="Layer_1" xmlns="http://www.w3.org/2000/svg" xmlns:xlink="http://www.w3.org/1999/xlink" x="0px" y="0px"
     viewBox="0 0 209 31.7" style="enable-background:new 0 0 209 31.7;" xml:space="preserve">
<style type="text/css">
    .st0{fill:#FFFFFF;}
    .st1{opacity:0.5;}
</style>
<g>
    <path class="st0" d="M43.8,31.5c1.2-0.4,2.3-1,3.2-2.1s1.5-2.4,1.5-3.8c-0.3-3.5-2-4.5-7.2-6.8l-2-0.8c-5-2.1-7.1-4.5-7.1-8.5
        c0-4.8,3.8-8.7,9.1-9.1v0.1c-2.4,0.8-4.3,3.1-4.3,5.7c0,1.5,0.5,2.6,1.4,3.4c0.9,0.8,2.5,1.7,4.8,2.6l2.1,0.8c5.7,2.2,8,4.6,8,8.9
        C53.1,27,48.9,31,43.8,31.5L43.8,31.5z M41.2,31.7c-3.1-0.2-6.1-0.6-9.1-1.6V21h0.1c0.9,2.6,1.8,4.1,3.5,6.4S39.3,31.2,41.2,31.7
        L41.2,31.7z M43.8,0.5c2.1,0.1,4.6,0.5,7.2,1.2v8h-0.1C49.3,4.6,46.8,1.7,43.8,0.5L43.8,0.5L43.8,0.5z M55.4,1H62v0.1
        c-3.4,1.6-5.4,4.5-6.9,8.5h-0.1L55.4,1z M73.8,31.2H62.2v-0.1c1.6-0.6,2.4-1.9,2.4-3.9V1h6.9v26c0,2,0.8,3.4,2.4,3.9L73.8,31.2
        L73.8,31.2z M81.1,9.6L81.1,9.6c-1.6-4-3.7-6.9-7-8.5V1h6.6L81.1,9.6z M95.2,31.2H83.6v-0.1c1.6-0.6,2.4-1.9,2.4-3.9v-22
        c0-2.1-0.7-3.4-2.4-3.9V1h9.2v26C92.8,29.2,93.7,30.4,95.2,31.2C95.2,31.1,95.2,31.2,95.2,31.2z M111.1,31.2h-8.7
        c-1-1.3-2.3-3.4-3.8-6.4l-4.3-8.5v-0.1h0.5c4.3,0,6.2-2,6.2-6.8c0-4.3-1.8-7-5.4-8.1V1h1.8c3,0,5.4,0.6,7.3,1.9
        c1.9,1.3,2.9,3.2,2.9,5.7c0,3.7-2.4,6-6.5,7l4.3,7.5C108.1,28.1,109.8,30.3,111.1,31.2L111.1,31.2L111.1,31.2z M137.6,31.2h-9.2
        v-0.1c1.6-0.6,2.4-1.9,2.4-3.9v-22c0-2.1-0.7-3.4-2.4-3.9V1h9.2V31.2z M140.2,1.1L140.2,1.1l1.1-0.1c8.7,0,14.3,5.7,14.3,14.9
        c0.1,9.1-6.5,15.3-14.3,15.1h-1.1v-0.1c5.1-0.5,7.9-5.2,7.9-14.1C148.1,8.1,145.6,2.4,140.2,1.1 M123.5,1h-9.2v0.1
        c1.6,0.6,2.4,1.9,2.4,3.9v22c0,2.1-0.7,3.4-2.4,3.9v0.1h9.2V1z M166.2,31.2l-3.7-7.7l-3.7,7.7H166.2z M14.4,0l-3.4,8.5l6.9,17.4
        c0.5,0.9,0.5,1.7,0.5,2.4c0,1.5-0.7,2.2-2.4,2.7v0.2H29V31c-1.2-0.4-2.7-2.4-4.1-5.7L14.4,0z M7.5,31.2l-3.7-7.7L0,31.2H7.5z"/>
    <g class="st1">
        <path class="st0" d="M176.4,27.4c0,1.5,0.3,2.9,1.4,2.9c1.3,0,1.3-1.2,1.4-1.3h0.8c0,0.2-0.2,2.1-2.2,2.1s-2.3-1.9-2.3-3.7
            c0-2.2,0.8-3.7,2.3-3.7c1.8,0,2.2,1.5,2.2,3.3c0,0.1,0,0.3,0,0.5L176.4,27.4L176.4,27.4z M179.4,26.8c0-1.4-0.3-2.4-1.4-2.4
            c-1.4,0-1.5,1.9-1.5,2.4H179.4z"/>
        <path class="st0" d="M183.2,26c0-1.4,0-1.8,0-2.2h0.8c0,0.2,0,0.5,0,1c0.3-0.6,0.8-1.2,1.7-1.2c1,0,1.8,0.5,1.8,2.1v5h-0.8v-4.9
            c0-1-0.4-1.5-1.2-1.5c-1.1,0-1.5,0.8-1.5,2.3v4.1h-0.7L183.2,26L183.2,26z"/>
        <path class="st0" d="M190.1,23.8h1.1v-1.9h0.8v1.9h1.3v0.7H192v4.9c0,0.5,0.1,0.9,0.7,0.9c0.2,0,0.4,0,0.6,0v0.6
            c-0.2,0.1-0.6,0.1-0.8,0.1c-0.7,0-1.2-0.3-1.2-1.3v-5.1h-1.1L190.1,23.8L190.1,23.8z"/>
        <path class="st0" d="M196,25.9c0-1.2,0-1.7,0-2.1h0.8c0,0.2,0,0.6,0,1c0.3-0.7,0.8-1.1,1.6-1.1s1.3,0.3,1.4,1.1
            c0.2-0.6,0.8-1.1,1.7-1.1s1.6,0.4,1.6,2v5.1h-0.8v-4.9c0-0.8-0.2-1.4-1.1-1.4c-1,0-1.3,0.9-1.3,1.9v4.5h-0.6v-5
            c0-1-0.3-1.4-1.1-1.4c-1,0-1.3,0.9-1.3,2v4.4h-0.8L196,25.9L196,25.9z"/>
        <path class="st0" d="M205.8,23.8h1.1v-1.9h0.8v1.9h1.3v0.7h-1.3v4.9c0,0.5,0.1,0.9,0.7,0.9c0.2,0,0.4,0,0.6,0v0.6
            c-0.2,0.1-0.6,0.1-0.8,0.1c-0.7,0-1.2-0.3-1.2-1.3v-5.1h-1.2L205.8,23.8L205.8,23.8z"/>
    </g>
</g>
</svg>
