<svg xmlns="http://www.w3.org/2000/svg" id="Layer_1" x="0" y="0" version="1.1" viewBox="0 0 100 12.3" xml:space="preserve">
  <style>
    .st0{fill:#fff}
  </style>
  <path d="M0 12.1V.1h1.4c3.8 8.9 4.3 10 4.4 10.5-.1-1.6-.1-3.4-.1-5.4v-5h1v12H5.4C1.5 2.8 1.1 1.8.9 1.3 1 2.9 1 4.9 1 7v5.1H0zM17 6.2h-4.2v5h4.5v.9h-5.6V.1h5.6V1h-4.5v4.2H17v1zM23.2 12.1L20.7.1h1.1c1 4.8 1.8 9.2 2 10.6C24 9.3 25.4 3 26 .1h1.1c.6 2.9 2.1 9.2 2.2 10.6.3-2 1.6-7.7 2.2-10.6h1.1l-2.7 12h-1.2c-.6-2.8-1.9-8.9-2.1-10.5-.3 1.8-1.6 7.6-2.2 10.5h-1.2zM44.1 12.1L41.6.1h1.1c1 4.8 1.8 9.2 2 10.6.2-1.4 1.6-7.7 2.2-10.6H48c.6 2.9 2.1 9.2 2.2 10.6.3-2 1.6-7.7 2.2-10.6h1.1l-2.7 12h-1.2c-.6-2.8-1.9-8.9-2.1-10.5-.3 1.8-1.6 7.6-2.2 10.5h-1.2zM64.1 6c0 4-.9 6.3-3.6 6.3-2.5 0-3.5-2.2-3.5-6.2S58.1 0 60.6 0s3.5 2 3.5 6zm-6 0c0 3.6.8 5.4 2.5 5.4S63 9.7 63 6.1c0-3.7-.8-5.2-2.5-5.2-1.6 0-2.4 1.7-2.4 5.1zM69.6 6.5v5.7h-1V.2h3.1c2 0 3.1 1.1 3.1 3-.1 1.8-1 2.6-1.8 2.8 1.2.4 1.6 1.4 1.6 3.1v.5c0 1 0 1.9.2 2.6h-1.1c-.2-.5-.2-1.7-.2-2.6v-.5c0-1.7-.4-2.7-2.1-2.7h-1.8zm0-.9h1.8c1.6 0 2.2-.9 2.2-2.4 0-1.3-.6-2.2-2.1-2.2h-1.9v4.6zM79.2.2h1.1v11.1h4.3v.9h-5.4V.2zM88.5.2h2.6c2.8 0 4.1 1.9 4.1 5.6 0 4.1-1.2 6.3-4.3 6.3h-2.4V.2zm1 11h1.3c2.5 0 3.3-1.9 3.3-5.4 0-3.3-1-4.8-3.2-4.8h-1.3v10.2zM99 12.2v-1h1v1h-1z" class="st0"/>
</svg>
